%TF.GenerationSoftware,KiCad,Pcbnew,10.0.5*%
%TF.CreationDate,2026-09-30T09:45:50+00:00*%
%TF.ProjectId,modified,6d6f6469-6669-4656-942e-6b696361645f,rev?*%
%TF.SameCoordinates,Original*%
%TF.FileFunction,Legend,Top*%
%TF.FilePolarity,Positive*%
%FSLAX46Y46*%
G04 Gerber Fmt 4.6, Leading zero omitted, Abs format (unit mm)*
G04 Created by KiCad (PCBNEW 10.0.5) date 2026-09-30 09:45:50*
%MOMM*%
%LPD*%
G01*
G04 APERTURE LIST*
%ADD10C,0.000000*%
G04 APERTURE END LIST*
D10*
G36*
X10192380Y-164859D02*
G01*
X10384457Y-176330D01*
X10575925Y-195428D01*
X10766483Y-222124D01*
X10955829Y-256374D01*
X11143663Y-298124D01*
X11329689Y-347310D01*
X11513612Y-403852D01*
X11695143Y-467662D01*
X11873992Y-538638D01*
X12049879Y-616668D01*
X12222524Y-701630D01*
X12391655Y-793388D01*
X12557005Y-891798D01*
X12718311Y-996703D01*
X12875319Y-1107939D01*
X13027781Y-1225329D01*
X13175455Y-1348687D01*
X13318108Y-1477819D01*
X13455514Y-1612520D01*
X13587456Y-1752577D01*
X13713726Y-1897769D01*
X13834124Y-2047867D01*
X13948459Y-2202632D01*
X14056551Y-2361821D01*
X14158229Y-2525181D01*
X14253332Y-2692454D01*
X14341709Y-2863376D01*
X14423221Y-3037676D01*
X14497739Y-3215080D01*
X14565146Y-3395305D01*
X14625333Y-3578068D01*
X14678208Y-3763080D01*
X14723685Y-3950047D01*
X14761693Y-4138674D01*
X14792171Y-4328663D01*
X14815073Y-4519714D01*
X14830360Y-4711524D01*
X14838010Y-4903791D01*
X14838010Y-5096209D01*
X14830360Y-5288476D01*
X14815073Y-5480286D01*
X14792171Y-5671337D01*
X14761693Y-5861326D01*
X14723685Y-6049953D01*
X14678208Y-6236920D01*
X14625333Y-6421932D01*
X14565146Y-6604695D01*
X14497739Y-6784920D01*
X14423221Y-6962324D01*
X14341709Y-7136624D01*
X14253332Y-7307546D01*
X14158229Y-7474819D01*
X14056551Y-7638179D01*
X13948459Y-7797368D01*
X13834124Y-7952133D01*
X13713726Y-8102231D01*
X13587456Y-8247423D01*
X13455514Y-8387480D01*
X13318108Y-8522181D01*
X13175455Y-8651313D01*
X13027781Y-8774671D01*
X12875319Y-8892061D01*
X12718311Y-9003297D01*
X12557005Y-9108202D01*
X12391655Y-9206612D01*
X12222524Y-9298370D01*
X12049879Y-9383332D01*
X11873992Y-9461362D01*
X11695143Y-9532338D01*
X11513612Y-9596148D01*
X11329689Y-9652690D01*
X11143663Y-9701876D01*
X10955829Y-9743626D01*
X10766483Y-9777876D01*
X10575925Y-9804572D01*
X10384457Y-9823670D01*
X10192380Y-9835141D01*
X9998399Y-9838999D01*
X161001Y-9838999D01*
X161001Y-161001D01*
X9998399Y-161001D01*
X10192380Y-164859D01*
G37*
M02*
