%TF.GenerationSoftware,KiCad,Pcbnew,10.0.5*%
%TF.CreationDate,2026-09-30T10:35:27+00:00*%
%TF.ProjectId,modified,6d6f6469-6669-4656-942e-6b696361645f,rev?*%
%TF.SameCoordinates,Original*%
%TF.FileFunction,Legend,Top*%
%TF.FilePolarity,Positive*%
%FSLAX46Y46*%
G04 Gerber Fmt 4.6, Leading zero omitted, Abs format (unit mm)*
G04 Created by KiCad (PCBNEW 10.0.5) date 2026-09-30 10:35:27*
%MOMM*%
%LPD*%
G01*
G04 APERTURE LIST*
%ADD10C,0.000000*%
G04 APERTURE END LIST*
D10*
G36*
X3648039Y-4950192D02*
G01*
X3647977Y-4955767D01*
X3000000Y-3000000D01*
X3648039Y-4950192D01*
G37*
G36*
X3647977Y-5044233D02*
G01*
X3000000Y-7000000D01*
X3647977Y-4955767D01*
X3647977Y-5044233D01*
G37*
G36*
X3647977Y-4955767D02*
G01*
X3000000Y-7000000D01*
X3000000Y-3000000D01*
X3647977Y-4955767D01*
G37*
G36*
X3648039Y-5049808D02*
G01*
X3000000Y-7000000D01*
X3647977Y-5044233D01*
X3648039Y-5049808D01*
G37*
G36*
X3648040Y-4950148D02*
G01*
X3648039Y-4950192D01*
X3000000Y-3000000D01*
X3648040Y-4950148D01*
G37*
G36*
X3648040Y-5049852D02*
G01*
X3000000Y-7000000D01*
X3648039Y-5049808D01*
X3648040Y-5049852D01*
G37*
G36*
X3648225Y-4944576D02*
G01*
X3648040Y-4950148D01*
X3000000Y-3000000D01*
X3648225Y-4944576D01*
G37*
G36*
X3648225Y-5055424D02*
G01*
X3000000Y-7000000D01*
X3648040Y-5049852D01*
X3648225Y-5055424D01*
G37*
G36*
X3648616Y-4935738D02*
G01*
X3648225Y-4944576D01*
X3000000Y-3000000D01*
X3648616Y-4935738D01*
G37*
G36*
X3648616Y-5064262D02*
G01*
X3000000Y-7000000D01*
X3648225Y-5055424D01*
X3648616Y-5064262D01*
G37*
G36*
X3648925Y-4930171D02*
G01*
X3648616Y-4935738D01*
X3000000Y-3000000D01*
X3648925Y-4930171D01*
G37*
G36*
X3648925Y-5069829D02*
G01*
X3000000Y-7000000D01*
X3648616Y-5064262D01*
X3648925Y-5069829D01*
G37*
G36*
X3648927Y-4930127D02*
G01*
X3648925Y-4930171D01*
X3000000Y-3000000D01*
X3648927Y-4930127D01*
G37*
G36*
X3648927Y-5069873D02*
G01*
X3000000Y-7000000D01*
X3648925Y-5069829D01*
X3648927Y-5069873D01*
G37*
G36*
X3649359Y-4924568D02*
G01*
X3648927Y-4930127D01*
X3000000Y-3000000D01*
X3649359Y-4924568D01*
G37*
G36*
X3649359Y-5075432D02*
G01*
X3000000Y-7000000D01*
X3648927Y-5069873D01*
X3649359Y-5075432D01*
G37*
G36*
X3657177Y-4836448D02*
G01*
X3649359Y-4924568D01*
X3000000Y-3000000D01*
X3657177Y-4836448D01*
G37*
G36*
X3657177Y-5163552D02*
G01*
X3000000Y-7000000D01*
X3649359Y-5075432D01*
X3657177Y-5163552D01*
G37*
G36*
X3657732Y-4830900D02*
G01*
X3657177Y-4836448D01*
X3000000Y-3000000D01*
X3657732Y-4830900D01*
G37*
G36*
X3657732Y-5169100D02*
G01*
X3000000Y-7000000D01*
X3657177Y-5163552D01*
X3657732Y-5169100D01*
G37*
G36*
X3657736Y-4830856D02*
G01*
X3657732Y-4830900D01*
X3000000Y-3000000D01*
X3657736Y-4830856D01*
G37*
G36*
X3657736Y-5169144D02*
G01*
X3000000Y-7000000D01*
X3657732Y-5169100D01*
X3657736Y-5169144D01*
G37*
G36*
X3658413Y-4825322D02*
G01*
X3657736Y-4830856D01*
X3000000Y-3000000D01*
X3658413Y-4825322D01*
G37*
G36*
X3658413Y-5174678D02*
G01*
X3000000Y-7000000D01*
X3657736Y-5169144D01*
X3658413Y-5174678D01*
G37*
G36*
X3659584Y-4816554D02*
G01*
X3658413Y-4825322D01*
X3000000Y-3000000D01*
X3659584Y-4816554D01*
G37*
G36*
X3659584Y-5183446D02*
G01*
X3000000Y-7000000D01*
X3658413Y-5174678D01*
X3659584Y-5183446D01*
G37*
G36*
X3660383Y-4811036D02*
G01*
X3659584Y-4816554D01*
X3000000Y-3000000D01*
X3660383Y-4811036D01*
G37*
G36*
X3660383Y-5188964D02*
G01*
X3000000Y-7000000D01*
X3659584Y-5183446D01*
X3660383Y-5188964D01*
G37*
G36*
X3660390Y-4810992D02*
G01*
X3660383Y-4811036D01*
X3000000Y-3000000D01*
X3660390Y-4810992D01*
G37*
G36*
X3660390Y-5189008D02*
G01*
X3000000Y-7000000D01*
X3660383Y-5188964D01*
X3660390Y-5189008D01*
G37*
G36*
X3661311Y-4805494D02*
G01*
X3660390Y-4810992D01*
X3000000Y-3000000D01*
X3661311Y-4805494D01*
G37*
G36*
X3661311Y-5194506D02*
G01*
X3000000Y-7000000D01*
X3660390Y-5189008D01*
X3661311Y-5194506D01*
G37*
G36*
X3676887Y-4718409D02*
G01*
X3661311Y-4805494D01*
X3000000Y-3000000D01*
X3676887Y-4718409D01*
G37*
G36*
X3676887Y-5281591D02*
G01*
X3000000Y-7000000D01*
X3661311Y-5194506D01*
X3676887Y-5281591D01*
G37*
G36*
X3677929Y-4712932D02*
G01*
X3676887Y-4718409D01*
X3000000Y-3000000D01*
X3677929Y-4712932D01*
G37*
G36*
X3677929Y-5287068D02*
G01*
X3000000Y-7000000D01*
X3676887Y-5281591D01*
X3677929Y-5287068D01*
G37*
G36*
X3677938Y-4712889D02*
G01*
X3677929Y-4712932D01*
X3000000Y-3000000D01*
X3677938Y-4712889D01*
G37*
G36*
X3677938Y-5287111D02*
G01*
X3000000Y-7000000D01*
X3677929Y-5287068D01*
X3677938Y-5287111D01*
G37*
G36*
X3679101Y-4707436D02*
G01*
X3677938Y-4712889D01*
X3000000Y-3000000D01*
X3679101Y-4707436D01*
G37*
G36*
X3679101Y-5292564D02*
G01*
X3000000Y-7000000D01*
X3677938Y-5287111D01*
X3679101Y-5292564D01*
G37*
G36*
X3681042Y-4698805D02*
G01*
X3679101Y-4707436D01*
X3000000Y-3000000D01*
X3681042Y-4698805D01*
G37*
G36*
X3681042Y-5301195D02*
G01*
X3000000Y-7000000D01*
X3679101Y-5292564D01*
X3681042Y-5301195D01*
G37*
G36*
X3682326Y-4693380D02*
G01*
X3681042Y-4698805D01*
X3000000Y-3000000D01*
X3682326Y-4693380D01*
G37*
G36*
X3682326Y-5306620D02*
G01*
X3000000Y-7000000D01*
X3681042Y-5301195D01*
X3682326Y-5306620D01*
G37*
G36*
X3682336Y-4693337D02*
G01*
X3682326Y-4693380D01*
X3000000Y-3000000D01*
X3682336Y-4693337D01*
G37*
G36*
X3682336Y-5306663D02*
G01*
X3000000Y-7000000D01*
X3682326Y-5306620D01*
X3682336Y-5306663D01*
G37*
G36*
X3683740Y-4687941D02*
G01*
X3682336Y-4693337D01*
X3000000Y-3000000D01*
X3683740Y-4687941D01*
G37*
G36*
X3683740Y-5312059D02*
G01*
X3000000Y-7000000D01*
X3682336Y-5306663D01*
X3683740Y-5312059D01*
G37*
G36*
X3706951Y-4602574D02*
G01*
X3683740Y-4687941D01*
X3000000Y-3000000D01*
X3706951Y-4602574D01*
G37*
G36*
X3706951Y-5397426D02*
G01*
X3000000Y-7000000D01*
X3683740Y-5312059D01*
X3706951Y-5397426D01*
G37*
G36*
X3708474Y-4597211D02*
G01*
X3706951Y-4602574D01*
X3000000Y-3000000D01*
X3708474Y-4597211D01*
G37*
G36*
X3708474Y-5402789D02*
G01*
X3000000Y-7000000D01*
X3706951Y-5397426D01*
X3708474Y-5402789D01*
G37*
G36*
X3708486Y-4597168D02*
G01*
X3708474Y-4597211D01*
X3000000Y-3000000D01*
X3708486Y-4597168D01*
G37*
G36*
X3708486Y-5402832D02*
G01*
X3000000Y-7000000D01*
X3708474Y-5402789D01*
X3708486Y-5402832D01*
G37*
G36*
X3710127Y-4591840D02*
G01*
X3708486Y-4597168D01*
X3000000Y-3000000D01*
X3710127Y-4591840D01*
G37*
G36*
X3710127Y-5408160D02*
G01*
X3000000Y-7000000D01*
X3708486Y-5402832D01*
X3710127Y-5408160D01*
G37*
G36*
X3712823Y-4583414D02*
G01*
X3710127Y-4591840D01*
X3000000Y-3000000D01*
X3712823Y-4583414D01*
G37*
G36*
X3712823Y-5416586D02*
G01*
X3000000Y-7000000D01*
X3710127Y-5408160D01*
X3712823Y-5416586D01*
G37*
G36*
X3714581Y-4578124D02*
G01*
X3712823Y-4583414D01*
X3000000Y-3000000D01*
X3714581Y-4578124D01*
G37*
G36*
X3714581Y-5421876D02*
G01*
X3000000Y-7000000D01*
X3712823Y-5416586D01*
X3714581Y-5421876D01*
G37*
G36*
X3714596Y-4578082D02*
G01*
X3714581Y-4578124D01*
X3000000Y-3000000D01*
X3714596Y-4578082D01*
G37*
G36*
X3714596Y-5421918D02*
G01*
X3000000Y-7000000D01*
X3714581Y-5421876D01*
X3714596Y-5421918D01*
G37*
G36*
X3716470Y-4572831D02*
G01*
X3714596Y-4578082D01*
X3000000Y-3000000D01*
X3716470Y-4572831D01*
G37*
G36*
X3716470Y-5427169D02*
G01*
X3000000Y-7000000D01*
X3714596Y-5421918D01*
X3716470Y-5427169D01*
G37*
G36*
X3747136Y-4489850D02*
G01*
X3716470Y-4572831D01*
X3000000Y-3000000D01*
X3747136Y-4489850D01*
G37*
G36*
X3747136Y-5510150D02*
G01*
X3000000Y-7000000D01*
X3716470Y-5427169D01*
X3747136Y-5510150D01*
G37*
G36*
X3749126Y-4484642D02*
G01*
X3747136Y-4489850D01*
X3000000Y-3000000D01*
X3749126Y-4484642D01*
G37*
G36*
X3749126Y-5515358D02*
G01*
X3000000Y-7000000D01*
X3747136Y-5510150D01*
X3749126Y-5515358D01*
G37*
G36*
X3749142Y-4484601D02*
G01*
X3749126Y-4484642D01*
X3000000Y-3000000D01*
X3749142Y-4484601D01*
G37*
G36*
X3749142Y-5515399D02*
G01*
X3000000Y-7000000D01*
X3749126Y-5515358D01*
X3749142Y-5515399D01*
G37*
G36*
X3751247Y-4479438D02*
G01*
X3749142Y-4484601D01*
X3000000Y-3000000D01*
X3751247Y-4479438D01*
G37*
G36*
X3751247Y-5520562D02*
G01*
X3000000Y-7000000D01*
X3749142Y-5515399D01*
X3751247Y-5520562D01*
G37*
G36*
X3754678Y-4471284D02*
G01*
X3751247Y-4479438D01*
X3000000Y-3000000D01*
X3754678Y-4471284D01*
G37*
G36*
X3754678Y-5528716D02*
G01*
X3000000Y-7000000D01*
X3751247Y-5520562D01*
X3754678Y-5528716D01*
G37*
G36*
X3756897Y-4466169D02*
G01*
X3754678Y-4471284D01*
X3000000Y-3000000D01*
X3756897Y-4466169D01*
G37*
G36*
X3756897Y-5533831D02*
G01*
X3000000Y-7000000D01*
X3754678Y-5528716D01*
X3756897Y-5533831D01*
G37*
G36*
X3756915Y-4466129D02*
G01*
X3756897Y-4466169D01*
X3000000Y-3000000D01*
X3756915Y-4466129D01*
G37*
G36*
X3756915Y-5533871D02*
G01*
X3000000Y-7000000D01*
X3756897Y-5533831D01*
X3756915Y-5533871D01*
G37*
G36*
X3759246Y-4461064D02*
G01*
X3756915Y-4466129D01*
X3000000Y-3000000D01*
X3759246Y-4461064D01*
G37*
G36*
X3759246Y-5538936D02*
G01*
X3000000Y-7000000D01*
X3756915Y-5533871D01*
X3759246Y-5538936D01*
G37*
G36*
X3797126Y-4381118D02*
G01*
X3759246Y-4461064D01*
X3000000Y-3000000D01*
X3797126Y-4381118D01*
G37*
G36*
X3797126Y-5618882D02*
G01*
X3000000Y-7000000D01*
X3759246Y-5538936D01*
X3797126Y-5618882D01*
G37*
G36*
X3799569Y-4376106D02*
G01*
X3797126Y-4381118D01*
X3000000Y-3000000D01*
X3799569Y-4376106D01*
G37*
G36*
X3799569Y-5623894D02*
G01*
X3000000Y-7000000D01*
X3797126Y-5618882D01*
X3799569Y-5623894D01*
G37*
G36*
X3799588Y-4376067D02*
G01*
X3799569Y-4376106D01*
X3000000Y-3000000D01*
X3799588Y-4376067D01*
G37*
G36*
X3799588Y-5623933D02*
G01*
X3000000Y-7000000D01*
X3799569Y-5623894D01*
X3799588Y-5623933D01*
G37*
G36*
X3802141Y-4371110D02*
G01*
X3799588Y-4376067D01*
X3000000Y-3000000D01*
X3802141Y-4371110D01*
G37*
G36*
X3802141Y-5628890D02*
G01*
X3000000Y-7000000D01*
X3799588Y-5623933D01*
X3802141Y-5628890D01*
G37*
G36*
X3806279Y-4363291D02*
G01*
X3802141Y-4371110D01*
X3000000Y-3000000D01*
X3806279Y-4363291D01*
G37*
G36*
X3806279Y-5636709D02*
G01*
X3000000Y-7000000D01*
X3802141Y-5628890D01*
X3806279Y-5636709D01*
G37*
G36*
X3808941Y-4358392D02*
G01*
X3806279Y-4363291D01*
X3000000Y-3000000D01*
X3808941Y-4358392D01*
G37*
G36*
X3808941Y-5641608D02*
G01*
X3000000Y-7000000D01*
X3806279Y-5636709D01*
X3808941Y-5641608D01*
G37*
G36*
X3808963Y-4358354D02*
G01*
X3808941Y-4358392D01*
X3000000Y-3000000D01*
X3808963Y-4358354D01*
G37*
G36*
X3808963Y-5641646D02*
G01*
X3000000Y-7000000D01*
X3808941Y-5641608D01*
X3808963Y-5641646D01*
G37*
G36*
X3811733Y-4353515D02*
G01*
X3808963Y-4358354D01*
X3000000Y-3000000D01*
X3811733Y-4353515D01*
G37*
G36*
X3811733Y-5646485D02*
G01*
X3000000Y-7000000D01*
X3808963Y-5641646D01*
X3811733Y-5646485D01*
G37*
G36*
X3856530Y-4277229D02*
G01*
X3811733Y-4353515D01*
X3000000Y-3000000D01*
X3856530Y-4277229D01*
G37*
G36*
X3856530Y-5722771D02*
G01*
X3000000Y-7000000D01*
X3811733Y-5646485D01*
X3856530Y-5722771D01*
G37*
G36*
X3859406Y-4272453D02*
G01*
X3856530Y-4277229D01*
X3000000Y-3000000D01*
X3859406Y-4272453D01*
G37*
G36*
X3859406Y-5727547D02*
G01*
X3000000Y-7000000D01*
X3856530Y-5722771D01*
X3859406Y-5727547D01*
G37*
G36*
X3859429Y-4272416D02*
G01*
X3859406Y-4272453D01*
X3000000Y-3000000D01*
X3859429Y-4272416D01*
G37*
G36*
X3859429Y-5727584D02*
G01*
X3000000Y-7000000D01*
X3859406Y-5727547D01*
X3859429Y-5727584D01*
G37*
G36*
X3862410Y-4267704D02*
G01*
X3859429Y-4272416D01*
X3000000Y-3000000D01*
X3862410Y-4267704D01*
G37*
G36*
X3862410Y-5732296D02*
G01*
X3000000Y-7000000D01*
X3859429Y-5727584D01*
X3862410Y-5732296D01*
G37*
G36*
X3867223Y-4260281D02*
G01*
X3862410Y-4267704D01*
X3000000Y-3000000D01*
X3867223Y-4260281D01*
G37*
G36*
X3867223Y-5739719D02*
G01*
X3000000Y-7000000D01*
X3862410Y-5732296D01*
X3867223Y-5739719D01*
G37*
G36*
X3870307Y-4255637D02*
G01*
X3867223Y-4260281D01*
X3000000Y-3000000D01*
X3870307Y-4255637D01*
G37*
G36*
X3870307Y-5744363D02*
G01*
X3000000Y-7000000D01*
X3867223Y-5739719D01*
X3870307Y-5744363D01*
G37*
G36*
X3870332Y-4255601D02*
G01*
X3870307Y-4255637D01*
X3000000Y-3000000D01*
X3870332Y-4255601D01*
G37*
G36*
X3870332Y-5744399D02*
G01*
X3000000Y-7000000D01*
X3870307Y-5744363D01*
X3870332Y-5744399D01*
G37*
G36*
X3873519Y-4251026D02*
G01*
X3870332Y-4255601D01*
X3000000Y-3000000D01*
X3873519Y-4251026D01*
G37*
G36*
X3873519Y-5748974D02*
G01*
X3000000Y-7000000D01*
X3870332Y-5744399D01*
X3873519Y-5748974D01*
G37*
G36*
X3924883Y-4178998D02*
G01*
X3873519Y-4251026D01*
X3000000Y-3000000D01*
X3924883Y-4178998D01*
G37*
G36*
X3924883Y-5821002D02*
G01*
X3000000Y-7000000D01*
X3873519Y-5748974D01*
X3924883Y-5821002D01*
G37*
G36*
X3928170Y-4174494D02*
G01*
X3924883Y-4178998D01*
X3000000Y-3000000D01*
X3928170Y-4174494D01*
G37*
G36*
X3928170Y-5825506D02*
G01*
X3000000Y-7000000D01*
X3924883Y-5821002D01*
X3928170Y-5825506D01*
G37*
G36*
X3928196Y-4174459D02*
G01*
X3928170Y-4174494D01*
X3000000Y-3000000D01*
X3928196Y-4174459D01*
G37*
G36*
X3928196Y-5825541D02*
G01*
X3000000Y-7000000D01*
X3928170Y-5825506D01*
X3928196Y-5825541D01*
G37*
G36*
X3931582Y-4170030D02*
G01*
X3928196Y-4174459D01*
X3000000Y-3000000D01*
X3931582Y-4170030D01*
G37*
G36*
X3931582Y-5829970D02*
G01*
X3000000Y-7000000D01*
X3928196Y-5825541D01*
X3931582Y-5829970D01*
G37*
G36*
X3937032Y-4163061D02*
G01*
X3931582Y-4170030D01*
X3000000Y-3000000D01*
X3937032Y-4163061D01*
G37*
G36*
X3937032Y-5836939D02*
G01*
X3000000Y-7000000D01*
X3931582Y-5829970D01*
X3937032Y-5836939D01*
G37*
G36*
X3940515Y-4158708D02*
G01*
X3937032Y-4163061D01*
X3000000Y-3000000D01*
X3940515Y-4158708D01*
G37*
G36*
X3940515Y-5841292D02*
G01*
X3000000Y-7000000D01*
X3937032Y-5836939D01*
X3940515Y-5841292D01*
G37*
G36*
X3940543Y-4158674D02*
G01*
X3940515Y-4158708D01*
X3000000Y-3000000D01*
X3940543Y-4158674D01*
G37*
G36*
X3940543Y-5841326D02*
G01*
X3000000Y-7000000D01*
X3940515Y-5841292D01*
X3940543Y-5841326D01*
G37*
G36*
X3944121Y-4154398D02*
G01*
X3940543Y-4158674D01*
X3000000Y-3000000D01*
X3944121Y-4154398D01*
G37*
G36*
X3944121Y-5845602D02*
G01*
X3000000Y-7000000D01*
X3940543Y-5841326D01*
X3944121Y-5845602D01*
G37*
G36*
X4001650Y-4087191D02*
G01*
X3944121Y-4154398D01*
X3000000Y-3000000D01*
X4001650Y-4087191D01*
G37*
G36*
X4001650Y-5912809D02*
G01*
X3000000Y-7000000D01*
X3944121Y-5845602D01*
X4001650Y-5912809D01*
G37*
G36*
X4005322Y-4082996D02*
G01*
X4001650Y-4087191D01*
X3000000Y-3000000D01*
X4005322Y-4082996D01*
G37*
G36*
X4005322Y-5917004D02*
G01*
X3000000Y-7000000D01*
X4001650Y-5912809D01*
X4005322Y-5917004D01*
G37*
G36*
X4005352Y-4082963D02*
G01*
X4005322Y-4082996D01*
X3000000Y-3000000D01*
X4005352Y-4082963D01*
G37*
G36*
X4005352Y-5917037D02*
G01*
X3000000Y-7000000D01*
X4005322Y-5917004D01*
X4005352Y-5917037D01*
G37*
G36*
X4009116Y-4078851D02*
G01*
X4005352Y-4082963D01*
X3000000Y-3000000D01*
X4009116Y-4078851D01*
G37*
G36*
X4009116Y-5921149D02*
G01*
X3000000Y-7000000D01*
X4005352Y-5917037D01*
X4009116Y-5921149D01*
G37*
G36*
X4015160Y-4072391D02*
G01*
X4009116Y-4078851D01*
X3000000Y-3000000D01*
X4015160Y-4072391D01*
G37*
G36*
X4015160Y-5927609D02*
G01*
X3000000Y-7000000D01*
X4009116Y-5921149D01*
X4015160Y-5927609D01*
G37*
G36*
X4019014Y-4068362D02*
G01*
X4015160Y-4072391D01*
X3000000Y-3000000D01*
X4019014Y-4068362D01*
G37*
G36*
X4019014Y-5931638D02*
G01*
X3000000Y-7000000D01*
X4015160Y-5927609D01*
X4019014Y-5931638D01*
G37*
G36*
X4019045Y-4068331D02*
G01*
X4019014Y-4068362D01*
X3000000Y-3000000D01*
X4019045Y-4068331D01*
G37*
G36*
X4019045Y-5931669D02*
G01*
X3000000Y-7000000D01*
X4019014Y-5931638D01*
X4019045Y-5931669D01*
G37*
G36*
X4022988Y-4064389D02*
G01*
X4019045Y-4068331D01*
X3000000Y-3000000D01*
X4022988Y-4064389D01*
G37*
G36*
X4022988Y-5935611D02*
G01*
X3000000Y-7000000D01*
X4019045Y-5931669D01*
X4022988Y-5935611D01*
G37*
G36*
X4086231Y-4002529D02*
G01*
X4022988Y-4064389D01*
X3000000Y-3000000D01*
X4086231Y-4002529D01*
G37*
G36*
X4086231Y-5997471D02*
G01*
X3000000Y-7000000D01*
X4022988Y-5935611D01*
X4086231Y-5997471D01*
G37*
G36*
X4090260Y-3998675D02*
G01*
X4086231Y-4002529D01*
X3000000Y-3000000D01*
X4090260Y-3998675D01*
G37*
G36*
X4090260Y-6001325D02*
G01*
X3000000Y-7000000D01*
X4086231Y-5997471D01*
X4090260Y-6001325D01*
G37*
G36*
X4090292Y-3998645D02*
G01*
X4090260Y-3998675D01*
X3000000Y-3000000D01*
X4090292Y-3998645D01*
G37*
G36*
X4090292Y-6001355D02*
G01*
X3000000Y-7000000D01*
X4090260Y-6001325D01*
X4090292Y-6001355D01*
G37*
G36*
X4094405Y-3994881D02*
G01*
X4090292Y-3998645D01*
X3000000Y-3000000D01*
X4094405Y-3994881D01*
G37*
G36*
X4094405Y-6005119D02*
G01*
X3000000Y-7000000D01*
X4090292Y-6001355D01*
X4094405Y-6005119D01*
G37*
G36*
X4100996Y-3988981D02*
G01*
X4094405Y-3994881D01*
X3000000Y-3000000D01*
X4100996Y-3988981D01*
G37*
G36*
X4100996Y-6011019D02*
G01*
X3000000Y-7000000D01*
X4094405Y-6005119D01*
X4100996Y-6011019D01*
G37*
G36*
X4105191Y-3985309D02*
G01*
X4100996Y-3988981D01*
X3000000Y-3000000D01*
X4105191Y-3985309D01*
G37*
G36*
X4105191Y-6014691D02*
G01*
X3000000Y-7000000D01*
X4100996Y-6011019D01*
X4105191Y-6014691D01*
G37*
G36*
X4105225Y-3985280D02*
G01*
X4105191Y-3985309D01*
X3000000Y-3000000D01*
X4105225Y-3985280D01*
G37*
G36*
X4105225Y-6014720D02*
G01*
X3000000Y-7000000D01*
X4105191Y-6014691D01*
X4105225Y-6014720D01*
G37*
G36*
X4109500Y-3981701D02*
G01*
X4105225Y-3985280D01*
X3000000Y-3000000D01*
X4109500Y-3981701D01*
G37*
G36*
X4109500Y-6018299D02*
G01*
X3000000Y-7000000D01*
X4105225Y-6014720D01*
X4109500Y-6018299D01*
G37*
G36*
X4177963Y-3925673D02*
G01*
X4109500Y-3981701D01*
X3000000Y-3000000D01*
X4177963Y-3925673D01*
G37*
G36*
X4177963Y-6074327D02*
G01*
X3000000Y-7000000D01*
X4109500Y-6018299D01*
X4177963Y-6074327D01*
G37*
G36*
X4182317Y-3922190D02*
G01*
X4177963Y-3925673D01*
X3000000Y-3000000D01*
X4182317Y-3922190D01*
G37*
G36*
X4182317Y-6077810D02*
G01*
X3000000Y-7000000D01*
X4177963Y-6074327D01*
X4182317Y-6077810D01*
G37*
G36*
X4182352Y-3922163D02*
G01*
X4182317Y-3922190D01*
X3000000Y-3000000D01*
X4182352Y-3922163D01*
G37*
G36*
X4182352Y-6077837D02*
G01*
X3000000Y-7000000D01*
X4182317Y-6077810D01*
X4182352Y-6077837D01*
G37*
G36*
X4186781Y-3918777D02*
G01*
X4182352Y-3922163D01*
X3000000Y-3000000D01*
X4186781Y-3918777D01*
G37*
G36*
X4186781Y-6081223D02*
G01*
X3000000Y-7000000D01*
X4182352Y-6077837D01*
X4186781Y-6081223D01*
G37*
G36*
X4193868Y-3913483D02*
G01*
X4186781Y-3918777D01*
X3000000Y-3000000D01*
X4193868Y-3913483D01*
G37*
G36*
X4193868Y-6086517D02*
G01*
X3000000Y-7000000D01*
X4186781Y-6081223D01*
X4193868Y-6086517D01*
G37*
G36*
X4198372Y-3910196D02*
G01*
X4193868Y-3913483D01*
X3000000Y-3000000D01*
X4198372Y-3910196D01*
G37*
G36*
X4198372Y-6089804D02*
G01*
X3000000Y-7000000D01*
X4193868Y-6086517D01*
X4198372Y-6089804D01*
G37*
G36*
X4198408Y-3910170D02*
G01*
X4198372Y-3910196D01*
X3000000Y-3000000D01*
X4198408Y-3910170D01*
G37*
G36*
X4198408Y-6089830D02*
G01*
X3000000Y-7000000D01*
X4198372Y-6089804D01*
X4198408Y-6089830D01*
G37*
G36*
X4202982Y-3906984D02*
G01*
X4198408Y-3910170D01*
X3000000Y-3000000D01*
X4202982Y-3906984D01*
G37*
G36*
X4202982Y-6093016D02*
G01*
X3000000Y-7000000D01*
X4198408Y-6089830D01*
X4202982Y-6093016D01*
G37*
G36*
X4276129Y-3857226D02*
G01*
X4202982Y-3906984D01*
X3000000Y-3000000D01*
X4276129Y-3857226D01*
G37*
G36*
X4276129Y-6142774D02*
G01*
X3000000Y-7000000D01*
X4202982Y-6093016D01*
X4276129Y-6142774D01*
G37*
G36*
X4280773Y-3854141D02*
G01*
X4276129Y-3857226D01*
X3000000Y-3000000D01*
X4280773Y-3854141D01*
G37*
G36*
X4280773Y-6145859D02*
G01*
X3000000Y-7000000D01*
X4276129Y-6142774D01*
X4280773Y-6145859D01*
G37*
G36*
X4280811Y-3854117D02*
G01*
X4280773Y-3854141D01*
X3000000Y-3000000D01*
X4280811Y-3854117D01*
G37*
G36*
X4280811Y-6145883D02*
G01*
X3000000Y-7000000D01*
X4280773Y-6145859D01*
X4280811Y-6145883D01*
G37*
G36*
X4285522Y-3851136D02*
G01*
X4280811Y-3854117D01*
X3000000Y-3000000D01*
X4285522Y-3851136D01*
G37*
G36*
X4285522Y-6148864D02*
G01*
X3000000Y-7000000D01*
X4280811Y-6145883D01*
X4285522Y-6148864D01*
G37*
G36*
X4293049Y-3846489D02*
G01*
X4285522Y-3851136D01*
X3000000Y-3000000D01*
X4293049Y-3846489D01*
G37*
G36*
X4293049Y-6153511D02*
G01*
X3000000Y-7000000D01*
X4285522Y-6148864D01*
X4293049Y-6153511D01*
G37*
G36*
X4297825Y-3843613D02*
G01*
X4293049Y-3846489D01*
X3000000Y-3000000D01*
X4297825Y-3843613D01*
G37*
G36*
X4297825Y-6156387D02*
G01*
X3000000Y-7000000D01*
X4293049Y-6153511D01*
X4297825Y-6156387D01*
G37*
G36*
X4297864Y-3843590D02*
G01*
X4297825Y-3843613D01*
X3000000Y-3000000D01*
X4297864Y-3843590D01*
G37*
G36*
X4297864Y-6156410D02*
G01*
X3000000Y-7000000D01*
X4297825Y-6156387D01*
X4297864Y-6156410D01*
G37*
G36*
X4302702Y-3840820D02*
G01*
X4297864Y-3843590D01*
X3000000Y-3000000D01*
X4302702Y-3840820D01*
G37*
G36*
X4302702Y-6159180D02*
G01*
X3000000Y-7000000D01*
X4297864Y-6156410D01*
X4302702Y-6159180D01*
G37*
G36*
X4379961Y-3797722D02*
G01*
X4302702Y-3840820D01*
X3000000Y-3000000D01*
X4379961Y-3797722D01*
G37*
G36*
X4379961Y-6202278D02*
G01*
X3000000Y-7000000D01*
X4302702Y-6159180D01*
X4379961Y-6202278D01*
G37*
G36*
X4384859Y-3795060D02*
G01*
X4379961Y-3797722D01*
X3000000Y-3000000D01*
X4384859Y-3795060D01*
G37*
G36*
X4384859Y-6204940D02*
G01*
X3000000Y-7000000D01*
X4379961Y-6202278D01*
X4384859Y-6204940D01*
G37*
G36*
X4384898Y-3795039D02*
G01*
X4384859Y-3795060D01*
X3000000Y-3000000D01*
X4384898Y-3795039D01*
G37*
G36*
X4384898Y-6204961D02*
G01*
X3000000Y-7000000D01*
X4384859Y-6204940D01*
X4384898Y-6204961D01*
G37*
G36*
X4389854Y-3792486D02*
G01*
X4384898Y-3795039D01*
X3000000Y-3000000D01*
X4389854Y-3792486D01*
G37*
G36*
X4389854Y-6207514D02*
G01*
X3000000Y-7000000D01*
X4384898Y-6204961D01*
X4389854Y-6207514D01*
G37*
G36*
X4397763Y-3788522D02*
G01*
X4389854Y-3792486D01*
X3000000Y-3000000D01*
X4397763Y-3788522D01*
G37*
G36*
X4397763Y-6211478D02*
G01*
X3000000Y-7000000D01*
X4389854Y-6207514D01*
X4397763Y-6211478D01*
G37*
G36*
X4402775Y-3786079D02*
G01*
X4397763Y-3788522D01*
X3000000Y-3000000D01*
X4402775Y-3786079D01*
G37*
G36*
X4402775Y-6213921D02*
G01*
X3000000Y-7000000D01*
X4397763Y-6211478D01*
X4402775Y-6213921D01*
G37*
G36*
X4402815Y-3786060D02*
G01*
X4402775Y-3786079D01*
X3000000Y-3000000D01*
X4402815Y-3786060D01*
G37*
G36*
X4402815Y-6213940D02*
G01*
X3000000Y-7000000D01*
X4402775Y-6213921D01*
X4402815Y-6213940D01*
G37*
G36*
X4407879Y-3783729D02*
G01*
X4402815Y-3786060D01*
X3000000Y-3000000D01*
X4407879Y-3783729D01*
G37*
G36*
X4407879Y-6216271D02*
G01*
X3000000Y-7000000D01*
X4402815Y-6213940D01*
X4407879Y-6216271D01*
G37*
G36*
X4488644Y-3747627D02*
G01*
X4407879Y-3783729D01*
X3000000Y-3000000D01*
X4488644Y-3747627D01*
G37*
G36*
X4488644Y-6252373D02*
G01*
X3000000Y-7000000D01*
X4407879Y-6216271D01*
X4488644Y-6252373D01*
G37*
G36*
X4493759Y-3745409D02*
G01*
X4488644Y-3747627D01*
X3000000Y-3000000D01*
X4493759Y-3745409D01*
G37*
G36*
X4493759Y-6254591D02*
G01*
X3000000Y-7000000D01*
X4488644Y-6252373D01*
X4493759Y-6254591D01*
G37*
G36*
X4493800Y-3745392D02*
G01*
X4493759Y-3745409D01*
X3000000Y-3000000D01*
X4493800Y-3745392D01*
G37*
G36*
X4493800Y-6254608D02*
G01*
X3000000Y-7000000D01*
X4493759Y-6254591D01*
X4493800Y-6254608D01*
G37*
G36*
X4498962Y-3743287D02*
G01*
X4493800Y-3745392D01*
X3000000Y-3000000D01*
X4498962Y-3743287D01*
G37*
G36*
X4498962Y-6256713D02*
G01*
X3000000Y-7000000D01*
X4493800Y-6254608D01*
X4498962Y-6256713D01*
G37*
G36*
X4507191Y-3740037D02*
G01*
X4498962Y-3743287D01*
X3000000Y-3000000D01*
X4507191Y-3740037D01*
G37*
G36*
X4507191Y-6259963D02*
G01*
X3000000Y-7000000D01*
X4498962Y-6256713D01*
X4507191Y-6259963D01*
G37*
G36*
X4512398Y-3738047D02*
G01*
X4507191Y-3740037D01*
X3000000Y-3000000D01*
X4512398Y-3738047D01*
G37*
G36*
X4512398Y-6261953D02*
G01*
X3000000Y-7000000D01*
X4507191Y-6259963D01*
X4512398Y-6261953D01*
G37*
G36*
X4512440Y-3738032D02*
G01*
X4512398Y-3738047D01*
X3000000Y-3000000D01*
X4512440Y-3738032D01*
G37*
G36*
X4512440Y-6261968D02*
G01*
X3000000Y-7000000D01*
X4512398Y-6261953D01*
X4512440Y-6261968D01*
G37*
G36*
X4517690Y-3736157D02*
G01*
X4512440Y-3738032D01*
X3000000Y-3000000D01*
X4517690Y-3736157D01*
G37*
G36*
X4517690Y-6263843D02*
G01*
X3000000Y-7000000D01*
X4512440Y-6261968D01*
X4517690Y-6263843D01*
G37*
G36*
X4601330Y-3707334D02*
G01*
X4517690Y-3736157D01*
X3000000Y-3000000D01*
X4601330Y-3707334D01*
G37*
G36*
X4601330Y-6292666D02*
G01*
X3000000Y-7000000D01*
X4517690Y-6263843D01*
X4601330Y-6292666D01*
G37*
G36*
X4606621Y-3705577D02*
G01*
X4601330Y-3707334D01*
X3000000Y-3000000D01*
X4606621Y-3705577D01*
G37*
G36*
X4606621Y-6294423D02*
G01*
X3000000Y-7000000D01*
X4601330Y-6292666D01*
X4606621Y-6294423D01*
G37*
G36*
X4606663Y-3705563D02*
G01*
X4606621Y-3705577D01*
X3000000Y-3000000D01*
X4606663Y-3705563D01*
G37*
G36*
X4606663Y-6294437D02*
G01*
X3000000Y-7000000D01*
X4606621Y-6294423D01*
X4606663Y-6294437D01*
G37*
G36*
X4611991Y-3703923D02*
G01*
X4606663Y-3705563D01*
X3000000Y-3000000D01*
X4611991Y-3703923D01*
G37*
G36*
X4611991Y-6296077D02*
G01*
X3000000Y-7000000D01*
X4606663Y-6294437D01*
X4611991Y-6296077D01*
G37*
G36*
X4620475Y-3701413D02*
G01*
X4611991Y-3703923D01*
X3000000Y-3000000D01*
X4620475Y-3701413D01*
G37*
G36*
X4620475Y-6298587D02*
G01*
X3000000Y-7000000D01*
X4611991Y-6296077D01*
X4620475Y-6298587D01*
G37*
G36*
X4625838Y-3699891D02*
G01*
X4620475Y-3701413D01*
X3000000Y-3000000D01*
X4625838Y-3699891D01*
G37*
G36*
X4625838Y-6300109D02*
G01*
X3000000Y-7000000D01*
X4620475Y-6298587D01*
X4625838Y-6300109D01*
G37*
G36*
X4625881Y-3699879D02*
G01*
X4625838Y-3699891D01*
X3000000Y-3000000D01*
X4625881Y-3699879D01*
G37*
G36*
X4625881Y-6300121D02*
G01*
X3000000Y-7000000D01*
X4625838Y-6300109D01*
X4625881Y-6300121D01*
G37*
G36*
X4631276Y-3698476D02*
G01*
X4625881Y-3699879D01*
X3000000Y-3000000D01*
X4631276Y-3698476D01*
G37*
G36*
X4631276Y-6301524D02*
G01*
X3000000Y-7000000D01*
X4625881Y-6300121D01*
X4631276Y-6301524D01*
G37*
G36*
X4717136Y-3677158D02*
G01*
X4631276Y-3698476D01*
X3000000Y-3000000D01*
X4717136Y-3677158D01*
G37*
G36*
X4717136Y-6322842D02*
G01*
X3000000Y-7000000D01*
X4631276Y-6301524D01*
X4717136Y-6322842D01*
G37*
G36*
X4722562Y-3675875D02*
G01*
X4717136Y-3677158D01*
X3000000Y-3000000D01*
X4722562Y-3675875D01*
G37*
G36*
X4722562Y-6324125D02*
G01*
X3000000Y-7000000D01*
X4717136Y-6322842D01*
X4722562Y-6324125D01*
G37*
G36*
X4722605Y-3675865D02*
G01*
X4722562Y-3675875D01*
X3000000Y-3000000D01*
X4722605Y-3675865D01*
G37*
G36*
X4722605Y-6324135D02*
G01*
X3000000Y-7000000D01*
X4722562Y-6324125D01*
X4722605Y-6324135D01*
G37*
G36*
X4728057Y-3674702D02*
G01*
X4722605Y-3675865D01*
X3000000Y-3000000D01*
X4728057Y-3674702D01*
G37*
G36*
X4728057Y-6325298D02*
G01*
X3000000Y-7000000D01*
X4722605Y-6324135D01*
X4728057Y-6325298D01*
G37*
G36*
X4736729Y-3672952D02*
G01*
X4728057Y-3674702D01*
X3000000Y-3000000D01*
X4736729Y-3672952D01*
G37*
G36*
X4736729Y-6327048D02*
G01*
X3000000Y-7000000D01*
X4728057Y-6325298D01*
X4736729Y-6327048D01*
G37*
G36*
X4742206Y-3671910D02*
G01*
X4736729Y-3672952D01*
X3000000Y-3000000D01*
X4742206Y-3671910D01*
G37*
G36*
X4742206Y-6328090D02*
G01*
X3000000Y-7000000D01*
X4736729Y-6327048D01*
X4742206Y-6328090D01*
G37*
G36*
X4742249Y-3671902D02*
G01*
X4742206Y-3671910D01*
X3000000Y-3000000D01*
X4742249Y-3671902D01*
G37*
G36*
X4742249Y-6328098D02*
G01*
X3000000Y-7000000D01*
X4742206Y-6328090D01*
X4742249Y-6328098D01*
G37*
G36*
X4747748Y-3670981D02*
G01*
X4742249Y-3671902D01*
X3000000Y-3000000D01*
X4747748Y-3670981D01*
G37*
G36*
X4747748Y-6329019D02*
G01*
X3000000Y-7000000D01*
X4742249Y-6328098D01*
X4747748Y-6329019D01*
G37*
G36*
X4835156Y-3657335D02*
G01*
X4747748Y-3670981D01*
X3000000Y-3000000D01*
X4835156Y-3657335D01*
G37*
G36*
X4835156Y-6342665D02*
G01*
X3000000Y-7000000D01*
X4747748Y-6329019D01*
X4835156Y-6342665D01*
G37*
G36*
X4840674Y-3656536D02*
G01*
X4835156Y-3657335D01*
X3000000Y-3000000D01*
X4840674Y-3656536D01*
G37*
G36*
X4840674Y-6343464D02*
G01*
X3000000Y-7000000D01*
X4835156Y-6342665D01*
X4840674Y-6343464D01*
G37*
G36*
X4840717Y-3656531D02*
G01*
X4840674Y-3656536D01*
X3000000Y-3000000D01*
X4840717Y-3656531D01*
G37*
G36*
X4840717Y-6343469D02*
G01*
X3000000Y-7000000D01*
X4840674Y-6343464D01*
X4840717Y-6343469D01*
G37*
G36*
X4846251Y-3655854D02*
G01*
X4840717Y-3656531D01*
X3000000Y-3000000D01*
X4846251Y-3655854D01*
G37*
G36*
X4846251Y-6344146D02*
G01*
X3000000Y-7000000D01*
X4840717Y-6343469D01*
X4846251Y-6344146D01*
G37*
G36*
X4855044Y-3654877D02*
G01*
X4846251Y-3655854D01*
X3000000Y-3000000D01*
X4855044Y-3654877D01*
G37*
G36*
X4855044Y-6345123D02*
G01*
X3000000Y-7000000D01*
X4846251Y-6344146D01*
X4855044Y-6345123D01*
G37*
G36*
X4860591Y-3654323D02*
G01*
X4855044Y-3654877D01*
X3000000Y-3000000D01*
X4860591Y-3654323D01*
G37*
G36*
X4860591Y-6345677D02*
G01*
X3000000Y-7000000D01*
X4855044Y-6345123D01*
X4860591Y-6345677D01*
G37*
G36*
X4860635Y-3654319D02*
G01*
X4860591Y-3654323D01*
X3000000Y-3000000D01*
X4860635Y-3654319D01*
G37*
G36*
X4860635Y-6345681D02*
G01*
X3000000Y-7000000D01*
X4860591Y-6345677D01*
X4860635Y-6345681D01*
G37*
G36*
X4866194Y-3653888D02*
G01*
X4860635Y-3654319D01*
X3000000Y-3000000D01*
X4866194Y-3653888D01*
G37*
G36*
X4866194Y-6346112D02*
G01*
X3000000Y-7000000D01*
X4860635Y-6345681D01*
X4866194Y-6346112D01*
G37*
G36*
X4954466Y-3648021D02*
G01*
X4866194Y-3653888D01*
X3000000Y-3000000D01*
X4954466Y-3648021D01*
G37*
G36*
X4954466Y-6351979D02*
G01*
X3000000Y-7000000D01*
X4866194Y-6346112D01*
X4954466Y-6351979D01*
G37*
G36*
X4960032Y-3647712D02*
G01*
X4954466Y-3648021D01*
X3000000Y-3000000D01*
X4960032Y-3647712D01*
G37*
G36*
X4960032Y-6352288D02*
G01*
X3000000Y-7000000D01*
X4954466Y-6351979D01*
X4960032Y-6352288D01*
G37*
G36*
X4960077Y-3647710D02*
G01*
X4960032Y-3647712D01*
X3000000Y-3000000D01*
X4960077Y-3647710D01*
G37*
G36*
X4960077Y-6352290D02*
G01*
X3000000Y-7000000D01*
X4960032Y-6352288D01*
X4960077Y-6352290D01*
G37*
G36*
X4965649Y-3647525D02*
G01*
X4960077Y-3647710D01*
X3000000Y-3000000D01*
X4965649Y-3647525D01*
G37*
G36*
X4965649Y-6352475D02*
G01*
X3000000Y-7000000D01*
X4960077Y-6352290D01*
X4965649Y-6352475D01*
G37*
G36*
X4974493Y-3647330D02*
G01*
X4965649Y-3647525D01*
X3000000Y-3000000D01*
X4974493Y-3647330D01*
G37*
G36*
X4974493Y-6352670D02*
G01*
X3000000Y-7000000D01*
X4965649Y-6352475D01*
X4974493Y-6352670D01*
G37*
G36*
X4980068Y-3647268D02*
G01*
X4974493Y-3647330D01*
X3000000Y-3000000D01*
X4980068Y-3647268D01*
G37*
G36*
X4980068Y-6352732D02*
G01*
X3000000Y-7000000D01*
X4974493Y-6352670D01*
X4980068Y-6352732D01*
G37*
G36*
X4980112Y-3647268D02*
G01*
X4980068Y-3647268D01*
X3000000Y-3000000D01*
X4980112Y-3647268D01*
G37*
G36*
X3000000Y-7000000D02*
G01*
X4980068Y-6352732D01*
X4980112Y-6352732D01*
X3000000Y-7000000D01*
G37*
G36*
X4980112Y-3647268D02*
G01*
X3000000Y-3000000D01*
X7000000Y-3000000D01*
X4980112Y-3647268D01*
G37*
G36*
X7000000Y-7000000D02*
G01*
X3000000Y-7000000D01*
X4980112Y-6352732D01*
X7000000Y-7000000D01*
G37*
G36*
X4985687Y-3647330D02*
G01*
X4980112Y-3647268D01*
X7000000Y-3000000D01*
X4985687Y-3647330D01*
G37*
G36*
X7000000Y-7000000D02*
G01*
X4980112Y-6352732D01*
X4985687Y-6352670D01*
X7000000Y-7000000D01*
G37*
G36*
X5074132Y-3649287D02*
G01*
X4985687Y-3647330D01*
X7000000Y-3000000D01*
X5074132Y-3649287D01*
G37*
G36*
X7000000Y-7000000D02*
G01*
X4985687Y-6352670D01*
X5074132Y-6350713D01*
X7000000Y-7000000D01*
G37*
G36*
X5079704Y-3649472D02*
G01*
X5074132Y-3649287D01*
X7000000Y-3000000D01*
X5079704Y-3649472D01*
G37*
G36*
X7000000Y-7000000D02*
G01*
X5074132Y-6350713D01*
X5079704Y-6350528D01*
X7000000Y-7000000D01*
G37*
G36*
X5079748Y-3649474D02*
G01*
X5079704Y-3649472D01*
X7000000Y-3000000D01*
X5079748Y-3649474D01*
G37*
G36*
X7000000Y-7000000D02*
G01*
X5079704Y-6350528D01*
X5079748Y-6350526D01*
X7000000Y-7000000D01*
G37*
G36*
X5085315Y-3649782D02*
G01*
X5079748Y-3649474D01*
X7000000Y-3000000D01*
X5085315Y-3649782D01*
G37*
G36*
X7000000Y-7000000D02*
G01*
X5079748Y-6350526D01*
X5085315Y-6350218D01*
X7000000Y-7000000D01*
G37*
G36*
X5094142Y-3650369D02*
G01*
X5085315Y-3649782D01*
X7000000Y-3000000D01*
X5094142Y-3650369D01*
G37*
G36*
X7000000Y-7000000D02*
G01*
X5085315Y-6350218D01*
X5094142Y-6349631D01*
X7000000Y-7000000D01*
G37*
G36*
X5099701Y-3650800D02*
G01*
X5094142Y-3650369D01*
X7000000Y-3000000D01*
X5099701Y-3650800D01*
G37*
G36*
X7000000Y-7000000D02*
G01*
X5094142Y-6349631D01*
X5099701Y-6349200D01*
X7000000Y-7000000D01*
G37*
G36*
X5099745Y-3650804D02*
G01*
X5099701Y-3650800D01*
X7000000Y-3000000D01*
X5099745Y-3650804D01*
G37*
G36*
X7000000Y-7000000D02*
G01*
X5099701Y-6349200D01*
X5099745Y-6349196D01*
X7000000Y-7000000D01*
G37*
G36*
X5105292Y-3651358D02*
G01*
X5099745Y-3650804D01*
X7000000Y-3000000D01*
X5105292Y-3651358D01*
G37*
G36*
X7000000Y-7000000D02*
G01*
X5099745Y-6349196D01*
X5105292Y-6348642D01*
X7000000Y-7000000D01*
G37*
G36*
X5193218Y-3661124D02*
G01*
X5105292Y-3651358D01*
X7000000Y-3000000D01*
X5193218Y-3661124D01*
G37*
G36*
X7000000Y-7000000D02*
G01*
X5105292Y-6348642D01*
X5193218Y-6338876D01*
X7000000Y-7000000D01*
G37*
G36*
X5198752Y-3661801D02*
G01*
X5193218Y-3661124D01*
X7000000Y-3000000D01*
X5198752Y-3661801D01*
G37*
G36*
X7000000Y-7000000D02*
G01*
X5193218Y-6338876D01*
X5198752Y-6338199D01*
X7000000Y-7000000D01*
G37*
G36*
X5198796Y-3661807D02*
G01*
X5198752Y-3661801D01*
X7000000Y-3000000D01*
X5198796Y-3661807D01*
G37*
G36*
X7000000Y-7000000D02*
G01*
X5198752Y-6338199D01*
X5198796Y-6338193D01*
X7000000Y-7000000D01*
G37*
G36*
X5204314Y-3662606D02*
G01*
X5198796Y-3661807D01*
X7000000Y-3000000D01*
X5204314Y-3662606D01*
G37*
G36*
X7000000Y-7000000D02*
G01*
X5198796Y-6338193D01*
X5204314Y-6337394D01*
X7000000Y-7000000D01*
G37*
G36*
X5213054Y-3663970D02*
G01*
X5204314Y-3662606D01*
X7000000Y-3000000D01*
X5213054Y-3663970D01*
G37*
G36*
X7000000Y-7000000D02*
G01*
X5204314Y-6337394D01*
X5213054Y-6336030D01*
X7000000Y-7000000D01*
G37*
G36*
X5218553Y-3664891D02*
G01*
X5213054Y-3663970D01*
X7000000Y-3000000D01*
X5218553Y-3664891D01*
G37*
G36*
X7000000Y-7000000D02*
G01*
X5213054Y-6336030D01*
X5218553Y-6335109D01*
X7000000Y-7000000D01*
G37*
G36*
X5218596Y-3664899D02*
G01*
X5218553Y-3664891D01*
X7000000Y-3000000D01*
X5218596Y-3664899D01*
G37*
G36*
X7000000Y-7000000D02*
G01*
X5218553Y-6335109D01*
X5218596Y-6335101D01*
X7000000Y-7000000D01*
G37*
G36*
X5224073Y-3665941D02*
G01*
X5218596Y-3664899D01*
X7000000Y-3000000D01*
X5224073Y-3665941D01*
G37*
G36*
X7000000Y-7000000D02*
G01*
X5218596Y-6335101D01*
X5224073Y-6334059D01*
X7000000Y-7000000D01*
G37*
G36*
X5310792Y-3683440D02*
G01*
X5224073Y-3665941D01*
X7000000Y-3000000D01*
X5310792Y-3683440D01*
G37*
G36*
X7000000Y-7000000D02*
G01*
X5224073Y-6334059D01*
X5310792Y-6316560D01*
X7000000Y-7000000D01*
G37*
G36*
X5316245Y-3684603D02*
G01*
X5310792Y-3683440D01*
X7000000Y-3000000D01*
X5316245Y-3684603D01*
G37*
G36*
X7000000Y-7000000D02*
G01*
X5310792Y-6316560D01*
X5316245Y-6315397D01*
X7000000Y-7000000D01*
G37*
G36*
X5316288Y-3684613D02*
G01*
X5316245Y-3684603D01*
X7000000Y-3000000D01*
X5316288Y-3684613D01*
G37*
G36*
X7000000Y-7000000D02*
G01*
X5316245Y-6315397D01*
X5316288Y-6315387D01*
X7000000Y-7000000D01*
G37*
G36*
X5321713Y-3685896D02*
G01*
X5316288Y-3684613D01*
X7000000Y-3000000D01*
X5321713Y-3685896D01*
G37*
G36*
X7000000Y-7000000D02*
G01*
X5316288Y-6315387D01*
X5321713Y-6314104D01*
X7000000Y-7000000D01*
G37*
G36*
X5330299Y-3688028D02*
G01*
X5321713Y-3685896D01*
X7000000Y-3000000D01*
X5330299Y-3688028D01*
G37*
G36*
X7000000Y-7000000D02*
G01*
X5321713Y-6314104D01*
X5330299Y-6311972D01*
X7000000Y-7000000D01*
G37*
G36*
X5335695Y-3689431D02*
G01*
X5330299Y-3688028D01*
X7000000Y-3000000D01*
X5335695Y-3689431D01*
G37*
G36*
X7000000Y-7000000D02*
G01*
X5330299Y-6311972D01*
X5335695Y-6310569D01*
X7000000Y-7000000D01*
G37*
G36*
X5335737Y-3689443D02*
G01*
X5335695Y-3689431D01*
X7000000Y-3000000D01*
X5335737Y-3689443D01*
G37*
G36*
X7000000Y-7000000D02*
G01*
X5335695Y-6310569D01*
X5335737Y-6310557D01*
X7000000Y-7000000D01*
G37*
G36*
X5341101Y-3690965D02*
G01*
X5335737Y-3689443D01*
X7000000Y-3000000D01*
X5341101Y-3690965D01*
G37*
G36*
X7000000Y-7000000D02*
G01*
X5335737Y-6310557D01*
X5341101Y-6309035D01*
X7000000Y-7000000D01*
G37*
G36*
X5425934Y-3716060D02*
G01*
X5341101Y-3690965D01*
X7000000Y-3000000D01*
X5425934Y-3716060D01*
G37*
G36*
X7000000Y-7000000D02*
G01*
X5341101Y-6309035D01*
X5425934Y-6283940D01*
X7000000Y-7000000D01*
G37*
G36*
X5431262Y-3717700D02*
G01*
X5425934Y-3716060D01*
X7000000Y-3000000D01*
X5431262Y-3717700D01*
G37*
G36*
X7000000Y-7000000D02*
G01*
X5425934Y-6283940D01*
X5431262Y-6282300D01*
X7000000Y-7000000D01*
G37*
G36*
X5431304Y-3717714D02*
G01*
X5431262Y-3717700D01*
X7000000Y-3000000D01*
X5431304Y-3717714D01*
G37*
G36*
X7000000Y-7000000D02*
G01*
X5431262Y-6282300D01*
X5431304Y-6282286D01*
X7000000Y-7000000D01*
G37*
G36*
X5436595Y-3719472D02*
G01*
X5431304Y-3717714D01*
X7000000Y-3000000D01*
X5436595Y-3719472D01*
G37*
G36*
X7000000Y-7000000D02*
G01*
X5431304Y-6282286D01*
X5436595Y-6280528D01*
X7000000Y-7000000D01*
G37*
G36*
X5444959Y-3722354D02*
G01*
X5436595Y-3719472D01*
X7000000Y-3000000D01*
X5444959Y-3722354D01*
G37*
G36*
X7000000Y-7000000D02*
G01*
X5436595Y-6280528D01*
X5444959Y-6277646D01*
X7000000Y-7000000D01*
G37*
G36*
X5450209Y-3724229D02*
G01*
X5444959Y-3722354D01*
X7000000Y-3000000D01*
X5450209Y-3724229D01*
G37*
G36*
X7000000Y-7000000D02*
G01*
X5444959Y-6277646D01*
X5450209Y-6275771D01*
X7000000Y-7000000D01*
G37*
G36*
X5450251Y-3724244D02*
G01*
X5450209Y-3724229D01*
X7000000Y-3000000D01*
X5450251Y-3724244D01*
G37*
G36*
X7000000Y-7000000D02*
G01*
X5450209Y-6275771D01*
X5450251Y-6275756D01*
X7000000Y-7000000D01*
G37*
G36*
X5455459Y-3726234D02*
G01*
X5450251Y-3724244D01*
X7000000Y-3000000D01*
X5455459Y-3726234D01*
G37*
G36*
X7000000Y-7000000D02*
G01*
X5450251Y-6275756D01*
X5455459Y-6273766D01*
X7000000Y-7000000D01*
G37*
G36*
X5537742Y-3758728D02*
G01*
X5455459Y-3726234D01*
X7000000Y-3000000D01*
X5537742Y-3758728D01*
G37*
G36*
X7000000Y-7000000D02*
G01*
X5455459Y-6273766D01*
X5537742Y-6241272D01*
X7000000Y-7000000D01*
G37*
G36*
X5542904Y-3760833D02*
G01*
X5537742Y-3758728D01*
X7000000Y-3000000D01*
X5542904Y-3760833D01*
G37*
G36*
X7000000Y-7000000D02*
G01*
X5537742Y-6241272D01*
X5542904Y-6239167D01*
X7000000Y-7000000D01*
G37*
G36*
X5542945Y-3760850D02*
G01*
X5542904Y-3760833D01*
X7000000Y-3000000D01*
X5542945Y-3760850D01*
G37*
G36*
X7000000Y-7000000D02*
G01*
X5542904Y-6239167D01*
X5542945Y-6239150D01*
X7000000Y-7000000D01*
G37*
G36*
X5548060Y-3763069D02*
G01*
X5542945Y-3760850D01*
X7000000Y-3000000D01*
X5548060Y-3763069D01*
G37*
G36*
X7000000Y-7000000D02*
G01*
X5542945Y-6239150D01*
X5548060Y-6236931D01*
X7000000Y-7000000D01*
G37*
G36*
X5556136Y-3766679D02*
G01*
X5548060Y-3763069D01*
X7000000Y-3000000D01*
X5556136Y-3766679D01*
G37*
G36*
X7000000Y-7000000D02*
G01*
X5548060Y-6236931D01*
X5556136Y-6233321D01*
X7000000Y-7000000D01*
G37*
G36*
X5561200Y-3769010D02*
G01*
X5556136Y-3766679D01*
X7000000Y-3000000D01*
X5561200Y-3769010D01*
G37*
G36*
X7000000Y-7000000D02*
G01*
X5556136Y-6233321D01*
X5561200Y-6230990D01*
X7000000Y-7000000D01*
G37*
G36*
X5561240Y-3769029D02*
G01*
X5561200Y-3769010D01*
X7000000Y-3000000D01*
X5561240Y-3769029D01*
G37*
G36*
X7000000Y-7000000D02*
G01*
X5561200Y-6230990D01*
X5561240Y-6230971D01*
X7000000Y-7000000D01*
G37*
G36*
X5566252Y-3771472D02*
G01*
X5561240Y-3769029D01*
X7000000Y-3000000D01*
X5566252Y-3771472D01*
G37*
G36*
X7000000Y-7000000D02*
G01*
X5561240Y-6230971D01*
X5566252Y-6228528D01*
X7000000Y-7000000D01*
G37*
G36*
X5645341Y-3811111D02*
G01*
X5566252Y-3771472D01*
X7000000Y-3000000D01*
X5645341Y-3811111D01*
G37*
G36*
X7000000Y-7000000D02*
G01*
X5566252Y-6228528D01*
X5645341Y-6188889D01*
X7000000Y-7000000D01*
G37*
G36*
X5650297Y-3813664D02*
G01*
X5645341Y-3811111D01*
X7000000Y-3000000D01*
X5650297Y-3813664D01*
G37*
G36*
X7000000Y-7000000D02*
G01*
X5645341Y-6188889D01*
X5650297Y-6186336D01*
X7000000Y-7000000D01*
G37*
G36*
X5650336Y-3813685D02*
G01*
X5650297Y-3813664D01*
X7000000Y-3000000D01*
X5650336Y-3813685D01*
G37*
G36*
X7000000Y-7000000D02*
G01*
X5650297Y-6186336D01*
X5650336Y-6186315D01*
X7000000Y-7000000D01*
G37*
G36*
X5655235Y-3816347D02*
G01*
X5650336Y-3813685D01*
X7000000Y-3000000D01*
X5655235Y-3816347D01*
G37*
G36*
X7000000Y-7000000D02*
G01*
X5650336Y-6186315D01*
X5655235Y-6183653D01*
X7000000Y-7000000D01*
G37*
G36*
X5662961Y-3820657D02*
G01*
X5655235Y-3816347D01*
X7000000Y-3000000D01*
X5662961Y-3820657D01*
G37*
G36*
X7000000Y-7000000D02*
G01*
X5655235Y-6183653D01*
X5662961Y-6179343D01*
X7000000Y-7000000D01*
G37*
G36*
X5667799Y-3823426D02*
G01*
X5662961Y-3820657D01*
X7000000Y-3000000D01*
X5667799Y-3823426D01*
G37*
G36*
X7000000Y-7000000D02*
G01*
X5662961Y-6179343D01*
X5667799Y-6176574D01*
X7000000Y-7000000D01*
G37*
G36*
X5667837Y-3823449D02*
G01*
X5667799Y-3823426D01*
X7000000Y-3000000D01*
X5667837Y-3823449D01*
G37*
G36*
X7000000Y-7000000D02*
G01*
X5667799Y-6176574D01*
X5667837Y-6176551D01*
X7000000Y-7000000D01*
G37*
G36*
X5672613Y-3826325D02*
G01*
X5667837Y-3823449D01*
X7000000Y-3000000D01*
X5672613Y-3826325D01*
G37*
G36*
X7000000Y-7000000D02*
G01*
X5667837Y-6176551D01*
X5672613Y-6173675D01*
X7000000Y-7000000D01*
G37*
G36*
X5747890Y-3872799D02*
G01*
X5672613Y-3826325D01*
X7000000Y-3000000D01*
X5747890Y-3872799D01*
G37*
G36*
X7000000Y-7000000D02*
G01*
X5672613Y-6173675D01*
X5747890Y-6127201D01*
X7000000Y-7000000D01*
G37*
G36*
X5752601Y-3875780D02*
G01*
X5747890Y-3872799D01*
X7000000Y-3000000D01*
X5752601Y-3875780D01*
G37*
G36*
X7000000Y-7000000D02*
G01*
X5747890Y-6127201D01*
X5752601Y-6124220D01*
X7000000Y-7000000D01*
G37*
G36*
X5752638Y-3875804D02*
G01*
X5752601Y-3875780D01*
X7000000Y-3000000D01*
X5752638Y-3875804D01*
G37*
G36*
X7000000Y-7000000D02*
G01*
X5752601Y-6124220D01*
X5752638Y-6124196D01*
X7000000Y-7000000D01*
G37*
G36*
X5757282Y-3878888D02*
G01*
X5752638Y-3875804D01*
X7000000Y-3000000D01*
X5757282Y-3878888D01*
G37*
G36*
X7000000Y-7000000D02*
G01*
X5752638Y-6124196D01*
X5757282Y-6121112D01*
X7000000Y-7000000D01*
G37*
G36*
X5764597Y-3883864D02*
G01*
X5757282Y-3878888D01*
X7000000Y-3000000D01*
X5764597Y-3883864D01*
G37*
G36*
X7000000Y-7000000D02*
G01*
X5757282Y-6121112D01*
X5764597Y-6116136D01*
X7000000Y-7000000D01*
G37*
G36*
X5769172Y-3887051D02*
G01*
X5764597Y-3883864D01*
X7000000Y-3000000D01*
X5769172Y-3887051D01*
G37*
G36*
X7000000Y-7000000D02*
G01*
X5764597Y-6116136D01*
X5769172Y-6112949D01*
X7000000Y-7000000D01*
G37*
G36*
X5769208Y-3887076D02*
G01*
X5769172Y-3887051D01*
X7000000Y-3000000D01*
X5769208Y-3887076D01*
G37*
G36*
X7000000Y-7000000D02*
G01*
X5769172Y-6112949D01*
X5769208Y-6112924D01*
X7000000Y-7000000D01*
G37*
G36*
X5773711Y-3890363D02*
G01*
X5769208Y-3887076D01*
X7000000Y-3000000D01*
X5773711Y-3890363D01*
G37*
G36*
X7000000Y-7000000D02*
G01*
X5769208Y-6112924D01*
X5773711Y-6109637D01*
X7000000Y-7000000D01*
G37*
G36*
X5844585Y-3943308D02*
G01*
X5773711Y-3890363D01*
X7000000Y-3000000D01*
X5844585Y-3943308D01*
G37*
G36*
X7000000Y-7000000D02*
G01*
X5773711Y-6109637D01*
X5844585Y-6056692D01*
X7000000Y-7000000D01*
G37*
G36*
X5849015Y-3946694D02*
G01*
X5844585Y-3943308D01*
X7000000Y-3000000D01*
X5849015Y-3946694D01*
G37*
G36*
X7000000Y-7000000D02*
G01*
X5844585Y-6056692D01*
X5849015Y-6053306D01*
X7000000Y-7000000D01*
G37*
G36*
X5849050Y-3946721D02*
G01*
X5849015Y-3946694D01*
X7000000Y-3000000D01*
X5849050Y-3946721D01*
G37*
G36*
X7000000Y-7000000D02*
G01*
X5849015Y-6053306D01*
X5849050Y-6053279D01*
X7000000Y-7000000D01*
G37*
G36*
X5853403Y-3950204D02*
G01*
X5849050Y-3946721D01*
X7000000Y-3000000D01*
X5853403Y-3950204D01*
G37*
G36*
X7000000Y-7000000D02*
G01*
X5849050Y-6053279D01*
X5853403Y-6049796D01*
X7000000Y-7000000D01*
G37*
G36*
X5860249Y-3955807D02*
G01*
X5853403Y-3950204D01*
X7000000Y-3000000D01*
X5860249Y-3955807D01*
G37*
G36*
X7000000Y-7000000D02*
G01*
X5853403Y-6049796D01*
X5860249Y-6044193D01*
X7000000Y-7000000D01*
G37*
G36*
X5864524Y-3959385D02*
G01*
X5860249Y-3955807D01*
X7000000Y-3000000D01*
X5864524Y-3959385D01*
G37*
G36*
X7000000Y-7000000D02*
G01*
X5860249Y-6044193D01*
X5864524Y-6040615D01*
X7000000Y-7000000D01*
G37*
G36*
X5864558Y-3959414D02*
G01*
X5864524Y-3959385D01*
X7000000Y-3000000D01*
X5864558Y-3959414D01*
G37*
G36*
X7000000Y-7000000D02*
G01*
X5864524Y-6040615D01*
X5864558Y-6040586D01*
X7000000Y-7000000D01*
G37*
G36*
X5868753Y-3963086D02*
G01*
X5864558Y-3959414D01*
X7000000Y-3000000D01*
X5868753Y-3963086D01*
G37*
G36*
X7000000Y-7000000D02*
G01*
X5864558Y-6040586D01*
X5868753Y-6036914D01*
X7000000Y-7000000D01*
G37*
G36*
X5934671Y-4022088D02*
G01*
X5868753Y-3963086D01*
X7000000Y-3000000D01*
X5934671Y-4022088D01*
G37*
G36*
X7000000Y-7000000D02*
G01*
X5868753Y-6036914D01*
X5934671Y-5977912D01*
X7000000Y-7000000D01*
G37*
G36*
X5938784Y-4025852D02*
G01*
X5934671Y-4022088D01*
X7000000Y-3000000D01*
X5938784Y-4025852D01*
G37*
G36*
X7000000Y-7000000D02*
G01*
X5934671Y-5977912D01*
X5938784Y-5974148D01*
X7000000Y-7000000D01*
G37*
G36*
X5938816Y-4025882D02*
G01*
X5938784Y-4025852D01*
X7000000Y-3000000D01*
X5938816Y-4025882D01*
G37*
G36*
X7000000Y-7000000D02*
G01*
X5938784Y-5974148D01*
X5938816Y-5974118D01*
X7000000Y-7000000D01*
G37*
G36*
X5942844Y-4029736D02*
G01*
X5938816Y-4025882D01*
X7000000Y-3000000D01*
X5942844Y-4029736D01*
G37*
G36*
X7000000Y-7000000D02*
G01*
X5938816Y-5974118D01*
X5942844Y-5970264D01*
X7000000Y-7000000D01*
G37*
G36*
X5949169Y-4035922D02*
G01*
X5942844Y-4029736D01*
X7000000Y-3000000D01*
X5949169Y-4035922D01*
G37*
G36*
X7000000Y-7000000D02*
G01*
X5942844Y-5970264D01*
X5949169Y-5964078D01*
X7000000Y-7000000D01*
G37*
G36*
X5953111Y-4039864D02*
G01*
X5949169Y-4035922D01*
X7000000Y-3000000D01*
X5953111Y-4039864D01*
G37*
G36*
X7000000Y-7000000D02*
G01*
X5949169Y-5964078D01*
X5953111Y-5960136D01*
X7000000Y-7000000D01*
G37*
G36*
X5953142Y-4039896D02*
G01*
X5953111Y-4039864D01*
X7000000Y-3000000D01*
X5953142Y-4039896D01*
G37*
G36*
X7000000Y-7000000D02*
G01*
X5953111Y-5960136D01*
X5953142Y-5960104D01*
X7000000Y-7000000D01*
G37*
G36*
X5956996Y-4043924D02*
G01*
X5953142Y-4039896D01*
X7000000Y-3000000D01*
X5956996Y-4043924D01*
G37*
G36*
X7000000Y-7000000D02*
G01*
X5953142Y-5960104D01*
X5956996Y-5956076D01*
X7000000Y-7000000D01*
G37*
G36*
X6017441Y-4108521D02*
G01*
X5956996Y-4043924D01*
X7000000Y-3000000D01*
X6017441Y-4108521D01*
G37*
G36*
X7000000Y-7000000D02*
G01*
X5956996Y-5956076D01*
X6017441Y-5891479D01*
X7000000Y-7000000D01*
G37*
G36*
X6021205Y-4112634D02*
G01*
X6017441Y-4108521D01*
X7000000Y-3000000D01*
X6021205Y-4112634D01*
G37*
G36*
X7000000Y-7000000D02*
G01*
X6017441Y-5891479D01*
X6021205Y-5887366D01*
X7000000Y-7000000D01*
G37*
G36*
X6021235Y-4112667D02*
G01*
X6021205Y-4112634D01*
X7000000Y-3000000D01*
X6021235Y-4112667D01*
G37*
G36*
X7000000Y-7000000D02*
G01*
X6021205Y-5887366D01*
X6021235Y-5887333D01*
X7000000Y-7000000D01*
G37*
G36*
X6024907Y-4116862D02*
G01*
X6021235Y-4112667D01*
X7000000Y-3000000D01*
X6024907Y-4116862D01*
G37*
G36*
X7000000Y-7000000D02*
G01*
X6021235Y-5887333D01*
X6024907Y-5883138D01*
X7000000Y-7000000D01*
G37*
G36*
X6030660Y-4123582D02*
G01*
X6024907Y-4116862D01*
X7000000Y-3000000D01*
X6030660Y-4123582D01*
G37*
G36*
X7000000Y-7000000D02*
G01*
X6024907Y-5883138D01*
X6030660Y-5876418D01*
X7000000Y-7000000D01*
G37*
G36*
X6034238Y-4127858D02*
G01*
X6030660Y-4123582D01*
X7000000Y-3000000D01*
X6034238Y-4127858D01*
G37*
G36*
X7000000Y-7000000D02*
G01*
X6030660Y-5876418D01*
X6034238Y-5872142D01*
X7000000Y-7000000D01*
G37*
G36*
X6034266Y-4127892D02*
G01*
X6034238Y-4127858D01*
X7000000Y-3000000D01*
X6034266Y-4127892D01*
G37*
G36*
X7000000Y-7000000D02*
G01*
X6034238Y-5872142D01*
X6034266Y-5872108D01*
X7000000Y-7000000D01*
G37*
G36*
X6037749Y-4132245D02*
G01*
X6034266Y-4127892D01*
X7000000Y-3000000D01*
X6037749Y-4132245D01*
G37*
G36*
X7000000Y-7000000D02*
G01*
X6034266Y-5872108D01*
X6037749Y-5867755D01*
X7000000Y-7000000D01*
G37*
G36*
X6092249Y-4201931D02*
G01*
X6037749Y-4132245D01*
X7000000Y-3000000D01*
X6092249Y-4201931D01*
G37*
G36*
X7000000Y-7000000D02*
G01*
X6037749Y-5867755D01*
X6092249Y-5798069D01*
X7000000Y-7000000D01*
G37*
G36*
X6095635Y-4206360D02*
G01*
X6092249Y-4201931D01*
X7000000Y-3000000D01*
X6095635Y-4206360D01*
G37*
G36*
X7000000Y-7000000D02*
G01*
X6092249Y-5798069D01*
X6095635Y-5793640D01*
X7000000Y-7000000D01*
G37*
G36*
X6095661Y-4206396D02*
G01*
X6095635Y-4206360D01*
X7000000Y-3000000D01*
X6095661Y-4206396D01*
G37*
G36*
X7000000Y-7000000D02*
G01*
X6095635Y-5793640D01*
X6095661Y-5793604D01*
X7000000Y-7000000D01*
G37*
G36*
X6098948Y-4210899D02*
G01*
X6095661Y-4206396D01*
X7000000Y-3000000D01*
X6098948Y-4210899D01*
G37*
G36*
X7000000Y-7000000D02*
G01*
X6095661Y-5793604D01*
X6098948Y-5789101D01*
X7000000Y-7000000D01*
G37*
G36*
X6104085Y-4218102D02*
G01*
X6098948Y-4210899D01*
X7000000Y-3000000D01*
X6104085Y-4218102D01*
G37*
G36*
X7000000Y-7000000D02*
G01*
X6098948Y-5789101D01*
X6104085Y-5781898D01*
X7000000Y-7000000D01*
G37*
G36*
X6107271Y-4222676D02*
G01*
X6104085Y-4218102D01*
X7000000Y-3000000D01*
X6107271Y-4222676D01*
G37*
G36*
X7000000Y-7000000D02*
G01*
X6104085Y-5781898D01*
X6107271Y-5777324D01*
X7000000Y-7000000D01*
G37*
G36*
X6107296Y-4222713D02*
G01*
X6107271Y-4222676D01*
X7000000Y-3000000D01*
X6107296Y-4222713D01*
G37*
G36*
X7000000Y-7000000D02*
G01*
X6107271Y-5777324D01*
X6107296Y-5777287D01*
X7000000Y-7000000D01*
G37*
G36*
X6110380Y-4227357D02*
G01*
X6107296Y-4222713D01*
X7000000Y-3000000D01*
X6110380Y-4227357D01*
G37*
G36*
X7000000Y-7000000D02*
G01*
X6107296Y-5777287D01*
X6110380Y-5772643D01*
X7000000Y-7000000D01*
G37*
G36*
X6158508Y-4301587D02*
G01*
X6110380Y-4227357D01*
X7000000Y-3000000D01*
X6158508Y-4301587D01*
G37*
G36*
X7000000Y-7000000D02*
G01*
X6110380Y-5772643D01*
X6158508Y-5698413D01*
X7000000Y-7000000D01*
G37*
G36*
X6161489Y-4306298D02*
G01*
X6158508Y-4301587D01*
X7000000Y-3000000D01*
X6161489Y-4306298D01*
G37*
G36*
X7000000Y-7000000D02*
G01*
X6158508Y-5698413D01*
X6161489Y-5693702D01*
X7000000Y-7000000D01*
G37*
G36*
X6161512Y-4306336D02*
G01*
X6161489Y-4306298D01*
X7000000Y-3000000D01*
X6161512Y-4306336D01*
G37*
G36*
X7000000Y-7000000D02*
G01*
X6161489Y-5693702D01*
X6161512Y-5693664D01*
X7000000Y-7000000D01*
G37*
G36*
X6164389Y-4311112D02*
G01*
X6161512Y-4306336D01*
X7000000Y-3000000D01*
X6164389Y-4311112D01*
G37*
G36*
X7000000Y-7000000D02*
G01*
X6161512Y-5693664D01*
X6164389Y-5688888D01*
X7000000Y-7000000D01*
G37*
G36*
X6168868Y-4318741D02*
G01*
X6164389Y-4311112D01*
X7000000Y-3000000D01*
X6168868Y-4318741D01*
G37*
G36*
X7000000Y-7000000D02*
G01*
X6164389Y-5688888D01*
X6168868Y-5681259D01*
X7000000Y-7000000D01*
G37*
G36*
X6171638Y-4323579D02*
G01*
X6168868Y-4318741D01*
X7000000Y-3000000D01*
X6171638Y-4323579D01*
G37*
G36*
X7000000Y-7000000D02*
G01*
X6168868Y-5681259D01*
X6171638Y-5676421D01*
X7000000Y-7000000D01*
G37*
G36*
X6171660Y-4323618D02*
G01*
X6171638Y-4323579D01*
X7000000Y-3000000D01*
X6171660Y-4323618D01*
G37*
G36*
X7000000Y-7000000D02*
G01*
X6171638Y-5676421D01*
X6171660Y-5676382D01*
X7000000Y-7000000D01*
G37*
G36*
X6174322Y-4328516D02*
G01*
X6171660Y-4323618D01*
X7000000Y-3000000D01*
X6174322Y-4328516D01*
G37*
G36*
X7000000Y-7000000D02*
G01*
X6171660Y-5676382D01*
X6174322Y-5671484D01*
X7000000Y-7000000D01*
G37*
G36*
X6215701Y-4406709D02*
G01*
X6174322Y-4328516D01*
X7000000Y-3000000D01*
X6215701Y-4406709D01*
G37*
G36*
X7000000Y-7000000D02*
G01*
X6174322Y-5671484D01*
X6215701Y-5593291D01*
X7000000Y-7000000D01*
G37*
G36*
X6218254Y-4411665D02*
G01*
X6215701Y-4406709D01*
X7000000Y-3000000D01*
X6218254Y-4411665D01*
G37*
G36*
X7000000Y-7000000D02*
G01*
X6215701Y-5593291D01*
X6218254Y-5588335D01*
X7000000Y-7000000D01*
G37*
G36*
X6218273Y-4411705D02*
G01*
X6218254Y-4411665D01*
X7000000Y-3000000D01*
X6218273Y-4411705D01*
G37*
G36*
X7000000Y-7000000D02*
G01*
X6218254Y-5588335D01*
X6218273Y-5588295D01*
X7000000Y-7000000D01*
G37*
G36*
X6220716Y-4416716D02*
G01*
X6218273Y-4411705D01*
X7000000Y-3000000D01*
X6220716Y-4416716D01*
G37*
G36*
X7000000Y-7000000D02*
G01*
X6218273Y-5588295D01*
X6220716Y-5583284D01*
X7000000Y-7000000D01*
G37*
G36*
X6224504Y-4424711D02*
G01*
X6220716Y-4416716D01*
X7000000Y-3000000D01*
X6224504Y-4424711D01*
G37*
G36*
X7000000Y-7000000D02*
G01*
X6220716Y-5583284D01*
X6224504Y-5575289D01*
X7000000Y-7000000D01*
G37*
G36*
X6226835Y-4429775D02*
G01*
X6224504Y-4424711D01*
X7000000Y-3000000D01*
X6226835Y-4429775D01*
G37*
G36*
X7000000Y-7000000D02*
G01*
X6224504Y-5575289D01*
X6226835Y-5570225D01*
X7000000Y-7000000D01*
G37*
G36*
X6226853Y-4429816D02*
G01*
X6226835Y-4429775D01*
X7000000Y-3000000D01*
X6226853Y-4429816D01*
G37*
G36*
X7000000Y-7000000D02*
G01*
X6226835Y-5570225D01*
X6226853Y-5570184D01*
X7000000Y-7000000D01*
G37*
G36*
X6229072Y-4434930D02*
G01*
X6226853Y-4429816D01*
X7000000Y-3000000D01*
X6229072Y-4434930D01*
G37*
G36*
X7000000Y-7000000D02*
G01*
X6226853Y-5570184D01*
X6229072Y-5565070D01*
X7000000Y-7000000D01*
G37*
G36*
X6263378Y-4516475D02*
G01*
X6229072Y-4434930D01*
X7000000Y-3000000D01*
X6263378Y-4516475D01*
G37*
G36*
X7000000Y-7000000D02*
G01*
X6229072Y-5565070D01*
X6263378Y-5483525D01*
X7000000Y-7000000D01*
G37*
G36*
X6265483Y-4521637D02*
G01*
X6263378Y-4516475D01*
X7000000Y-3000000D01*
X6265483Y-4521637D01*
G37*
G36*
X7000000Y-7000000D02*
G01*
X6263378Y-5483525D01*
X6265483Y-5478363D01*
X7000000Y-7000000D01*
G37*
G36*
X6265500Y-4521678D02*
G01*
X6265483Y-4521637D01*
X7000000Y-3000000D01*
X6265500Y-4521678D01*
G37*
G36*
X7000000Y-7000000D02*
G01*
X6265483Y-5478363D01*
X6265500Y-5478322D01*
X7000000Y-7000000D01*
G37*
G36*
X6267490Y-4526886D02*
G01*
X6265500Y-4521678D01*
X7000000Y-3000000D01*
X6267490Y-4526886D01*
G37*
G36*
X7000000Y-7000000D02*
G01*
X6265500Y-5478322D01*
X6267490Y-5473114D01*
X7000000Y-7000000D01*
G37*
G36*
X6270556Y-4535184D02*
G01*
X6267490Y-4526886D01*
X7000000Y-3000000D01*
X6270556Y-4535184D01*
G37*
G36*
X7000000Y-7000000D02*
G01*
X6267490Y-5473114D01*
X6270556Y-5464816D01*
X7000000Y-7000000D01*
G37*
G36*
X6272431Y-4540435D02*
G01*
X6270556Y-4535184D01*
X7000000Y-3000000D01*
X6272431Y-4540435D01*
G37*
G36*
X7000000Y-7000000D02*
G01*
X6270556Y-5464816D01*
X6272431Y-5459565D01*
X7000000Y-7000000D01*
G37*
G36*
X6272445Y-4540476D02*
G01*
X6272431Y-4540435D01*
X7000000Y-3000000D01*
X6272445Y-4540476D01*
G37*
G36*
X7000000Y-7000000D02*
G01*
X6272431Y-5459565D01*
X6272445Y-5459524D01*
X7000000Y-7000000D01*
G37*
G36*
X6274203Y-4545767D02*
G01*
X6272445Y-4540476D01*
X7000000Y-3000000D01*
X6274203Y-4545767D01*
G37*
G36*
X7000000Y-7000000D02*
G01*
X6272445Y-5459524D01*
X6274203Y-5454233D01*
X7000000Y-7000000D01*
G37*
G36*
X6301169Y-4630024D02*
G01*
X6274203Y-4545767D01*
X7000000Y-3000000D01*
X6301169Y-4630024D01*
G37*
G36*
X7000000Y-7000000D02*
G01*
X6274203Y-5454233D01*
X6301169Y-5369976D01*
X7000000Y-7000000D01*
G37*
G36*
X6302809Y-4635352D02*
G01*
X6301169Y-4630024D01*
X7000000Y-3000000D01*
X6302809Y-4635352D01*
G37*
G36*
X7000000Y-7000000D02*
G01*
X6301169Y-5369976D01*
X6302809Y-5364648D01*
X7000000Y-7000000D01*
G37*
G36*
X6302822Y-4635395D02*
G01*
X6302809Y-4635352D01*
X7000000Y-3000000D01*
X6302822Y-4635395D01*
G37*
G36*
X7000000Y-7000000D02*
G01*
X6302809Y-5364648D01*
X6302822Y-5364605D01*
X7000000Y-7000000D01*
G37*
G36*
X6304344Y-4640758D02*
G01*
X6302822Y-4635395D01*
X7000000Y-3000000D01*
X6304344Y-4640758D01*
G37*
G36*
X7000000Y-7000000D02*
G01*
X6302822Y-5364605D01*
X6304344Y-5359242D01*
X7000000Y-7000000D01*
G37*
G36*
X6306665Y-4649295D02*
G01*
X6304344Y-4640758D01*
X7000000Y-3000000D01*
X6306665Y-4649295D01*
G37*
G36*
X7000000Y-7000000D02*
G01*
X6304344Y-5359242D01*
X6306665Y-5350705D01*
X7000000Y-7000000D01*
G37*
G36*
X6308068Y-4654691D02*
G01*
X6306665Y-4649295D01*
X7000000Y-3000000D01*
X6308068Y-4654691D01*
G37*
G36*
X7000000Y-7000000D02*
G01*
X6306665Y-5350705D01*
X6308068Y-5345309D01*
X7000000Y-7000000D01*
G37*
G36*
X6308079Y-4654734D02*
G01*
X6308068Y-4654691D01*
X7000000Y-3000000D01*
X6308079Y-4654734D01*
G37*
G36*
X7000000Y-7000000D02*
G01*
X6308068Y-5345309D01*
X6308079Y-5345266D01*
X7000000Y-7000000D01*
G37*
G36*
X6309362Y-4660159D02*
G01*
X6308079Y-4654734D01*
X7000000Y-3000000D01*
X6309362Y-4660159D01*
G37*
G36*
X7000000Y-7000000D02*
G01*
X6308079Y-5345266D01*
X6309362Y-5339841D01*
X7000000Y-7000000D01*
G37*
G36*
X6328775Y-4746469D02*
G01*
X6309362Y-4660159D01*
X7000000Y-3000000D01*
X6328775Y-4746469D01*
G37*
G36*
X7000000Y-7000000D02*
G01*
X6309362Y-5339841D01*
X6328775Y-5253531D01*
X7000000Y-7000000D01*
G37*
G36*
X6329939Y-4751922D02*
G01*
X6328775Y-4746469D01*
X7000000Y-3000000D01*
X6329939Y-4751922D01*
G37*
G36*
X7000000Y-7000000D02*
G01*
X6328775Y-5253531D01*
X6329939Y-5248078D01*
X7000000Y-7000000D01*
G37*
G36*
X6329947Y-4751965D02*
G01*
X6329939Y-4751922D01*
X7000000Y-3000000D01*
X6329947Y-4751965D01*
G37*
G36*
X7000000Y-7000000D02*
G01*
X6329939Y-5248078D01*
X6329947Y-5248035D01*
X7000000Y-7000000D01*
G37*
G36*
X6330990Y-4757442D02*
G01*
X6329947Y-4751965D01*
X7000000Y-3000000D01*
X6330990Y-4757442D01*
G37*
G36*
X7000000Y-7000000D02*
G01*
X6329947Y-5248035D01*
X6330990Y-5242558D01*
X7000000Y-7000000D01*
G37*
G36*
X6332547Y-4766151D02*
G01*
X6330990Y-4757442D01*
X7000000Y-3000000D01*
X6332547Y-4766151D01*
G37*
G36*
X7000000Y-7000000D02*
G01*
X6330990Y-5242558D01*
X6332547Y-5233849D01*
X7000000Y-7000000D01*
G37*
G36*
X6333468Y-4771649D02*
G01*
X6332547Y-4766151D01*
X7000000Y-3000000D01*
X6333468Y-4771649D01*
G37*
G36*
X7000000Y-7000000D02*
G01*
X6332547Y-5233849D01*
X6333468Y-5228351D01*
X7000000Y-7000000D01*
G37*
G36*
X6333475Y-4771693D02*
G01*
X6333468Y-4771649D01*
X7000000Y-3000000D01*
X6333475Y-4771693D01*
G37*
G36*
X7000000Y-7000000D02*
G01*
X6333468Y-5228351D01*
X6333475Y-5228307D01*
X7000000Y-7000000D01*
G37*
G36*
X6334274Y-4777210D02*
G01*
X6333475Y-4771693D01*
X7000000Y-3000000D01*
X6334274Y-4777210D01*
G37*
G36*
X7000000Y-7000000D02*
G01*
X6333475Y-5228307D01*
X6334274Y-5222790D01*
X7000000Y-7000000D01*
G37*
G36*
X6345983Y-4864899D02*
G01*
X6334274Y-4777210D01*
X7000000Y-3000000D01*
X6345983Y-4864899D01*
G37*
G36*
X7000000Y-7000000D02*
G01*
X6334274Y-5222790D01*
X6345983Y-5135101D01*
X7000000Y-7000000D01*
G37*
G36*
X6346659Y-4870433D02*
G01*
X6345983Y-4864899D01*
X7000000Y-3000000D01*
X6346659Y-4870433D01*
G37*
G36*
X7000000Y-7000000D02*
G01*
X6345983Y-5135101D01*
X6346659Y-5129567D01*
X7000000Y-7000000D01*
G37*
G36*
X6346664Y-4870477D02*
G01*
X6346659Y-4870433D01*
X7000000Y-3000000D01*
X6346664Y-4870477D01*
G37*
G36*
X7000000Y-7000000D02*
G01*
X6346659Y-5129567D01*
X6346664Y-5129523D01*
X7000000Y-7000000D01*
G37*
G36*
X6347218Y-4876024D02*
G01*
X6346664Y-4870477D01*
X7000000Y-3000000D01*
X6347218Y-4876024D01*
G37*
G36*
X7000000Y-7000000D02*
G01*
X6346664Y-5129523D01*
X6347218Y-5123976D01*
X7000000Y-7000000D01*
G37*
G36*
X6348000Y-4884836D02*
G01*
X6347218Y-4876024D01*
X7000000Y-3000000D01*
X6348000Y-4884836D01*
G37*
G36*
X7000000Y-7000000D02*
G01*
X6347218Y-5123976D01*
X6348000Y-5115164D01*
X7000000Y-7000000D01*
G37*
G36*
X6348432Y-4890395D02*
G01*
X6348000Y-4884836D01*
X7000000Y-3000000D01*
X6348432Y-4890395D01*
G37*
G36*
X7000000Y-7000000D02*
G01*
X6348000Y-5115164D01*
X6348432Y-5109605D01*
X7000000Y-7000000D01*
G37*
G36*
X6348435Y-4890439D02*
G01*
X6348432Y-4890395D01*
X7000000Y-3000000D01*
X6348435Y-4890439D01*
G37*
G36*
X7000000Y-7000000D02*
G01*
X6348432Y-5109605D01*
X6348435Y-5109561D01*
X7000000Y-7000000D01*
G37*
G36*
X6348743Y-4896005D02*
G01*
X6348435Y-4890439D01*
X7000000Y-3000000D01*
X6348743Y-4896005D01*
G37*
G36*
X7000000Y-7000000D02*
G01*
X6348435Y-5109561D01*
X6348743Y-5103995D01*
X7000000Y-7000000D01*
G37*
G36*
X6352656Y-4984386D02*
G01*
X6348743Y-4896005D01*
X7000000Y-3000000D01*
X6352656Y-4984386D01*
G37*
G36*
X7000000Y-7000000D02*
G01*
X6348743Y-5103995D01*
X6352656Y-5015614D01*
X7000000Y-7000000D01*
G37*
G36*
X6352841Y-4989958D02*
G01*
X6352656Y-4984386D01*
X7000000Y-3000000D01*
X6352841Y-4989958D01*
G37*
G36*
X7000000Y-7000000D02*
G01*
X6352656Y-5015614D01*
X6352841Y-5010042D01*
X7000000Y-7000000D01*
G37*
G36*
X6352842Y-4990002D02*
G01*
X6352841Y-4989958D01*
X7000000Y-3000000D01*
X6352842Y-4990002D01*
G37*
G36*
X7000000Y-7000000D02*
G01*
X6352841Y-5010042D01*
X6352842Y-5009998D01*
X7000000Y-7000000D01*
G37*
G36*
X6352904Y-4995577D02*
G01*
X6352842Y-4990002D01*
X7000000Y-3000000D01*
X6352904Y-4995577D01*
G37*
G36*
X7000000Y-7000000D02*
G01*
X6352842Y-5009998D01*
X6352904Y-5004423D01*
X7000000Y-7000000D01*
G37*
G36*
X7000000Y-7000000D02*
G01*
X6352904Y-4995577D01*
X7000000Y-3000000D01*
X7000000Y-7000000D01*
G37*
G36*
X7000000Y-7000000D02*
G01*
X6352904Y-5004423D01*
X6352904Y-4995577D01*
X7000000Y-7000000D01*
G37*
G36*
X9500000Y-778534D02*
G01*
X9304968Y-500000D01*
X9500000Y-500000D01*
X9500000Y-778534D01*
G37*
G36*
X9500000Y-1650258D02*
G01*
X9500000Y-1998947D01*
X8450426Y-500000D01*
X8694581Y-500000D01*
X9500000Y-1650258D01*
G37*
G36*
X9240454Y-2500000D02*
G01*
X8996299Y-2500000D01*
X7595884Y-500000D01*
X7840039Y-500000D01*
X9240454Y-2500000D01*
G37*
G36*
X8385912Y-2500000D02*
G01*
X8141757Y-2500000D01*
X6741342Y-500000D01*
X6985497Y-500000D01*
X8385912Y-2500000D01*
G37*
G36*
X7531369Y-2500000D02*
G01*
X7287215Y-2500000D01*
X5886799Y-500000D01*
X6130954Y-500000D01*
X7531369Y-2500000D01*
G37*
G36*
X6676827Y-2500000D02*
G01*
X6432672Y-2500000D01*
X5032257Y-500000D01*
X5276412Y-500000D01*
X6676827Y-2500000D01*
G37*
G36*
X5822285Y-2500000D02*
G01*
X5578130Y-2500000D01*
X4177715Y-500000D01*
X4421870Y-500000D01*
X5822285Y-2500000D01*
G37*
G36*
X4967743Y-2500000D02*
G01*
X4723588Y-2500000D01*
X3323173Y-500000D01*
X3567328Y-500000D01*
X4967743Y-2500000D01*
G37*
G36*
X4113201Y-2500000D02*
G01*
X3869046Y-2500000D01*
X2468631Y-500000D01*
X2712785Y-500000D01*
X4113201Y-2500000D01*
G37*
G36*
X3258658Y-2500000D02*
G01*
X3014503Y-2500000D01*
X1614088Y-500000D01*
X1858243Y-500000D01*
X3258658Y-2500000D01*
G37*
G36*
X2404116Y-2500000D02*
G01*
X2159961Y-2500000D01*
X759546Y-500000D01*
X1003701Y-500000D01*
X2404116Y-2500000D01*
G37*
G36*
X1549574Y-2500000D02*
G01*
X1305419Y-2500000D01*
X500000Y-1349742D01*
X500000Y-1001053D01*
X1549574Y-2500000D01*
G37*
G36*
X695032Y-2500000D02*
G01*
X500000Y-2500000D01*
X500000Y-2221466D01*
X695032Y-2500000D01*
G37*
G36*
X4488644Y-6252373D02*
G01*
X4493759Y-6254591D01*
X4493800Y-6254608D01*
X4498962Y-6256713D01*
X4507191Y-6259963D01*
X4512398Y-6261953D01*
X4512440Y-6261968D01*
X4517690Y-6263843D01*
X4601330Y-6292666D01*
X4606621Y-6294423D01*
X4606663Y-6294437D01*
X4611991Y-6296077D01*
X4620475Y-6298587D01*
X4625838Y-6300109D01*
X4625881Y-6300121D01*
X4631276Y-6301524D01*
X4692826Y-6316806D01*
X4090095Y-8125000D01*
X1000000Y-8125000D01*
X1000000Y-7875000D01*
X3909905Y-7875000D01*
X4455691Y-6237643D01*
X4488644Y-6252373D01*
G37*
G36*
X6090095Y-7875000D02*
G01*
X9000000Y-7875000D01*
X9000000Y-8125000D01*
X5909905Y-8125000D01*
X5307325Y-6317260D01*
X5310792Y-6316560D01*
X5316245Y-6315397D01*
X5316288Y-6315387D01*
X5321713Y-6314104D01*
X5330299Y-6311972D01*
X5335695Y-6310569D01*
X5335737Y-6310557D01*
X5341101Y-6309035D01*
X5425934Y-6283940D01*
X5431262Y-6282300D01*
X5431304Y-6282286D01*
X5436595Y-6280528D01*
X5444959Y-6277646D01*
X5450209Y-6275771D01*
X5450251Y-6275756D01*
X5455459Y-6273766D01*
X5537742Y-6241272D01*
X5542904Y-6239167D01*
X5542945Y-6239150D01*
X5544576Y-6238442D01*
X6090095Y-7875000D01*
G37*
M02*
