<?xml version="1.0" encoding="utf-8"?>
<svg width="24.694974000000002mm" height="16.25mm" viewBox="3.7 -16.05 24.694974000000002 16.25" style="background-color:white" xmlns="http://www.w3.org/2000/svg" xmlns:xlink="http://www.w3.org/1999/xlink">
  <g transform="translate(3.7 0.2) scale(1 -1) translate(-3.7 16.05)">
    <path d="M 7.0 -15.0 A 1.0 1.0 0 0 0 5.0 -15.0" fill="none" stroke="black" stroke-width="0.1" stroke-linecap="round"/>
    <path d="M 5.0 -15.0 A 1.0 1.0 0 0 0 7.0 -15.0" fill="none" stroke="black" stroke-width="0.1" stroke-linecap="round"/>
    <circle cx="5.25" cy="-4.0" r="1.2" fill="black"/>
    <path d="M 4.0 -1.5 L 6.0 -1.5 L 6.0 -0.5 L 4.0 -0.5 L 4.0 -1.5" fill="black"/>
    <circle cx="4.0" cy="-1.5" r="0.3" fill="black"/>
    <circle cx="6.0" cy="-1.5" r="0.3" fill="black"/>
    <circle cx="6.0" cy="-0.5" r="0.3" fill="black"/>
    <circle cx="4.0" cy="-0.5" r="0.3" fill="black"/>
    <rect x="4.0" y="-1.8" width="2.0" height="0.6" fill="black"/>
    <rect x="5.5" y="-1.3" width="1.0" height="0.6" transform="rotate(90.0 6.0 -1.0)" fill="black"/>
    <rect x="4.0" y="-0.8" width="2.0" height="0.6" transform="rotate(180.0 5.0 -0.5)" fill="black"/>
    <rect x="3.5" y="-1.3" width="1.0" height="0.6" transform="rotate(-90.0 4.0 -1.0)" fill="black"/>
    <path d="M 9.0 -6.0 L 9.0 -4.0" fill="none" stroke="black" stroke-linecap="round" stroke-linejoin="round" stroke-width="1.4"/>
    <path d="M 8.5 -1.5 L 9.5 -1.5 L 9.5 -0.5 L 8.5 -0.5 L 8.5 -1.5" fill="black"/>
    <circle cx="8.5" cy="-1.5" r="0.7" fill="black"/>
    <circle cx="9.5" cy="-1.5" r="0.7" fill="black"/>
    <circle cx="9.5" cy="-0.5" r="0.7" fill="black"/>
    <circle cx="8.5" cy="-0.5" r="0.7" fill="black"/>
    <rect x="8.5" y="-2.2" width="1.0" height="1.4" fill="black"/>
    <rect x="9.0" y="-1.7" width="1.0" height="1.4" transform="rotate(90.0 9.5 -1.0)" fill="black"/>
    <rect x="8.5" y="-1.2" width="1.0" height="1.4" transform="rotate(180.0 9.0 -0.5)" fill="black"/>
    <rect x="8.0" y="-1.7" width="1.0" height="1.4" transform="rotate(-90.0 8.5 -1.0)" fill="black"/>
    <rect x="26.6414" y="-5.75858" width="0.999999" height="1.8" transform="rotate(-135.0 27.1414 -4.85858)" fill="black"/>
    <circle cx="27.495" cy="-4.50503" r="0.9" fill="black"/>
    <circle cx="26.7879" cy="-5.21213" r="0.9" fill="black"/>
    <circle cx="10.0" cy="-15.0" r="0.8" fill="black"/>
  </g>
</svg>