%TF.GenerationSoftware,KiCad,Pcbnew,10.0.5*%
%TF.CreationDate,2026-09-30T09:52:30+00:00*%
%TF.ProjectId,modified,6d6f6469-6669-4656-942e-6b696361645f,rev?*%
%TF.SameCoordinates,Original*%
%TF.FileFunction,Legend,Top*%
%TF.FilePolarity,Positive*%
%FSLAX46Y46*%
G04 Gerber Fmt 4.6, Leading zero omitted, Abs format (unit mm)*
G04 Created by KiCad (PCBNEW 10.0.5) date 2026-09-30 09:52:30*
%MOMM*%
%LPD*%
G01*
G04 APERTURE LIST*
%ADD10C,0.000000*%
G04 APERTURE END LIST*
D10*
G36*
X3738017Y-4952183D02*
G01*
X3737977Y-4955767D01*
X3000000Y-3000000D01*
X3738017Y-4952183D01*
G37*
G36*
X3737977Y-5044233D02*
G01*
X3000000Y-7000000D01*
X3737977Y-4955767D01*
X3737977Y-5044233D01*
G37*
G36*
X3737977Y-4955767D02*
G01*
X3000000Y-7000000D01*
X3000000Y-3000000D01*
X3737977Y-4955767D01*
G37*
G36*
X3738017Y-5047817D02*
G01*
X3000000Y-7000000D01*
X3737977Y-5044233D01*
X3738017Y-5047817D01*
G37*
G36*
X3738018Y-4952139D02*
G01*
X3738017Y-4952183D01*
X3000000Y-3000000D01*
X3738018Y-4952139D01*
G37*
G36*
X3738018Y-5047861D02*
G01*
X3000000Y-7000000D01*
X3738017Y-5047817D01*
X3738018Y-5047861D01*
G37*
G36*
X3738137Y-4948557D02*
G01*
X3738018Y-4952139D01*
X3000000Y-3000000D01*
X3738137Y-4948557D01*
G37*
G36*
X3738137Y-5051443D02*
G01*
X3000000Y-7000000D01*
X3738018Y-5047861D01*
X3738137Y-5051443D01*
G37*
G36*
X3738528Y-4939719D02*
G01*
X3738137Y-4948557D01*
X3000000Y-3000000D01*
X3738528Y-4939719D01*
G37*
G36*
X3738528Y-5060281D02*
G01*
X3000000Y-7000000D01*
X3738137Y-5051443D01*
X3738528Y-5060281D01*
G37*
G36*
X3738726Y-4936140D02*
G01*
X3738528Y-4939719D01*
X3000000Y-3000000D01*
X3738726Y-4936140D01*
G37*
G36*
X3738726Y-5063860D02*
G01*
X3000000Y-7000000D01*
X3738528Y-5060281D01*
X3738726Y-5063860D01*
G37*
G36*
X3738729Y-4936096D02*
G01*
X3738726Y-4936140D01*
X3000000Y-3000000D01*
X3738729Y-4936096D01*
G37*
G36*
X3738729Y-5063904D02*
G01*
X3000000Y-7000000D01*
X3738726Y-5063860D01*
X3738729Y-5063904D01*
G37*
G36*
X3739007Y-4932523D02*
G01*
X3738729Y-4936096D01*
X3000000Y-3000000D01*
X3739007Y-4932523D01*
G37*
G36*
X3739007Y-5067477D02*
G01*
X3000000Y-7000000D01*
X3738729Y-5063904D01*
X3739007Y-5067477D01*
G37*
G36*
X3746825Y-4844402D02*
G01*
X3739007Y-4932523D01*
X3000000Y-3000000D01*
X3746825Y-4844402D01*
G37*
G36*
X3746825Y-5155598D02*
G01*
X3000000Y-7000000D01*
X3739007Y-5067477D01*
X3746825Y-5155598D01*
G37*
G36*
X3747181Y-4840836D02*
G01*
X3746825Y-4844402D01*
X3000000Y-3000000D01*
X3747181Y-4840836D01*
G37*
G36*
X3747181Y-5159164D02*
G01*
X3000000Y-7000000D01*
X3746825Y-5155598D01*
X3747181Y-5159164D01*
G37*
G36*
X3747186Y-4840792D02*
G01*
X3747181Y-4840836D01*
X3000000Y-3000000D01*
X3747186Y-4840792D01*
G37*
G36*
X3747186Y-5159208D02*
G01*
X3000000Y-7000000D01*
X3747181Y-5159164D01*
X3747186Y-5159208D01*
G37*
G36*
X3747621Y-4837234D02*
G01*
X3747186Y-4840792D01*
X3000000Y-3000000D01*
X3747621Y-4837234D01*
G37*
G36*
X3747621Y-5162766D02*
G01*
X3000000Y-7000000D01*
X3747186Y-5159208D01*
X3747621Y-5162766D01*
G37*
G36*
X3748792Y-4828465D02*
G01*
X3747621Y-4837234D01*
X3000000Y-3000000D01*
X3748792Y-4828465D01*
G37*
G36*
X3748792Y-5171535D02*
G01*
X3000000Y-7000000D01*
X3747621Y-5162766D01*
X3748792Y-5171535D01*
G37*
G36*
X3749306Y-4824918D02*
G01*
X3748792Y-4828465D01*
X3000000Y-3000000D01*
X3749306Y-4824918D01*
G37*
G36*
X3749306Y-5175082D02*
G01*
X3000000Y-7000000D01*
X3748792Y-5171535D01*
X3749306Y-5175082D01*
G37*
G36*
X3749313Y-4824875D02*
G01*
X3749306Y-4824918D01*
X3000000Y-3000000D01*
X3749313Y-4824875D01*
G37*
G36*
X3749313Y-5175125D02*
G01*
X3000000Y-7000000D01*
X3749306Y-5175082D01*
X3749313Y-5175125D01*
G37*
G36*
X3749905Y-4821340D02*
G01*
X3749313Y-4824875D01*
X3000000Y-3000000D01*
X3749905Y-4821340D01*
G37*
G36*
X3749905Y-5178660D02*
G01*
X3000000Y-7000000D01*
X3749313Y-5175125D01*
X3749905Y-5178660D01*
G37*
G36*
X3765481Y-4734255D02*
G01*
X3749905Y-4821340D01*
X3000000Y-3000000D01*
X3765481Y-4734255D01*
G37*
G36*
X3765481Y-5265745D02*
G01*
X3000000Y-7000000D01*
X3749905Y-5178660D01*
X3765481Y-5265745D01*
G37*
G36*
X3766151Y-4730734D02*
G01*
X3765481Y-4734255D01*
X3000000Y-3000000D01*
X3766151Y-4730734D01*
G37*
G36*
X3766151Y-5269266D02*
G01*
X3000000Y-7000000D01*
X3765481Y-5265745D01*
X3766151Y-5269266D01*
G37*
G36*
X3766160Y-4730691D02*
G01*
X3766151Y-4730734D01*
X3000000Y-3000000D01*
X3766160Y-4730691D01*
G37*
G36*
X3766160Y-5269309D02*
G01*
X3000000Y-7000000D01*
X3766151Y-5269266D01*
X3766160Y-5269309D01*
G37*
G36*
X3766907Y-4727186D02*
G01*
X3766160Y-4730691D01*
X3000000Y-3000000D01*
X3766907Y-4727186D01*
G37*
G36*
X3766907Y-5272814D02*
G01*
X3000000Y-7000000D01*
X3766160Y-5269309D01*
X3766907Y-5272814D01*
G37*
G36*
X3768849Y-4718555D02*
G01*
X3766907Y-4727186D01*
X3000000Y-3000000D01*
X3768849Y-4718555D01*
G37*
G36*
X3768849Y-5281445D02*
G01*
X3000000Y-7000000D01*
X3766907Y-5272814D01*
X3768849Y-5281445D01*
G37*
G36*
X3769674Y-4715067D02*
G01*
X3768849Y-4718555D01*
X3000000Y-3000000D01*
X3769674Y-4715067D01*
G37*
G36*
X3769674Y-5284933D02*
G01*
X3000000Y-7000000D01*
X3768849Y-5281445D01*
X3769674Y-5284933D01*
G37*
G36*
X3769684Y-4715024D02*
G01*
X3769674Y-4715067D01*
X3000000Y-3000000D01*
X3769684Y-4715024D01*
G37*
G36*
X3769684Y-5284976D02*
G01*
X3000000Y-7000000D01*
X3769674Y-5284933D01*
X3769684Y-5284976D01*
G37*
G36*
X3770587Y-4711555D02*
G01*
X3769684Y-4715024D01*
X3000000Y-3000000D01*
X3770587Y-4711555D01*
G37*
G36*
X3770587Y-5288445D02*
G01*
X3000000Y-7000000D01*
X3769684Y-5284976D01*
X3770587Y-5288445D01*
G37*
G36*
X3793798Y-4626188D02*
G01*
X3770587Y-4711555D01*
X3000000Y-3000000D01*
X3793798Y-4626188D01*
G37*
G36*
X3793798Y-5373812D02*
G01*
X3000000Y-7000000D01*
X3770587Y-5288445D01*
X3793798Y-5373812D01*
G37*
G36*
X3794777Y-4622740D02*
G01*
X3793798Y-4626188D01*
X3000000Y-3000000D01*
X3794777Y-4622740D01*
G37*
G36*
X3794777Y-5377260D02*
G01*
X3000000Y-7000000D01*
X3793798Y-5373812D01*
X3794777Y-5377260D01*
G37*
G36*
X3794789Y-4622698D02*
G01*
X3794777Y-4622740D01*
X3000000Y-3000000D01*
X3794789Y-4622698D01*
G37*
G36*
X3794789Y-5377302D02*
G01*
X3000000Y-7000000D01*
X3794777Y-5377260D01*
X3794789Y-5377302D01*
G37*
G36*
X3795844Y-4619273D02*
G01*
X3794789Y-4622698D01*
X3000000Y-3000000D01*
X3795844Y-4619273D01*
G37*
G36*
X3795844Y-5380727D02*
G01*
X3000000Y-7000000D01*
X3794789Y-5377302D01*
X3795844Y-5380727D01*
G37*
G36*
X3798541Y-4610847D02*
G01*
X3795844Y-4619273D01*
X3000000Y-3000000D01*
X3798541Y-4610847D01*
G37*
G36*
X3798541Y-5389153D02*
G01*
X3000000Y-7000000D01*
X3795844Y-5380727D01*
X3798541Y-5389153D01*
G37*
G36*
X3799671Y-4607446D02*
G01*
X3798541Y-4610847D01*
X3000000Y-3000000D01*
X3799671Y-4607446D01*
G37*
G36*
X3799671Y-5392554D02*
G01*
X3000000Y-7000000D01*
X3798541Y-5389153D01*
X3799671Y-5392554D01*
G37*
G36*
X3799685Y-4607404D02*
G01*
X3799671Y-4607446D01*
X3000000Y-3000000D01*
X3799685Y-4607404D01*
G37*
G36*
X3799685Y-5392596D02*
G01*
X3000000Y-7000000D01*
X3799671Y-5392554D01*
X3799685Y-5392596D01*
G37*
G36*
X3800890Y-4604028D02*
G01*
X3799685Y-4607404D01*
X3000000Y-3000000D01*
X3800890Y-4604028D01*
G37*
G36*
X3800890Y-5395972D02*
G01*
X3000000Y-7000000D01*
X3799685Y-5392596D01*
X3800890Y-5395972D01*
G37*
G36*
X3831556Y-4521047D02*
G01*
X3800890Y-4604028D01*
X3000000Y-3000000D01*
X3831556Y-4521047D01*
G37*
G36*
X3831556Y-5478953D02*
G01*
X3000000Y-7000000D01*
X3800890Y-5395972D01*
X3831556Y-5478953D01*
G37*
G36*
X3832835Y-4517699D02*
G01*
X3831556Y-4521047D01*
X3000000Y-3000000D01*
X3832835Y-4517699D01*
G37*
G36*
X3832835Y-5482301D02*
G01*
X3000000Y-7000000D01*
X3831556Y-5478953D01*
X3832835Y-5482301D01*
G37*
G36*
X3832852Y-4517658D02*
G01*
X3832835Y-4517699D01*
X3000000Y-3000000D01*
X3832852Y-4517658D01*
G37*
G36*
X3832852Y-5482342D02*
G01*
X3000000Y-7000000D01*
X3832835Y-5482301D01*
X3832852Y-5482342D01*
G37*
G36*
X3834205Y-4514339D02*
G01*
X3832852Y-4517658D01*
X3000000Y-3000000D01*
X3834205Y-4514339D01*
G37*
G36*
X3834205Y-5485661D02*
G01*
X3000000Y-7000000D01*
X3832852Y-5482342D01*
X3834205Y-5485661D01*
G37*
G36*
X3837635Y-4506185D02*
G01*
X3834205Y-4514339D01*
X3000000Y-3000000D01*
X3837635Y-4506185D01*
G37*
G36*
X3837635Y-5493815D02*
G01*
X3000000Y-7000000D01*
X3834205Y-5485661D01*
X3837635Y-5493815D01*
G37*
G36*
X3839062Y-4502897D02*
G01*
X3837635Y-4506185D01*
X3000000Y-3000000D01*
X3839062Y-4502897D01*
G37*
G36*
X3839062Y-5497103D02*
G01*
X3000000Y-7000000D01*
X3837635Y-5493815D01*
X3839062Y-5497103D01*
G37*
G36*
X3839080Y-4502856D02*
G01*
X3839062Y-4502897D01*
X3000000Y-3000000D01*
X3839080Y-4502856D01*
G37*
G36*
X3839080Y-5497144D02*
G01*
X3000000Y-7000000D01*
X3839062Y-5497103D01*
X3839080Y-5497144D01*
G37*
G36*
X3840579Y-4499601D02*
G01*
X3839080Y-4502856D01*
X3000000Y-3000000D01*
X3840579Y-4499601D01*
G37*
G36*
X3840579Y-5500399D02*
G01*
X3000000Y-7000000D01*
X3839080Y-5497144D01*
X3840579Y-5500399D01*
G37*
G36*
X3878458Y-4419654D02*
G01*
X3840579Y-4499601D01*
X3000000Y-3000000D01*
X3878458Y-4419654D01*
G37*
G36*
X3878458Y-5580346D02*
G01*
X3000000Y-7000000D01*
X3840579Y-5500399D01*
X3878458Y-5580346D01*
G37*
G36*
X3880029Y-4416432D02*
G01*
X3878458Y-4419654D01*
X3000000Y-3000000D01*
X3880029Y-4416432D01*
G37*
G36*
X3880029Y-5583568D02*
G01*
X3000000Y-7000000D01*
X3878458Y-5580346D01*
X3880029Y-5583568D01*
G37*
G36*
X3880048Y-4416393D02*
G01*
X3880029Y-4416432D01*
X3000000Y-3000000D01*
X3880048Y-4416393D01*
G37*
G36*
X3880048Y-5583607D02*
G01*
X3000000Y-7000000D01*
X3880029Y-5583568D01*
X3880048Y-5583607D01*
G37*
G36*
X3881690Y-4413206D02*
G01*
X3880048Y-4416393D01*
X3000000Y-3000000D01*
X3881690Y-4413206D01*
G37*
G36*
X3881690Y-5586794D02*
G01*
X3000000Y-7000000D01*
X3880048Y-5583607D01*
X3881690Y-5586794D01*
G37*
G36*
X3885827Y-4405387D02*
G01*
X3881690Y-4413206D01*
X3000000Y-3000000D01*
X3885827Y-4405387D01*
G37*
G36*
X3885827Y-5594613D02*
G01*
X3000000Y-7000000D01*
X3881690Y-5586794D01*
X3885827Y-5594613D01*
G37*
G36*
X3887539Y-4402238D02*
G01*
X3885827Y-4405387D01*
X3000000Y-3000000D01*
X3887539Y-4402238D01*
G37*
G36*
X3887539Y-5597762D02*
G01*
X3000000Y-7000000D01*
X3885827Y-5594613D01*
X3887539Y-5597762D01*
G37*
G36*
X3887560Y-4402199D02*
G01*
X3887539Y-4402238D01*
X3000000Y-3000000D01*
X3887560Y-4402199D01*
G37*
G36*
X3887560Y-5597801D02*
G01*
X3000000Y-7000000D01*
X3887539Y-5597762D01*
X3887560Y-5597801D01*
G37*
G36*
X3889341Y-4399089D02*
G01*
X3887560Y-4402199D01*
X3000000Y-3000000D01*
X3889341Y-4399089D01*
G37*
G36*
X3889341Y-5600911D02*
G01*
X3000000Y-7000000D01*
X3887560Y-5597801D01*
X3889341Y-5600911D01*
G37*
G36*
X3934138Y-4322803D02*
G01*
X3889341Y-4399089D01*
X3000000Y-3000000D01*
X3934138Y-4322803D01*
G37*
G36*
X3934138Y-5677197D02*
G01*
X3000000Y-7000000D01*
X3889341Y-5600911D01*
X3934138Y-5677197D01*
G37*
G36*
X3935987Y-4319733D02*
G01*
X3934138Y-4322803D01*
X3000000Y-3000000D01*
X3935987Y-4319733D01*
G37*
G36*
X3935987Y-5680267D02*
G01*
X3000000Y-7000000D01*
X3934138Y-5677197D01*
X3935987Y-5680267D01*
G37*
G36*
X3936010Y-4319695D02*
G01*
X3935987Y-4319733D01*
X3000000Y-3000000D01*
X3936010Y-4319695D01*
G37*
G36*
X3936010Y-5680305D02*
G01*
X3000000Y-7000000D01*
X3935987Y-5680267D01*
X3936010Y-5680305D01*
G37*
G36*
X3937927Y-4316666D02*
G01*
X3936010Y-4319695D01*
X3000000Y-3000000D01*
X3937927Y-4316666D01*
G37*
G36*
X3937927Y-5683334D02*
G01*
X3000000Y-7000000D01*
X3936010Y-5680305D01*
X3937927Y-5683334D01*
G37*
G36*
X3942739Y-4309243D02*
G01*
X3937927Y-4316666D01*
X3000000Y-3000000D01*
X3942739Y-4309243D01*
G37*
G36*
X3942739Y-5690757D02*
G01*
X3000000Y-7000000D01*
X3937927Y-5683334D01*
X3942739Y-5690757D01*
G37*
G36*
X3944722Y-4306258D02*
G01*
X3942739Y-4309243D01*
X3000000Y-3000000D01*
X3944722Y-4306258D01*
G37*
G36*
X3944722Y-5693742D02*
G01*
X3000000Y-7000000D01*
X3942739Y-5690757D01*
X3944722Y-5693742D01*
G37*
G36*
X3944747Y-4306221D02*
G01*
X3944722Y-4306258D01*
X3000000Y-3000000D01*
X3944747Y-4306221D01*
G37*
G36*
X3944747Y-5693779D02*
G01*
X3000000Y-7000000D01*
X3944722Y-5693742D01*
X3944747Y-5693779D01*
G37*
G36*
X3946796Y-4303280D02*
G01*
X3944747Y-4306221D01*
X3000000Y-3000000D01*
X3946796Y-4303280D01*
G37*
G36*
X3946796Y-5696720D02*
G01*
X3000000Y-7000000D01*
X3944747Y-5693779D01*
X3946796Y-5696720D01*
G37*
G36*
X3998160Y-4231252D02*
G01*
X3946796Y-4303280D01*
X3000000Y-3000000D01*
X3998160Y-4231252D01*
G37*
G36*
X3998160Y-5768748D02*
G01*
X3000000Y-7000000D01*
X3946796Y-5696720D01*
X3998160Y-5768748D01*
G37*
G36*
X4000273Y-4228357D02*
G01*
X3998160Y-4231252D01*
X3000000Y-3000000D01*
X4000273Y-4228357D01*
G37*
G36*
X4000273Y-5771643D02*
G01*
X3000000Y-7000000D01*
X3998160Y-5768748D01*
X4000273Y-5771643D01*
G37*
G36*
X4000299Y-4228321D02*
G01*
X4000273Y-4228357D01*
X3000000Y-3000000D01*
X4000299Y-4228321D01*
G37*
G36*
X4000299Y-5771679D02*
G01*
X3000000Y-7000000D01*
X4000273Y-5771643D01*
X4000299Y-5771679D01*
G37*
G36*
X4002476Y-4225474D02*
G01*
X4000299Y-4228321D01*
X3000000Y-3000000D01*
X4002476Y-4225474D01*
G37*
G36*
X4002476Y-5774526D02*
G01*
X3000000Y-7000000D01*
X4000299Y-5771679D01*
X4002476Y-5774526D01*
G37*
G36*
X4007926Y-4218505D02*
G01*
X4002476Y-4225474D01*
X3000000Y-3000000D01*
X4007926Y-4218505D01*
G37*
G36*
X4007926Y-5781495D02*
G01*
X3000000Y-7000000D01*
X4002476Y-5774526D01*
X4007926Y-5781495D01*
G37*
G36*
X4010165Y-4215707D02*
G01*
X4007926Y-4218505D01*
X3000000Y-3000000D01*
X4010165Y-4215707D01*
G37*
G36*
X4010165Y-5784293D02*
G01*
X3000000Y-7000000D01*
X4007926Y-5781495D01*
X4010165Y-5784293D01*
G37*
G36*
X4010193Y-4215673D02*
G01*
X4010165Y-4215707D01*
X3000000Y-3000000D01*
X4010193Y-4215673D01*
G37*
G36*
X4010193Y-5784327D02*
G01*
X3000000Y-7000000D01*
X4010165Y-5784293D01*
X4010193Y-5784327D01*
G37*
G36*
X4012493Y-4212924D02*
G01*
X4010193Y-4215673D01*
X3000000Y-3000000D01*
X4012493Y-4212924D01*
G37*
G36*
X4012493Y-5787076D02*
G01*
X3000000Y-7000000D01*
X4010193Y-5784327D01*
X4012493Y-5787076D01*
G37*
G36*
X4070022Y-4145717D02*
G01*
X4012493Y-4212924D01*
X3000000Y-3000000D01*
X4070022Y-4145717D01*
G37*
G36*
X4070022Y-5854283D02*
G01*
X3000000Y-7000000D01*
X4012493Y-5787076D01*
X4070022Y-5854283D01*
G37*
G36*
X4072383Y-4143021D02*
G01*
X4070022Y-4145717D01*
X3000000Y-3000000D01*
X4072383Y-4143021D01*
G37*
G36*
X4072383Y-5856979D02*
G01*
X3000000Y-7000000D01*
X4070022Y-5854283D01*
X4072383Y-5856979D01*
G37*
G36*
X4072412Y-4142988D02*
G01*
X4072383Y-4143021D01*
X3000000Y-3000000D01*
X4072412Y-4142988D01*
G37*
G36*
X4072412Y-5857012D02*
G01*
X3000000Y-7000000D01*
X4072383Y-5856979D01*
X4072412Y-5857012D01*
G37*
G36*
X4074832Y-4140344D02*
G01*
X4072412Y-4142988D01*
X3000000Y-3000000D01*
X4074832Y-4140344D01*
G37*
G36*
X4074832Y-5859656D02*
G01*
X3000000Y-7000000D01*
X4072412Y-5857012D01*
X4074832Y-5859656D01*
G37*
G36*
X4080877Y-4133884D02*
G01*
X4074832Y-4140344D01*
X3000000Y-3000000D01*
X4080877Y-4133884D01*
G37*
G36*
X4080877Y-5866116D02*
G01*
X3000000Y-7000000D01*
X4074832Y-5859656D01*
X4080877Y-5866116D01*
G37*
G36*
X4083354Y-4131294D02*
G01*
X4080877Y-4133884D01*
X3000000Y-3000000D01*
X4083354Y-4131294D01*
G37*
G36*
X4083354Y-5868706D02*
G01*
X3000000Y-7000000D01*
X4080877Y-5866116D01*
X4083354Y-5868706D01*
G37*
G36*
X4083385Y-4131263D02*
G01*
X4083354Y-4131294D01*
X3000000Y-3000000D01*
X4083385Y-4131263D01*
G37*
G36*
X4083385Y-5868737D02*
G01*
X3000000Y-7000000D01*
X4083354Y-5868706D01*
X4083385Y-5868737D01*
G37*
G36*
X4085919Y-4128728D02*
G01*
X4083385Y-4131263D01*
X3000000Y-3000000D01*
X4085919Y-4128728D01*
G37*
G36*
X4085919Y-5871272D02*
G01*
X3000000Y-7000000D01*
X4083385Y-5868737D01*
X4085919Y-5871272D01*
G37*
G36*
X4149163Y-4066869D02*
G01*
X4085919Y-4128728D01*
X3000000Y-3000000D01*
X4149163Y-4066869D01*
G37*
G36*
X4149163Y-5933131D02*
G01*
X3000000Y-7000000D01*
X4085919Y-5871272D01*
X4149163Y-5933131D01*
G37*
G36*
X4151753Y-4064391D02*
G01*
X4149163Y-4066869D01*
X3000000Y-3000000D01*
X4151753Y-4064391D01*
G37*
G36*
X4151753Y-5935609D02*
G01*
X3000000Y-7000000D01*
X4149163Y-5933131D01*
X4151753Y-5935609D01*
G37*
G36*
X4151785Y-4064361D02*
G01*
X4151753Y-4064391D01*
X3000000Y-3000000D01*
X4151785Y-4064361D01*
G37*
G36*
X4151785Y-5935639D02*
G01*
X3000000Y-7000000D01*
X4151753Y-5935609D01*
X4151785Y-5935639D01*
G37*
G36*
X4154429Y-4061941D02*
G01*
X4151785Y-4064361D01*
X3000000Y-3000000D01*
X4154429Y-4061941D01*
G37*
G36*
X4154429Y-5938059D02*
G01*
X3000000Y-7000000D01*
X4151785Y-5935639D01*
X4154429Y-5938059D01*
G37*
G36*
X4161021Y-4056041D02*
G01*
X4154429Y-4061941D01*
X3000000Y-3000000D01*
X4161021Y-4056041D01*
G37*
G36*
X4161021Y-5943959D02*
G01*
X3000000Y-7000000D01*
X4154429Y-5938059D01*
X4161021Y-5943959D01*
G37*
G36*
X4163717Y-4053680D02*
G01*
X4161021Y-4056041D01*
X3000000Y-3000000D01*
X4163717Y-4053680D01*
G37*
G36*
X4163717Y-5946320D02*
G01*
X3000000Y-7000000D01*
X4161021Y-5943959D01*
X4163717Y-5946320D01*
G37*
G36*
X4163751Y-4053652D02*
G01*
X4163717Y-4053680D01*
X3000000Y-3000000D01*
X4163751Y-4053652D01*
G37*
G36*
X4163751Y-5946348D02*
G01*
X3000000Y-7000000D01*
X4163717Y-5946320D01*
X4163751Y-5946348D01*
G37*
G36*
X4166499Y-4051351D02*
G01*
X4163751Y-4053652D01*
X3000000Y-3000000D01*
X4166499Y-4051351D01*
G37*
G36*
X4166499Y-5948649D02*
G01*
X3000000Y-7000000D01*
X4163751Y-5946348D01*
X4166499Y-5948649D01*
G37*
G36*
X4234963Y-3995323D02*
G01*
X4166499Y-4051351D01*
X3000000Y-3000000D01*
X4234963Y-3995323D01*
G37*
G36*
X4234963Y-6004677D02*
G01*
X3000000Y-7000000D01*
X4166499Y-5948649D01*
X4234963Y-6004677D01*
G37*
G36*
X4237761Y-3993084D02*
G01*
X4234963Y-3995323D01*
X3000000Y-3000000D01*
X4237761Y-3993084D01*
G37*
G36*
X4237761Y-6006916D02*
G01*
X3000000Y-7000000D01*
X4234963Y-6004677D01*
X4237761Y-6006916D01*
G37*
G36*
X4237796Y-3993057D02*
G01*
X4237761Y-3993084D01*
X3000000Y-3000000D01*
X4237796Y-3993057D01*
G37*
G36*
X4237796Y-6006943D02*
G01*
X3000000Y-7000000D01*
X4237761Y-6006916D01*
X4237796Y-6006943D01*
G37*
G36*
X4240643Y-3990880D02*
G01*
X4237796Y-3993057D01*
X3000000Y-3000000D01*
X4240643Y-3990880D01*
G37*
G36*
X4240643Y-6009120D02*
G01*
X3000000Y-7000000D01*
X4237796Y-6006943D01*
X4240643Y-6009120D01*
G37*
G36*
X4247731Y-3985586D02*
G01*
X4240643Y-3990880D01*
X3000000Y-3000000D01*
X4247731Y-3985586D01*
G37*
G36*
X4247731Y-6014414D02*
G01*
X3000000Y-7000000D01*
X4240643Y-6009120D01*
X4247731Y-6014414D01*
G37*
G36*
X4250626Y-3983473D02*
G01*
X4247731Y-3985586D01*
X3000000Y-3000000D01*
X4250626Y-3983473D01*
G37*
G36*
X4250626Y-6016527D02*
G01*
X3000000Y-7000000D01*
X4247731Y-6014414D01*
X4250626Y-6016527D01*
G37*
G36*
X4250662Y-3983447D02*
G01*
X4250626Y-3983473D01*
X3000000Y-3000000D01*
X4250662Y-3983447D01*
G37*
G36*
X4250662Y-6016553D02*
G01*
X3000000Y-7000000D01*
X4250626Y-6016527D01*
X4250662Y-6016553D01*
G37*
G36*
X4253603Y-3981399D02*
G01*
X4250662Y-3983447D01*
X3000000Y-3000000D01*
X4253603Y-3981399D01*
G37*
G36*
X4253603Y-6018601D02*
G01*
X3000000Y-7000000D01*
X4250662Y-6016553D01*
X4253603Y-6018601D01*
G37*
G36*
X4326750Y-3931641D02*
G01*
X4253603Y-3981399D01*
X3000000Y-3000000D01*
X4326750Y-3931641D01*
G37*
G36*
X4326750Y-6068359D02*
G01*
X3000000Y-7000000D01*
X4253603Y-6018601D01*
X4326750Y-6068359D01*
G37*
G36*
X4329735Y-3929658D02*
G01*
X4326750Y-3931641D01*
X3000000Y-3000000D01*
X4329735Y-3929658D01*
G37*
G36*
X4329735Y-6070342D02*
G01*
X3000000Y-7000000D01*
X4326750Y-6068359D01*
X4329735Y-6070342D01*
G37*
G36*
X4329772Y-3929634D02*
G01*
X4329735Y-3929658D01*
X3000000Y-3000000D01*
X4329772Y-3929634D01*
G37*
G36*
X4329772Y-6070366D02*
G01*
X3000000Y-7000000D01*
X4329735Y-6070342D01*
X4329772Y-6070366D01*
G37*
G36*
X4332801Y-3927717D02*
G01*
X4329772Y-3929634D01*
X3000000Y-3000000D01*
X4332801Y-3927717D01*
G37*
G36*
X4332801Y-6072283D02*
G01*
X3000000Y-7000000D01*
X4329772Y-6070366D01*
X4332801Y-6072283D01*
G37*
G36*
X4340329Y-3923070D02*
G01*
X4332801Y-3927717D01*
X3000000Y-3000000D01*
X4340329Y-3923070D01*
G37*
G36*
X4340329Y-6076930D02*
G01*
X3000000Y-7000000D01*
X4332801Y-6072283D01*
X4340329Y-6076930D01*
G37*
G36*
X4343399Y-3921221D02*
G01*
X4340329Y-3923070D01*
X3000000Y-3000000D01*
X4343399Y-3921221D01*
G37*
G36*
X4343399Y-6078779D02*
G01*
X3000000Y-7000000D01*
X4340329Y-6076930D01*
X4343399Y-6078779D01*
G37*
G36*
X4343437Y-3921198D02*
G01*
X4343399Y-3921221D01*
X3000000Y-3000000D01*
X4343437Y-3921198D01*
G37*
G36*
X4343437Y-6078802D02*
G01*
X3000000Y-7000000D01*
X4343399Y-6078779D01*
X4343437Y-6078802D01*
G37*
G36*
X4346548Y-3919418D02*
G01*
X4343437Y-3921198D01*
X3000000Y-3000000D01*
X4346548Y-3919418D01*
G37*
G36*
X4346548Y-6080582D02*
G01*
X3000000Y-7000000D01*
X4343437Y-6078802D01*
X4346548Y-6080582D01*
G37*
G36*
X4423806Y-3876319D02*
G01*
X4346548Y-3919418D01*
X3000000Y-3000000D01*
X4423806Y-3876319D01*
G37*
G36*
X4423806Y-6123681D02*
G01*
X3000000Y-7000000D01*
X4346548Y-6080582D01*
X4423806Y-6123681D01*
G37*
G36*
X4426955Y-3874608D02*
G01*
X4423806Y-3876319D01*
X3000000Y-3000000D01*
X4426955Y-3874608D01*
G37*
G36*
X4426955Y-6125392D02*
G01*
X3000000Y-7000000D01*
X4423806Y-6123681D01*
X4426955Y-6125392D01*
G37*
G36*
X4426994Y-3874587D02*
G01*
X4426955Y-3874608D01*
X3000000Y-3000000D01*
X4426994Y-3874587D01*
G37*
G36*
X4426994Y-6125413D02*
G01*
X3000000Y-7000000D01*
X4426955Y-6125392D01*
X4426994Y-6125413D01*
G37*
G36*
X4430180Y-3872946D02*
G01*
X4426994Y-3874587D01*
X3000000Y-3000000D01*
X4430180Y-3872946D01*
G37*
G36*
X4430180Y-6127054D02*
G01*
X3000000Y-7000000D01*
X4426994Y-6125413D01*
X4430180Y-6127054D01*
G37*
G36*
X4438089Y-3868982D02*
G01*
X4430180Y-3872946D01*
X3000000Y-3000000D01*
X4438089Y-3868982D01*
G37*
G36*
X4438089Y-6131018D02*
G01*
X3000000Y-7000000D01*
X4430180Y-6127054D01*
X4438089Y-6131018D01*
G37*
G36*
X4441311Y-3867412D02*
G01*
X4438089Y-3868982D01*
X3000000Y-3000000D01*
X4441311Y-3867412D01*
G37*
G36*
X4441311Y-6132588D02*
G01*
X3000000Y-7000000D01*
X4438089Y-6131018D01*
X4441311Y-6132588D01*
G37*
G36*
X4441351Y-3867393D02*
G01*
X4441311Y-3867412D01*
X3000000Y-3000000D01*
X4441351Y-3867393D01*
G37*
G36*
X4441351Y-6132607D02*
G01*
X3000000Y-7000000D01*
X4441311Y-6132588D01*
X4441351Y-6132607D01*
G37*
G36*
X4444607Y-3865894D02*
G01*
X4441351Y-3867393D01*
X3000000Y-3000000D01*
X4444607Y-3865894D01*
G37*
G36*
X4444607Y-6134106D02*
G01*
X3000000Y-7000000D01*
X4441351Y-6132607D01*
X4444607Y-6134106D01*
G37*
G36*
X4525372Y-3829792D02*
G01*
X4444607Y-3865894D01*
X3000000Y-3000000D01*
X4525372Y-3829792D01*
G37*
G36*
X4525372Y-6170208D02*
G01*
X3000000Y-7000000D01*
X4444607Y-6134106D01*
X4525372Y-6170208D01*
G37*
G36*
X4528660Y-3828366D02*
G01*
X4525372Y-3829792D01*
X3000000Y-3000000D01*
X4528660Y-3828366D01*
G37*
G36*
X4528660Y-6171634D02*
G01*
X3000000Y-7000000D01*
X4525372Y-6170208D01*
X4528660Y-6171634D01*
G37*
G36*
X4528701Y-3828349D02*
G01*
X4528660Y-3828366D01*
X3000000Y-3000000D01*
X4528701Y-3828349D01*
G37*
G36*
X4528701Y-6171651D02*
G01*
X3000000Y-7000000D01*
X4528660Y-6171634D01*
X4528701Y-6171651D01*
G37*
G36*
X4532019Y-3826996D02*
G01*
X4528701Y-3828349D01*
X3000000Y-3000000D01*
X4532019Y-3826996D01*
G37*
G36*
X4532019Y-6173004D02*
G01*
X3000000Y-7000000D01*
X4528701Y-6171651D01*
X4532019Y-6173004D01*
G37*
G36*
X4540248Y-3823746D02*
G01*
X4532019Y-3826996D01*
X3000000Y-3000000D01*
X4540248Y-3823746D01*
G37*
G36*
X4540248Y-6176254D02*
G01*
X3000000Y-7000000D01*
X4532019Y-6173004D01*
X4540248Y-6176254D01*
G37*
G36*
X4543596Y-3822467D02*
G01*
X4540248Y-3823746D01*
X3000000Y-3000000D01*
X4543596Y-3822467D01*
G37*
G36*
X4543596Y-6177533D02*
G01*
X3000000Y-7000000D01*
X4540248Y-6176254D01*
X4543596Y-6177533D01*
G37*
G36*
X4543637Y-3822452D02*
G01*
X4543596Y-3822467D01*
X3000000Y-3000000D01*
X4543637Y-3822452D01*
G37*
G36*
X4543637Y-6177548D02*
G01*
X3000000Y-7000000D01*
X4543596Y-6177533D01*
X4543637Y-6177548D01*
G37*
G36*
X4547012Y-3821246D02*
G01*
X4543637Y-3822452D01*
X3000000Y-3000000D01*
X4547012Y-3821246D01*
G37*
G36*
X4547012Y-6178754D02*
G01*
X3000000Y-7000000D01*
X4543637Y-6177548D01*
X4547012Y-6178754D01*
G37*
G36*
X4630652Y-3792424D02*
G01*
X4547012Y-3821246D01*
X3000000Y-3000000D01*
X4630652Y-3792424D01*
G37*
G36*
X4630652Y-6207576D02*
G01*
X3000000Y-7000000D01*
X4547012Y-6178754D01*
X4630652Y-6207576D01*
G37*
G36*
X4634053Y-3791294D02*
G01*
X4630652Y-3792424D01*
X3000000Y-3000000D01*
X4634053Y-3791294D01*
G37*
G36*
X4634053Y-6208706D02*
G01*
X3000000Y-7000000D01*
X4630652Y-6207576D01*
X4634053Y-6208706D01*
G37*
G36*
X4634096Y-3791280D02*
G01*
X4634053Y-3791294D01*
X3000000Y-3000000D01*
X4634096Y-3791280D01*
G37*
G36*
X4634096Y-6208720D02*
G01*
X3000000Y-7000000D01*
X4634053Y-6208706D01*
X4634096Y-6208720D01*
G37*
G36*
X4637521Y-3790226D02*
G01*
X4634096Y-3791280D01*
X3000000Y-3000000D01*
X4637521Y-3790226D01*
G37*
G36*
X4637521Y-6209774D02*
G01*
X3000000Y-7000000D01*
X4634096Y-6208720D01*
X4637521Y-6209774D01*
G37*
G36*
X4646004Y-3787716D02*
G01*
X4637521Y-3790226D01*
X3000000Y-3000000D01*
X4646004Y-3787716D01*
G37*
G36*
X4646004Y-6212284D02*
G01*
X3000000Y-7000000D01*
X4637521Y-6209774D01*
X4646004Y-6212284D01*
G37*
G36*
X4649452Y-3786738D02*
G01*
X4646004Y-3787716D01*
X3000000Y-3000000D01*
X4649452Y-3786738D01*
G37*
G36*
X4649452Y-6213262D02*
G01*
X3000000Y-7000000D01*
X4646004Y-6212284D01*
X4649452Y-6213262D01*
G37*
G36*
X4649495Y-3786726D02*
G01*
X4649452Y-3786738D01*
X3000000Y-3000000D01*
X4649495Y-3786726D01*
G37*
G36*
X4649495Y-6213274D02*
G01*
X3000000Y-7000000D01*
X4649452Y-6213262D01*
X4649495Y-6213274D01*
G37*
G36*
X4652963Y-3785824D02*
G01*
X4649495Y-3786726D01*
X3000000Y-3000000D01*
X4652963Y-3785824D01*
G37*
G36*
X4652963Y-6214176D02*
G01*
X3000000Y-7000000D01*
X4649495Y-6213274D01*
X4652963Y-6214176D01*
G37*
G36*
X4738823Y-3764506D02*
G01*
X4652963Y-3785824D01*
X3000000Y-3000000D01*
X4738823Y-3764506D01*
G37*
G36*
X4738823Y-6235494D02*
G01*
X3000000Y-7000000D01*
X4652963Y-6214176D01*
X4738823Y-6235494D01*
G37*
G36*
X4742311Y-3763681D02*
G01*
X4738823Y-3764506D01*
X3000000Y-3000000D01*
X4742311Y-3763681D01*
G37*
G36*
X4742311Y-6236319D02*
G01*
X3000000Y-7000000D01*
X4738823Y-6235494D01*
X4742311Y-6236319D01*
G37*
G36*
X4742354Y-3763672D02*
G01*
X4742311Y-3763681D01*
X3000000Y-3000000D01*
X4742354Y-3763672D01*
G37*
G36*
X4742354Y-6236328D02*
G01*
X3000000Y-7000000D01*
X4742311Y-6236319D01*
X4742354Y-6236328D01*
G37*
G36*
X4745859Y-3762924D02*
G01*
X4742354Y-3763672D01*
X3000000Y-3000000D01*
X4745859Y-3762924D01*
G37*
G36*
X4745859Y-6237076D02*
G01*
X3000000Y-7000000D01*
X4742354Y-6236328D01*
X4745859Y-6237076D01*
G37*
G36*
X4754531Y-3761174D02*
G01*
X4745859Y-3762924D01*
X3000000Y-3000000D01*
X4754531Y-3761174D01*
G37*
G36*
X4754531Y-6238826D02*
G01*
X3000000Y-7000000D01*
X4745859Y-6237076D01*
X4754531Y-6238826D01*
G37*
G36*
X4758052Y-3760504D02*
G01*
X4754531Y-3761174D01*
X3000000Y-3000000D01*
X4758052Y-3760504D01*
G37*
G36*
X4758052Y-6239496D02*
G01*
X3000000Y-7000000D01*
X4754531Y-6238826D01*
X4758052Y-6239496D01*
G37*
G36*
X4758096Y-3760496D02*
G01*
X4758052Y-3760504D01*
X3000000Y-3000000D01*
X4758096Y-3760496D01*
G37*
G36*
X4758096Y-6239504D02*
G01*
X3000000Y-7000000D01*
X4758052Y-6239496D01*
X4758096Y-6239504D01*
G37*
G36*
X4761630Y-3759904D02*
G01*
X4758096Y-3760496D01*
X3000000Y-3000000D01*
X4761630Y-3759904D01*
G37*
G36*
X4761630Y-6240096D02*
G01*
X3000000Y-7000000D01*
X4758096Y-6239504D01*
X4761630Y-6240096D01*
G37*
G36*
X4849038Y-3746258D02*
G01*
X4761630Y-3759904D01*
X3000000Y-3000000D01*
X4849038Y-3746258D01*
G37*
G36*
X4849038Y-6253742D02*
G01*
X3000000Y-7000000D01*
X4761630Y-6240096D01*
X4849038Y-6253742D01*
G37*
G36*
X4852585Y-3745745D02*
G01*
X4849038Y-3746258D01*
X3000000Y-3000000D01*
X4852585Y-3745745D01*
G37*
G36*
X4852585Y-6254255D02*
G01*
X3000000Y-7000000D01*
X4849038Y-6253742D01*
X4852585Y-6254255D01*
G37*
G36*
X4852629Y-3745739D02*
G01*
X4852585Y-3745745D01*
X3000000Y-3000000D01*
X4852629Y-3745739D01*
G37*
G36*
X4852629Y-6254261D02*
G01*
X3000000Y-7000000D01*
X4852585Y-6254255D01*
X4852629Y-6254261D01*
G37*
G36*
X4856187Y-3745304D02*
G01*
X4852629Y-3745739D01*
X3000000Y-3000000D01*
X4856187Y-3745304D01*
G37*
G36*
X4856187Y-6254696D02*
G01*
X3000000Y-7000000D01*
X4852629Y-6254261D01*
X4856187Y-6254696D01*
G37*
G36*
X4864979Y-3744327D02*
G01*
X4856187Y-3745304D01*
X3000000Y-3000000D01*
X4864979Y-3744327D01*
G37*
G36*
X4864979Y-6255673D02*
G01*
X3000000Y-7000000D01*
X4856187Y-6254696D01*
X4864979Y-6255673D01*
G37*
G36*
X4868546Y-3743971D02*
G01*
X4864979Y-3744327D01*
X3000000Y-3000000D01*
X4868546Y-3743971D01*
G37*
G36*
X4868546Y-6256029D02*
G01*
X3000000Y-7000000D01*
X4864979Y-6255673D01*
X4868546Y-6256029D01*
G37*
G36*
X4868590Y-3743967D02*
G01*
X4868546Y-3743971D01*
X3000000Y-3000000D01*
X4868590Y-3743967D01*
G37*
G36*
X4868590Y-6256033D02*
G01*
X3000000Y-7000000D01*
X4868546Y-6256029D01*
X4868590Y-6256033D01*
G37*
G36*
X4872163Y-3743690D02*
G01*
X4868590Y-3743967D01*
X3000000Y-3000000D01*
X4872163Y-3743690D01*
G37*
G36*
X4872163Y-6256310D02*
G01*
X3000000Y-7000000D01*
X4868590Y-6256033D01*
X4872163Y-6256310D01*
G37*
G36*
X4960435Y-3737822D02*
G01*
X4872163Y-3743690D01*
X3000000Y-3000000D01*
X4960435Y-3737822D01*
G37*
G36*
X4960435Y-6262178D02*
G01*
X3000000Y-7000000D01*
X4872163Y-6256310D01*
X4960435Y-6262178D01*
G37*
G36*
X4964013Y-3737624D02*
G01*
X4960435Y-3737822D01*
X3000000Y-3000000D01*
X4964013Y-3737624D01*
G37*
G36*
X4964013Y-6262376D02*
G01*
X3000000Y-7000000D01*
X4960435Y-6262178D01*
X4964013Y-6262376D01*
G37*
G36*
X4964058Y-3737622D02*
G01*
X4964013Y-3737624D01*
X3000000Y-3000000D01*
X4964058Y-3737622D01*
G37*
G36*
X4964058Y-6262378D02*
G01*
X3000000Y-7000000D01*
X4964013Y-6262376D01*
X4964058Y-6262378D01*
G37*
G36*
X4967640Y-3737503D02*
G01*
X4964058Y-3737622D01*
X3000000Y-3000000D01*
X4967640Y-3737503D01*
G37*
G36*
X4967640Y-6262497D02*
G01*
X3000000Y-7000000D01*
X4964058Y-6262378D01*
X4967640Y-6262497D01*
G37*
G36*
X4976484Y-3737308D02*
G01*
X4967640Y-3737503D01*
X3000000Y-3000000D01*
X4976484Y-3737308D01*
G37*
G36*
X4976484Y-6262692D02*
G01*
X3000000Y-7000000D01*
X4967640Y-6262497D01*
X4976484Y-6262692D01*
G37*
G36*
X4980068Y-3737268D02*
G01*
X4976484Y-3737308D01*
X3000000Y-3000000D01*
X4980068Y-3737268D01*
G37*
G36*
X4980068Y-6262732D02*
G01*
X3000000Y-7000000D01*
X4976484Y-6262692D01*
X4980068Y-6262732D01*
G37*
G36*
X4980112Y-3737268D02*
G01*
X4980068Y-3737268D01*
X3000000Y-3000000D01*
X4980112Y-3737268D01*
G37*
G36*
X3000000Y-7000000D02*
G01*
X4980068Y-6262732D01*
X4980112Y-6262732D01*
X3000000Y-7000000D01*
G37*
G36*
X4980112Y-3737268D02*
G01*
X3000000Y-3000000D01*
X7000000Y-3000000D01*
X4980112Y-3737268D01*
G37*
G36*
X7000000Y-7000000D02*
G01*
X3000000Y-7000000D01*
X4980112Y-6262732D01*
X7000000Y-7000000D01*
G37*
G36*
X4983696Y-3737308D02*
G01*
X4980112Y-3737268D01*
X7000000Y-3000000D01*
X4983696Y-3737308D01*
G37*
G36*
X7000000Y-7000000D02*
G01*
X4980112Y-6262732D01*
X4983696Y-6262692D01*
X7000000Y-7000000D01*
G37*
G36*
X5072141Y-3739265D02*
G01*
X4983696Y-3737308D01*
X7000000Y-3000000D01*
X5072141Y-3739265D01*
G37*
G36*
X7000000Y-7000000D02*
G01*
X4983696Y-6262692D01*
X5072141Y-6260735D01*
X7000000Y-7000000D01*
G37*
G36*
X5075723Y-3739384D02*
G01*
X5072141Y-3739265D01*
X7000000Y-3000000D01*
X5075723Y-3739384D01*
G37*
G36*
X7000000Y-7000000D02*
G01*
X5072141Y-6260735D01*
X5075723Y-6260616D01*
X7000000Y-7000000D01*
G37*
G36*
X5075767Y-3739386D02*
G01*
X5075723Y-3739384D01*
X7000000Y-3000000D01*
X5075767Y-3739386D01*
G37*
G36*
X7000000Y-7000000D02*
G01*
X5075723Y-6260616D01*
X5075767Y-6260614D01*
X7000000Y-7000000D01*
G37*
G36*
X5079346Y-3739584D02*
G01*
X5075767Y-3739386D01*
X7000000Y-3000000D01*
X5079346Y-3739584D01*
G37*
G36*
X7000000Y-7000000D02*
G01*
X5075767Y-6260614D01*
X5079346Y-6260416D01*
X7000000Y-7000000D01*
G37*
G36*
X5088173Y-3740170D02*
G01*
X5079346Y-3739584D01*
X7000000Y-3000000D01*
X5088173Y-3740170D01*
G37*
G36*
X7000000Y-7000000D02*
G01*
X5079346Y-6260416D01*
X5088173Y-6259830D01*
X7000000Y-7000000D01*
G37*
G36*
X5091746Y-3740448D02*
G01*
X5088173Y-3740170D01*
X7000000Y-3000000D01*
X5091746Y-3740448D01*
G37*
G36*
X7000000Y-7000000D02*
G01*
X5088173Y-6259830D01*
X5091746Y-6259552D01*
X7000000Y-7000000D01*
G37*
G36*
X5091790Y-3740452D02*
G01*
X5091746Y-3740448D01*
X7000000Y-3000000D01*
X5091790Y-3740452D01*
G37*
G36*
X7000000Y-7000000D02*
G01*
X5091746Y-6259552D01*
X5091790Y-6259548D01*
X7000000Y-7000000D01*
G37*
G36*
X5095357Y-3740808D02*
G01*
X5091790Y-3740452D01*
X7000000Y-3000000D01*
X5095357Y-3740808D01*
G37*
G36*
X7000000Y-7000000D02*
G01*
X5091790Y-6259548D01*
X5095357Y-6259192D01*
X7000000Y-7000000D01*
G37*
G36*
X5183283Y-3750574D02*
G01*
X5095357Y-3740808D01*
X7000000Y-3000000D01*
X5183283Y-3750574D01*
G37*
G36*
X7000000Y-7000000D02*
G01*
X5095357Y-6259192D01*
X5183283Y-6249426D01*
X7000000Y-7000000D01*
G37*
G36*
X5186840Y-3751009D02*
G01*
X5183283Y-3750574D01*
X7000000Y-3000000D01*
X5186840Y-3751009D01*
G37*
G36*
X7000000Y-7000000D02*
G01*
X5183283Y-6249426D01*
X5186840Y-6248991D01*
X7000000Y-7000000D01*
G37*
G36*
X5186884Y-3751015D02*
G01*
X5186840Y-3751009D01*
X7000000Y-3000000D01*
X5186884Y-3751015D01*
G37*
G36*
X7000000Y-7000000D02*
G01*
X5186840Y-6248991D01*
X5186884Y-6248985D01*
X7000000Y-7000000D01*
G37*
G36*
X5190431Y-3751529D02*
G01*
X5186884Y-3751015D01*
X7000000Y-3000000D01*
X5190431Y-3751529D01*
G37*
G36*
X7000000Y-7000000D02*
G01*
X5186884Y-6248985D01*
X5190431Y-6248471D01*
X7000000Y-7000000D01*
G37*
G36*
X5199172Y-3752893D02*
G01*
X5190431Y-3751529D01*
X7000000Y-3000000D01*
X5199172Y-3752893D01*
G37*
G36*
X7000000Y-7000000D02*
G01*
X5190431Y-6248471D01*
X5199172Y-6247107D01*
X7000000Y-7000000D01*
G37*
G36*
X5202707Y-3753485D02*
G01*
X5199172Y-3752893D01*
X7000000Y-3000000D01*
X5202707Y-3753485D01*
G37*
G36*
X7000000Y-7000000D02*
G01*
X5199172Y-6247107D01*
X5202707Y-6246515D01*
X7000000Y-7000000D01*
G37*
G36*
X5202750Y-3753493D02*
G01*
X5202707Y-3753485D01*
X7000000Y-3000000D01*
X5202750Y-3753493D01*
G37*
G36*
X7000000Y-7000000D02*
G01*
X5202707Y-6246515D01*
X5202750Y-6246507D01*
X7000000Y-7000000D01*
G37*
G36*
X5206271Y-3754163D02*
G01*
X5202750Y-3753493D01*
X7000000Y-3000000D01*
X5206271Y-3754163D01*
G37*
G36*
X7000000Y-7000000D02*
G01*
X5202750Y-6246507D01*
X5206271Y-6245837D01*
X7000000Y-7000000D01*
G37*
G36*
X5292990Y-3771662D02*
G01*
X5206271Y-3754163D01*
X7000000Y-3000000D01*
X5292990Y-3771662D01*
G37*
G36*
X7000000Y-7000000D02*
G01*
X5206271Y-6245837D01*
X5292990Y-6228338D01*
X7000000Y-7000000D01*
G37*
G36*
X5296495Y-3772410D02*
G01*
X5292990Y-3771662D01*
X7000000Y-3000000D01*
X5296495Y-3772410D01*
G37*
G36*
X7000000Y-7000000D02*
G01*
X5292990Y-6228338D01*
X5296495Y-6227590D01*
X7000000Y-7000000D01*
G37*
G36*
X5296538Y-3772419D02*
G01*
X5296495Y-3772410D01*
X7000000Y-3000000D01*
X5296538Y-3772419D01*
G37*
G36*
X7000000Y-7000000D02*
G01*
X5296495Y-6227590D01*
X5296538Y-6227581D01*
X7000000Y-7000000D01*
G37*
G36*
X5300026Y-3773244D02*
G01*
X5296538Y-3772419D01*
X7000000Y-3000000D01*
X5300026Y-3773244D01*
G37*
G36*
X7000000Y-7000000D02*
G01*
X5296538Y-6227581D01*
X5300026Y-6226756D01*
X7000000Y-7000000D01*
G37*
G36*
X5308612Y-3775376D02*
G01*
X5300026Y-3773244D01*
X7000000Y-3000000D01*
X5308612Y-3775376D01*
G37*
G36*
X7000000Y-7000000D02*
G01*
X5300026Y-6226756D01*
X5308612Y-6224624D01*
X7000000Y-7000000D01*
G37*
G36*
X5312081Y-3776278D02*
G01*
X5308612Y-3775376D01*
X7000000Y-3000000D01*
X5312081Y-3776278D01*
G37*
G36*
X7000000Y-7000000D02*
G01*
X5308612Y-6224624D01*
X5312081Y-6223722D01*
X7000000Y-7000000D01*
G37*
G36*
X5312123Y-3776290D02*
G01*
X5312081Y-3776278D01*
X7000000Y-3000000D01*
X5312123Y-3776290D01*
G37*
G36*
X7000000Y-7000000D02*
G01*
X5312081Y-6223722D01*
X5312123Y-6223710D01*
X7000000Y-7000000D01*
G37*
G36*
X5315571Y-3777268D02*
G01*
X5312123Y-3776290D01*
X7000000Y-3000000D01*
X5315571Y-3777268D01*
G37*
G36*
X7000000Y-7000000D02*
G01*
X5312123Y-6223710D01*
X5315571Y-6222732D01*
X7000000Y-7000000D01*
G37*
G36*
X5400404Y-3802363D02*
G01*
X5315571Y-3777268D01*
X7000000Y-3000000D01*
X5400404Y-3802363D01*
G37*
G36*
X7000000Y-7000000D02*
G01*
X5315571Y-6222732D01*
X5400404Y-6197637D01*
X7000000Y-7000000D01*
G37*
G36*
X5403829Y-3803418D02*
G01*
X5400404Y-3802363D01*
X7000000Y-3000000D01*
X5403829Y-3803418D01*
G37*
G36*
X7000000Y-7000000D02*
G01*
X5400404Y-6197637D01*
X5403829Y-6196582D01*
X7000000Y-7000000D01*
G37*
G36*
X5403872Y-3803431D02*
G01*
X5403829Y-3803418D01*
X7000000Y-3000000D01*
X5403872Y-3803431D01*
G37*
G36*
X7000000Y-7000000D02*
G01*
X5403829Y-6196582D01*
X5403872Y-6196569D01*
X7000000Y-7000000D01*
G37*
G36*
X5407273Y-3804561D02*
G01*
X5403872Y-3803431D01*
X7000000Y-3000000D01*
X5407273Y-3804561D01*
G37*
G36*
X7000000Y-7000000D02*
G01*
X5403872Y-6196569D01*
X5407273Y-6195439D01*
X7000000Y-7000000D01*
G37*
G36*
X5415637Y-3807443D02*
G01*
X5407273Y-3804561D01*
X7000000Y-3000000D01*
X5415637Y-3807443D01*
G37*
G36*
X7000000Y-7000000D02*
G01*
X5407273Y-6195439D01*
X5415637Y-6192557D01*
X7000000Y-7000000D01*
G37*
G36*
X5419012Y-3808649D02*
G01*
X5415637Y-3807443D01*
X7000000Y-3000000D01*
X5419012Y-3808649D01*
G37*
G36*
X7000000Y-7000000D02*
G01*
X5415637Y-6192557D01*
X5419012Y-6191351D01*
X7000000Y-7000000D01*
G37*
G36*
X5419054Y-3808664D02*
G01*
X5419012Y-3808649D01*
X7000000Y-3000000D01*
X5419054Y-3808664D01*
G37*
G36*
X7000000Y-7000000D02*
G01*
X5419012Y-6191351D01*
X5419054Y-6191336D01*
X7000000Y-7000000D01*
G37*
G36*
X5422401Y-3809943D02*
G01*
X5419054Y-3808664D01*
X7000000Y-3000000D01*
X5422401Y-3809943D01*
G37*
G36*
X7000000Y-7000000D02*
G01*
X5419054Y-6191336D01*
X5422401Y-6190057D01*
X7000000Y-7000000D01*
G37*
G36*
X5504684Y-3842437D02*
G01*
X5422401Y-3809943D01*
X7000000Y-3000000D01*
X5504684Y-3842437D01*
G37*
G36*
X7000000Y-7000000D02*
G01*
X5422401Y-6190057D01*
X5504684Y-6157563D01*
X7000000Y-7000000D01*
G37*
G36*
X5508003Y-3843791D02*
G01*
X5504684Y-3842437D01*
X7000000Y-3000000D01*
X5508003Y-3843791D01*
G37*
G36*
X7000000Y-7000000D02*
G01*
X5504684Y-6157563D01*
X5508003Y-6156209D01*
X7000000Y-7000000D01*
G37*
G36*
X5508044Y-3843808D02*
G01*
X5508003Y-3843791D01*
X7000000Y-3000000D01*
X5508044Y-3843808D01*
G37*
G36*
X7000000Y-7000000D02*
G01*
X5508003Y-6156209D01*
X5508044Y-6156192D01*
X7000000Y-7000000D01*
G37*
G36*
X5511332Y-3845234D02*
G01*
X5508044Y-3843808D01*
X7000000Y-3000000D01*
X5511332Y-3845234D01*
G37*
G36*
X7000000Y-7000000D02*
G01*
X5508044Y-6156192D01*
X5511332Y-6154766D01*
X7000000Y-7000000D01*
G37*
G36*
X5519408Y-3848844D02*
G01*
X5511332Y-3845234D01*
X7000000Y-3000000D01*
X5519408Y-3848844D01*
G37*
G36*
X7000000Y-7000000D02*
G01*
X5511332Y-6154766D01*
X5519408Y-6151156D01*
X7000000Y-7000000D01*
G37*
G36*
X5522664Y-3850343D02*
G01*
X5519408Y-3848844D01*
X7000000Y-3000000D01*
X5522664Y-3850343D01*
G37*
G36*
X7000000Y-7000000D02*
G01*
X5519408Y-6151156D01*
X5522664Y-6149657D01*
X7000000Y-7000000D01*
G37*
G36*
X5522704Y-3850362D02*
G01*
X5522664Y-3850343D01*
X7000000Y-3000000D01*
X5522704Y-3850362D01*
G37*
G36*
X7000000Y-7000000D02*
G01*
X5522664Y-6149657D01*
X5522704Y-6149638D01*
X7000000Y-7000000D01*
G37*
G36*
X5525926Y-3851932D02*
G01*
X5522704Y-3850362D01*
X7000000Y-3000000D01*
X5525926Y-3851932D01*
G37*
G36*
X7000000Y-7000000D02*
G01*
X5522704Y-6149638D01*
X5525926Y-6148068D01*
X7000000Y-7000000D01*
G37*
G36*
X5605015Y-3891571D02*
G01*
X5525926Y-3851932D01*
X7000000Y-3000000D01*
X5605015Y-3891571D01*
G37*
G36*
X7000000Y-7000000D02*
G01*
X5525926Y-6148068D01*
X5605015Y-6108429D01*
X7000000Y-7000000D01*
G37*
G36*
X5608201Y-3893212D02*
G01*
X5605015Y-3891571D01*
X7000000Y-3000000D01*
X5608201Y-3893212D01*
G37*
G36*
X7000000Y-7000000D02*
G01*
X5605015Y-6108429D01*
X5608201Y-6106788D01*
X7000000Y-7000000D01*
G37*
G36*
X5608240Y-3893233D02*
G01*
X5608201Y-3893212D01*
X7000000Y-3000000D01*
X5608240Y-3893233D01*
G37*
G36*
X7000000Y-7000000D02*
G01*
X5608201Y-6106788D01*
X5608240Y-6106767D01*
X7000000Y-7000000D01*
G37*
G36*
X5611389Y-3894944D02*
G01*
X5608240Y-3893233D01*
X7000000Y-3000000D01*
X5611389Y-3894944D01*
G37*
G36*
X7000000Y-7000000D02*
G01*
X5608240Y-6106767D01*
X5611389Y-6105056D01*
X7000000Y-7000000D01*
G37*
G36*
X5619115Y-3899254D02*
G01*
X5611389Y-3894944D01*
X7000000Y-3000000D01*
X5619115Y-3899254D01*
G37*
G36*
X7000000Y-7000000D02*
G01*
X5611389Y-6105056D01*
X5619115Y-6100746D01*
X7000000Y-7000000D01*
G37*
G36*
X5622226Y-3901035D02*
G01*
X5619115Y-3899254D01*
X7000000Y-3000000D01*
X5622226Y-3901035D01*
G37*
G36*
X7000000Y-7000000D02*
G01*
X5619115Y-6100746D01*
X5622226Y-6098965D01*
X7000000Y-7000000D01*
G37*
G36*
X5622264Y-3901057D02*
G01*
X5622226Y-3901035D01*
X7000000Y-3000000D01*
X5622264Y-3901057D01*
G37*
G36*
X7000000Y-7000000D02*
G01*
X5622226Y-6098965D01*
X5622264Y-6098943D01*
X7000000Y-7000000D01*
G37*
G36*
X5625334Y-3902906D02*
G01*
X5622264Y-3901057D01*
X7000000Y-3000000D01*
X5625334Y-3902906D01*
G37*
G36*
X7000000Y-7000000D02*
G01*
X5622264Y-6098943D01*
X5625334Y-6097094D01*
X7000000Y-7000000D01*
G37*
G36*
X5700611Y-3949380D02*
G01*
X5625334Y-3902906D01*
X7000000Y-3000000D01*
X5700611Y-3949380D01*
G37*
G36*
X7000000Y-7000000D02*
G01*
X5625334Y-6097094D01*
X5700611Y-6050620D01*
X7000000Y-7000000D01*
G37*
G36*
X5703639Y-3951296D02*
G01*
X5700611Y-3949380D01*
X7000000Y-3000000D01*
X5703639Y-3951296D01*
G37*
G36*
X7000000Y-7000000D02*
G01*
X5700611Y-6050620D01*
X5703639Y-6048704D01*
X7000000Y-7000000D01*
G37*
G36*
X5703676Y-3951320D02*
G01*
X5703639Y-3951296D01*
X7000000Y-3000000D01*
X5703676Y-3951320D01*
G37*
G36*
X7000000Y-7000000D02*
G01*
X5703639Y-6048704D01*
X5703676Y-6048680D01*
X7000000Y-7000000D01*
G37*
G36*
X5706662Y-3953303D02*
G01*
X5703676Y-3951320D01*
X7000000Y-3000000D01*
X5706662Y-3953303D01*
G37*
G36*
X7000000Y-7000000D02*
G01*
X5703676Y-6048680D01*
X5706662Y-6046697D01*
X7000000Y-7000000D01*
G37*
G36*
X5713977Y-3958279D02*
G01*
X5706662Y-3953303D01*
X7000000Y-3000000D01*
X5713977Y-3958279D01*
G37*
G36*
X7000000Y-7000000D02*
G01*
X5706662Y-6046697D01*
X5713977Y-6041721D01*
X7000000Y-7000000D01*
G37*
G36*
X5716917Y-3960328D02*
G01*
X5713977Y-3958279D01*
X7000000Y-3000000D01*
X5716917Y-3960328D01*
G37*
G36*
X7000000Y-7000000D02*
G01*
X5713977Y-6041721D01*
X5716917Y-6039672D01*
X7000000Y-7000000D01*
G37*
G36*
X5716953Y-3960353D02*
G01*
X5716917Y-3960328D01*
X7000000Y-3000000D01*
X5716953Y-3960353D01*
G37*
G36*
X7000000Y-7000000D02*
G01*
X5716917Y-6039672D01*
X5716953Y-6039647D01*
X7000000Y-7000000D01*
G37*
G36*
X5719848Y-3962466D02*
G01*
X5716953Y-3960353D01*
X7000000Y-3000000D01*
X5719848Y-3962466D01*
G37*
G36*
X7000000Y-7000000D02*
G01*
X5716953Y-6039647D01*
X5719848Y-6037534D01*
X7000000Y-7000000D01*
G37*
G36*
X5790723Y-4015411D02*
G01*
X5719848Y-3962466D01*
X7000000Y-3000000D01*
X5790723Y-4015411D01*
G37*
G36*
X7000000Y-7000000D02*
G01*
X5719848Y-6037534D01*
X5790723Y-5984589D01*
X7000000Y-7000000D01*
G37*
G36*
X5793570Y-4017588D02*
G01*
X5790723Y-4015411D01*
X7000000Y-3000000D01*
X5793570Y-4017588D01*
G37*
G36*
X7000000Y-7000000D02*
G01*
X5790723Y-5984589D01*
X5793570Y-5982412D01*
X7000000Y-7000000D01*
G37*
G36*
X5793605Y-4017615D02*
G01*
X5793570Y-4017588D01*
X7000000Y-3000000D01*
X5793605Y-4017615D01*
G37*
G36*
X7000000Y-7000000D02*
G01*
X5793570Y-5982412D01*
X5793605Y-5982385D01*
X7000000Y-7000000D01*
G37*
G36*
X5796404Y-4019854D02*
G01*
X5793605Y-4017615D01*
X7000000Y-3000000D01*
X5796404Y-4019854D01*
G37*
G36*
X7000000Y-7000000D02*
G01*
X5793605Y-5982385D01*
X5796404Y-5980146D01*
X7000000Y-7000000D01*
G37*
G36*
X5803250Y-4025457D02*
G01*
X5796404Y-4019854D01*
X7000000Y-3000000D01*
X5803250Y-4025457D01*
G37*
G36*
X7000000Y-7000000D02*
G01*
X5796404Y-5980146D01*
X5803250Y-5974543D01*
X7000000Y-7000000D01*
G37*
G36*
X5805998Y-4027757D02*
G01*
X5803250Y-4025457D01*
X7000000Y-3000000D01*
X5805998Y-4027757D01*
G37*
G36*
X7000000Y-7000000D02*
G01*
X5803250Y-5974543D01*
X5805998Y-5972243D01*
X7000000Y-7000000D01*
G37*
G36*
X5806032Y-4027786D02*
G01*
X5805998Y-4027757D01*
X7000000Y-3000000D01*
X5806032Y-4027786D01*
G37*
G36*
X7000000Y-7000000D02*
G01*
X5805998Y-5972243D01*
X5806032Y-5972214D01*
X7000000Y-7000000D01*
G37*
G36*
X5808729Y-4030147D02*
G01*
X5806032Y-4027786D01*
X7000000Y-3000000D01*
X5808729Y-4030147D01*
G37*
G36*
X7000000Y-7000000D02*
G01*
X5806032Y-5972214D01*
X5808729Y-5969853D01*
X7000000Y-7000000D01*
G37*
G36*
X5874647Y-4089148D02*
G01*
X5808729Y-4030147D01*
X7000000Y-3000000D01*
X5874647Y-4089148D01*
G37*
G36*
X7000000Y-7000000D02*
G01*
X5808729Y-5969853D01*
X5874647Y-5910852D01*
X7000000Y-7000000D01*
G37*
G36*
X5877291Y-4091568D02*
G01*
X5874647Y-4089148D01*
X7000000Y-3000000D01*
X5877291Y-4091568D01*
G37*
G36*
X7000000Y-7000000D02*
G01*
X5874647Y-5910852D01*
X5877291Y-5908432D01*
X7000000Y-7000000D01*
G37*
G36*
X5877323Y-4091598D02*
G01*
X5877291Y-4091568D01*
X7000000Y-3000000D01*
X5877323Y-4091598D01*
G37*
G36*
X7000000Y-7000000D02*
G01*
X5877291Y-5908432D01*
X5877323Y-5908402D01*
X7000000Y-7000000D01*
G37*
G36*
X5879913Y-4094076D02*
G01*
X5877323Y-4091598D01*
X7000000Y-3000000D01*
X5879913Y-4094076D01*
G37*
G36*
X7000000Y-7000000D02*
G01*
X5877323Y-5908402D01*
X5879913Y-5905924D01*
X7000000Y-7000000D01*
G37*
G36*
X5886237Y-4100262D02*
G01*
X5879913Y-4094076D01*
X7000000Y-3000000D01*
X5886237Y-4100262D01*
G37*
G36*
X7000000Y-7000000D02*
G01*
X5879913Y-5905924D01*
X5886237Y-5899738D01*
X7000000Y-7000000D01*
G37*
G36*
X5888771Y-4102796D02*
G01*
X5886237Y-4100262D01*
X7000000Y-3000000D01*
X5888771Y-4102796D01*
G37*
G36*
X7000000Y-7000000D02*
G01*
X5886237Y-5899738D01*
X5888771Y-5897204D01*
X7000000Y-7000000D01*
G37*
G36*
X5888802Y-4102828D02*
G01*
X5888771Y-4102796D01*
X7000000Y-3000000D01*
X5888802Y-4102828D01*
G37*
G36*
X7000000Y-7000000D02*
G01*
X5888771Y-5897204D01*
X5888802Y-5897172D01*
X7000000Y-7000000D01*
G37*
G36*
X5891280Y-4105417D02*
G01*
X5888802Y-4102828D01*
X7000000Y-3000000D01*
X5891280Y-4105417D01*
G37*
G36*
X7000000Y-7000000D02*
G01*
X5888802Y-5897172D01*
X5891280Y-5894583D01*
X7000000Y-7000000D01*
G37*
G36*
X5951725Y-4170014D02*
G01*
X5891280Y-4105417D01*
X7000000Y-3000000D01*
X5951725Y-4170014D01*
G37*
G36*
X7000000Y-7000000D02*
G01*
X5891280Y-5894583D01*
X5951725Y-5829986D01*
X7000000Y-7000000D01*
G37*
G36*
X5954145Y-4172658D02*
G01*
X5951725Y-4170014D01*
X7000000Y-3000000D01*
X5954145Y-4172658D01*
G37*
G36*
X7000000Y-7000000D02*
G01*
X5951725Y-5829986D01*
X5954145Y-5827342D01*
X7000000Y-7000000D01*
G37*
G36*
X5954174Y-4172691D02*
G01*
X5954145Y-4172658D01*
X7000000Y-3000000D01*
X5954174Y-4172691D01*
G37*
G36*
X7000000Y-7000000D02*
G01*
X5954145Y-5827342D01*
X5954174Y-5827309D01*
X7000000Y-7000000D01*
G37*
G36*
X5956535Y-4175388D02*
G01*
X5954174Y-4172691D01*
X7000000Y-3000000D01*
X5956535Y-4175388D01*
G37*
G36*
X7000000Y-7000000D02*
G01*
X5954174Y-5827309D01*
X5956535Y-5824612D01*
X7000000Y-7000000D01*
G37*
G36*
X5962288Y-4182108D02*
G01*
X5956535Y-4175388D01*
X7000000Y-3000000D01*
X5962288Y-4182108D01*
G37*
G36*
X7000000Y-7000000D02*
G01*
X5956535Y-5824612D01*
X5962288Y-5817892D01*
X7000000Y-7000000D01*
G37*
G36*
X5964588Y-4184857D02*
G01*
X5962288Y-4182108D01*
X7000000Y-3000000D01*
X5964588Y-4184857D01*
G37*
G36*
X7000000Y-7000000D02*
G01*
X5962288Y-5817892D01*
X5964588Y-5815143D01*
X7000000Y-7000000D01*
G37*
G36*
X5964616Y-4184891D02*
G01*
X5964588Y-4184857D01*
X7000000Y-3000000D01*
X5964616Y-4184891D01*
G37*
G36*
X7000000Y-7000000D02*
G01*
X5964588Y-5815143D01*
X5964616Y-5815109D01*
X7000000Y-7000000D01*
G37*
G36*
X5966855Y-4187689D02*
G01*
X5964616Y-4184891D01*
X7000000Y-3000000D01*
X5966855Y-4187689D01*
G37*
G36*
X7000000Y-7000000D02*
G01*
X5964616Y-5815109D01*
X5966855Y-5812311D01*
X7000000Y-7000000D01*
G37*
G36*
X6021355Y-4257375D02*
G01*
X5966855Y-4187689D01*
X7000000Y-3000000D01*
X6021355Y-4257375D01*
G37*
G36*
X7000000Y-7000000D02*
G01*
X5966855Y-5812311D01*
X6021355Y-5742625D01*
X7000000Y-7000000D01*
G37*
G36*
X6023532Y-4260223D02*
G01*
X6021355Y-4257375D01*
X7000000Y-3000000D01*
X6023532Y-4260223D01*
G37*
G36*
X7000000Y-7000000D02*
G01*
X6021355Y-5742625D01*
X6023532Y-5739777D01*
X7000000Y-7000000D01*
G37*
G36*
X6023558Y-4260258D02*
G01*
X6023532Y-4260223D01*
X7000000Y-3000000D01*
X6023558Y-4260258D01*
G37*
G36*
X7000000Y-7000000D02*
G01*
X6023532Y-5739777D01*
X6023558Y-5739742D01*
X7000000Y-7000000D01*
G37*
G36*
X6025671Y-4263153D02*
G01*
X6023558Y-4260258D01*
X7000000Y-3000000D01*
X6025671Y-4263153D01*
G37*
G36*
X7000000Y-7000000D02*
G01*
X6023558Y-5739742D01*
X6025671Y-5736847D01*
X7000000Y-7000000D01*
G37*
G36*
X6030808Y-4270356D02*
G01*
X6025671Y-4263153D01*
X7000000Y-3000000D01*
X6030808Y-4270356D01*
G37*
G36*
X7000000Y-7000000D02*
G01*
X6025671Y-5736847D01*
X6030808Y-5729644D01*
X7000000Y-7000000D01*
G37*
G36*
X6032856Y-4273297D02*
G01*
X6030808Y-4270356D01*
X7000000Y-3000000D01*
X6032856Y-4273297D01*
G37*
G36*
X7000000Y-7000000D02*
G01*
X6030808Y-5729644D01*
X6032856Y-5726703D01*
X7000000Y-7000000D01*
G37*
G36*
X6032881Y-4273333D02*
G01*
X6032856Y-4273297D01*
X7000000Y-3000000D01*
X6032881Y-4273333D01*
G37*
G36*
X7000000Y-7000000D02*
G01*
X6032856Y-5726703D01*
X6032881Y-5726667D01*
X7000000Y-7000000D01*
G37*
G36*
X6034864Y-4276319D02*
G01*
X6032881Y-4273333D01*
X7000000Y-3000000D01*
X6034864Y-4276319D01*
G37*
G36*
X7000000Y-7000000D02*
G01*
X6032881Y-5726667D01*
X6034864Y-5723681D01*
X7000000Y-7000000D01*
G37*
G36*
X6082992Y-4350549D02*
G01*
X6034864Y-4276319D01*
X7000000Y-3000000D01*
X6082992Y-4350549D01*
G37*
G36*
X7000000Y-7000000D02*
G01*
X6034864Y-5723681D01*
X6082992Y-5649451D01*
X7000000Y-7000000D01*
G37*
G36*
X6084908Y-4353578D02*
G01*
X6082992Y-4350549D01*
X7000000Y-3000000D01*
X6084908Y-4353578D01*
G37*
G36*
X7000000Y-7000000D02*
G01*
X6082992Y-5649451D01*
X6084908Y-5646422D01*
X7000000Y-7000000D01*
G37*
G36*
X6084931Y-4353615D02*
G01*
X6084908Y-4353578D01*
X7000000Y-3000000D01*
X6084931Y-4353615D01*
G37*
G36*
X7000000Y-7000000D02*
G01*
X6084908Y-5646422D01*
X6084931Y-5646385D01*
X7000000Y-7000000D01*
G37*
G36*
X6086780Y-4356685D02*
G01*
X6084931Y-4353615D01*
X7000000Y-3000000D01*
X6086780Y-4356685D01*
G37*
G36*
X7000000Y-7000000D02*
G01*
X6084931Y-5646385D01*
X6086780Y-5643315D01*
X7000000Y-7000000D01*
G37*
G36*
X6091260Y-4364314D02*
G01*
X6086780Y-4356685D01*
X7000000Y-3000000D01*
X6091260Y-4364314D01*
G37*
G36*
X7000000Y-7000000D02*
G01*
X6086780Y-5643315D01*
X6091260Y-5635686D01*
X7000000Y-7000000D01*
G37*
G36*
X6093041Y-4367425D02*
G01*
X6091260Y-4364314D01*
X7000000Y-3000000D01*
X6093041Y-4367425D01*
G37*
G36*
X7000000Y-7000000D02*
G01*
X6091260Y-5635686D01*
X6093041Y-5632575D01*
X7000000Y-7000000D01*
G37*
G36*
X6093062Y-4367463D02*
G01*
X6093041Y-4367425D01*
X7000000Y-3000000D01*
X6093062Y-4367463D01*
G37*
G36*
X7000000Y-7000000D02*
G01*
X6093041Y-5632575D01*
X6093062Y-5632537D01*
X7000000Y-7000000D01*
G37*
G36*
X6094773Y-4370612D02*
G01*
X6093062Y-4367463D01*
X7000000Y-3000000D01*
X6094773Y-4370612D01*
G37*
G36*
X7000000Y-7000000D02*
G01*
X6093062Y-5632537D01*
X6094773Y-5629388D01*
X7000000Y-7000000D01*
G37*
G36*
X6136152Y-4448805D02*
G01*
X6094773Y-4370612D01*
X7000000Y-3000000D01*
X6136152Y-4448805D01*
G37*
G36*
X7000000Y-7000000D02*
G01*
X6094773Y-5629388D01*
X6136152Y-5551195D01*
X7000000Y-7000000D01*
G37*
G36*
X6137794Y-4451991D02*
G01*
X6136152Y-4448805D01*
X7000000Y-3000000D01*
X6137794Y-4451991D01*
G37*
G36*
X7000000Y-7000000D02*
G01*
X6136152Y-5551195D01*
X6137794Y-5548009D01*
X7000000Y-7000000D01*
G37*
G36*
X6137813Y-4452031D02*
G01*
X6137794Y-4451991D01*
X7000000Y-3000000D01*
X6137813Y-4452031D01*
G37*
G36*
X7000000Y-7000000D02*
G01*
X6137794Y-5548009D01*
X6137813Y-5547969D01*
X7000000Y-7000000D01*
G37*
G36*
X6139384Y-4455253D02*
G01*
X6137813Y-4452031D01*
X7000000Y-3000000D01*
X6139384Y-4455253D01*
G37*
G36*
X7000000Y-7000000D02*
G01*
X6137813Y-5547969D01*
X6139384Y-5544747D01*
X7000000Y-7000000D01*
G37*
G36*
X6143172Y-4463247D02*
G01*
X6139384Y-4455253D01*
X7000000Y-3000000D01*
X6143172Y-4463247D01*
G37*
G36*
X7000000Y-7000000D02*
G01*
X6139384Y-5544747D01*
X6143172Y-5536753D01*
X7000000Y-7000000D01*
G37*
G36*
X6144670Y-4466503D02*
G01*
X6143172Y-4463247D01*
X7000000Y-3000000D01*
X6144670Y-4466503D01*
G37*
G36*
X7000000Y-7000000D02*
G01*
X6143172Y-5536753D01*
X6144670Y-5533497D01*
X7000000Y-7000000D01*
G37*
G36*
X6144688Y-4466543D02*
G01*
X6144670Y-4466503D01*
X7000000Y-3000000D01*
X6144688Y-4466543D01*
G37*
G36*
X7000000Y-7000000D02*
G01*
X6144670Y-5533497D01*
X6144688Y-5533457D01*
X7000000Y-7000000D01*
G37*
G36*
X6146115Y-4469831D02*
G01*
X6144688Y-4466543D01*
X7000000Y-3000000D01*
X6146115Y-4469831D01*
G37*
G36*
X7000000Y-7000000D02*
G01*
X6144688Y-5533457D01*
X6146115Y-5530169D01*
X7000000Y-7000000D01*
G37*
G36*
X6180421Y-4551375D02*
G01*
X6146115Y-4469831D01*
X7000000Y-3000000D01*
X6180421Y-4551375D01*
G37*
G36*
X7000000Y-7000000D02*
G01*
X6146115Y-5530169D01*
X6180421Y-5448625D01*
X7000000Y-7000000D01*
G37*
G36*
X6181774Y-4554694D02*
G01*
X6180421Y-4551375D01*
X7000000Y-3000000D01*
X6181774Y-4554694D01*
G37*
G36*
X7000000Y-7000000D02*
G01*
X6180421Y-5448625D01*
X6181774Y-5445306D01*
X7000000Y-7000000D01*
G37*
G36*
X6181790Y-4554735D02*
G01*
X6181774Y-4554694D01*
X7000000Y-3000000D01*
X6181790Y-4554735D01*
G37*
G36*
X7000000Y-7000000D02*
G01*
X6181774Y-5445306D01*
X6181790Y-5445265D01*
X7000000Y-7000000D01*
G37*
G36*
X6183070Y-4558083D02*
G01*
X6181790Y-4554735D01*
X7000000Y-3000000D01*
X6183070Y-4558083D01*
G37*
G36*
X7000000Y-7000000D02*
G01*
X6181790Y-5445265D01*
X6183070Y-5441917D01*
X7000000Y-7000000D01*
G37*
G36*
X6186136Y-4566381D02*
G01*
X6183070Y-4558083D01*
X7000000Y-3000000D01*
X6186136Y-4566381D01*
G37*
G36*
X7000000Y-7000000D02*
G01*
X6183070Y-5441917D01*
X6186136Y-5433619D01*
X7000000Y-7000000D01*
G37*
G36*
X6187342Y-4569757D02*
G01*
X6186136Y-4566381D01*
X7000000Y-3000000D01*
X6187342Y-4569757D01*
G37*
G36*
X7000000Y-7000000D02*
G01*
X6186136Y-5433619D01*
X6187342Y-5430243D01*
X7000000Y-7000000D01*
G37*
G36*
X6187356Y-4569799D02*
G01*
X6187342Y-4569757D01*
X7000000Y-3000000D01*
X6187356Y-4569799D01*
G37*
G36*
X7000000Y-7000000D02*
G01*
X6187342Y-5430243D01*
X6187356Y-5430201D01*
X7000000Y-7000000D01*
G37*
G36*
X6188486Y-4573200D02*
G01*
X6187356Y-4569799D01*
X7000000Y-3000000D01*
X6188486Y-4573200D01*
G37*
G36*
X7000000Y-7000000D02*
G01*
X6187356Y-5430201D01*
X6188486Y-5426800D01*
X7000000Y-7000000D01*
G37*
G36*
X6215451Y-4657457D02*
G01*
X6188486Y-4573200D01*
X7000000Y-3000000D01*
X6215451Y-4657457D01*
G37*
G36*
X7000000Y-7000000D02*
G01*
X6188486Y-5426800D01*
X6215451Y-5342543D01*
X7000000Y-7000000D01*
G37*
G36*
X6216506Y-4660882D02*
G01*
X6215451Y-4657457D01*
X7000000Y-3000000D01*
X6216506Y-4660882D01*
G37*
G36*
X7000000Y-7000000D02*
G01*
X6215451Y-5342543D01*
X6216506Y-5339118D01*
X7000000Y-7000000D01*
G37*
G36*
X6216518Y-4660924D02*
G01*
X6216506Y-4660882D01*
X7000000Y-3000000D01*
X6216518Y-4660924D01*
G37*
G36*
X7000000Y-7000000D02*
G01*
X6216506Y-5339118D01*
X6216518Y-5339076D01*
X7000000Y-7000000D01*
G37*
G36*
X6217497Y-4664372D02*
G01*
X6216518Y-4660924D01*
X7000000Y-3000000D01*
X6217497Y-4664372D01*
G37*
G36*
X7000000Y-7000000D02*
G01*
X6216518Y-5339076D01*
X6217497Y-5335628D01*
X7000000Y-7000000D01*
G37*
G36*
X6219818Y-4672909D02*
G01*
X6217497Y-4664372D01*
X7000000Y-3000000D01*
X6219818Y-4672909D01*
G37*
G36*
X7000000Y-7000000D02*
G01*
X6217497Y-5335628D01*
X6219818Y-5327091D01*
X7000000Y-7000000D01*
G37*
G36*
X6220720Y-4676378D02*
G01*
X6219818Y-4672909D01*
X7000000Y-3000000D01*
X6220720Y-4676378D01*
G37*
G36*
X7000000Y-7000000D02*
G01*
X6219818Y-5327091D01*
X6220720Y-5323622D01*
X7000000Y-7000000D01*
G37*
G36*
X6220731Y-4676421D02*
G01*
X6220720Y-4676378D01*
X7000000Y-3000000D01*
X6220731Y-4676421D01*
G37*
G36*
X7000000Y-7000000D02*
G01*
X6220720Y-5323622D01*
X6220731Y-5323579D01*
X7000000Y-7000000D01*
G37*
G36*
X6221556Y-4679908D02*
G01*
X6220731Y-4676421D01*
X7000000Y-3000000D01*
X6221556Y-4679908D01*
G37*
G36*
X7000000Y-7000000D02*
G01*
X6220731Y-5323579D01*
X6221556Y-5320092D01*
X7000000Y-7000000D01*
G37*
G36*
X6240969Y-4766219D02*
G01*
X6221556Y-4679908D01*
X7000000Y-3000000D01*
X6240969Y-4766219D01*
G37*
G36*
X7000000Y-7000000D02*
G01*
X6221556Y-5320092D01*
X6240969Y-5233781D01*
X7000000Y-7000000D01*
G37*
G36*
X6241717Y-4769724D02*
G01*
X6240969Y-4766219D01*
X7000000Y-3000000D01*
X6241717Y-4769724D01*
G37*
G36*
X7000000Y-7000000D02*
G01*
X6240969Y-5233781D01*
X6241717Y-5230276D01*
X7000000Y-7000000D01*
G37*
G36*
X6241726Y-4769767D02*
G01*
X6241717Y-4769724D01*
X7000000Y-3000000D01*
X6241726Y-4769767D01*
G37*
G36*
X7000000Y-7000000D02*
G01*
X6241717Y-5230276D01*
X6241726Y-5230233D01*
X7000000Y-7000000D01*
G37*
G36*
X6242396Y-4773288D02*
G01*
X6241726Y-4769767D01*
X7000000Y-3000000D01*
X6242396Y-4773288D01*
G37*
G36*
X7000000Y-7000000D02*
G01*
X6241726Y-5230233D01*
X6242396Y-5226712D01*
X7000000Y-7000000D01*
G37*
G36*
X6243953Y-4781997D02*
G01*
X6242396Y-4773288D01*
X7000000Y-3000000D01*
X6243953Y-4781997D01*
G37*
G36*
X7000000Y-7000000D02*
G01*
X6242396Y-5226712D01*
X6243953Y-5218003D01*
X7000000Y-7000000D01*
G37*
G36*
X6244545Y-4785531D02*
G01*
X6243953Y-4781997D01*
X7000000Y-3000000D01*
X6244545Y-4785531D01*
G37*
G36*
X7000000Y-7000000D02*
G01*
X6243953Y-5218003D01*
X6244545Y-5214469D01*
X7000000Y-7000000D01*
G37*
G36*
X6244552Y-4785575D02*
G01*
X6244545Y-4785531D01*
X7000000Y-3000000D01*
X6244552Y-4785575D01*
G37*
G36*
X7000000Y-7000000D02*
G01*
X6244545Y-5214469D01*
X6244552Y-5214425D01*
X7000000Y-7000000D01*
G37*
G36*
X6245066Y-4789122D02*
G01*
X6244552Y-4785575D01*
X7000000Y-3000000D01*
X6245066Y-4789122D01*
G37*
G36*
X7000000Y-7000000D02*
G01*
X6244552Y-5214425D01*
X6245066Y-5210878D01*
X7000000Y-7000000D01*
G37*
G36*
X6256774Y-4876811D02*
G01*
X6245066Y-4789122D01*
X7000000Y-3000000D01*
X6256774Y-4876811D01*
G37*
G36*
X7000000Y-7000000D02*
G01*
X6245066Y-5210878D01*
X6256774Y-5123189D01*
X7000000Y-7000000D01*
G37*
G36*
X6257210Y-4880368D02*
G01*
X6256774Y-4876811D01*
X7000000Y-3000000D01*
X6257210Y-4880368D01*
G37*
G36*
X7000000Y-7000000D02*
G01*
X6256774Y-5123189D01*
X6257210Y-5119632D01*
X7000000Y-7000000D01*
G37*
G36*
X6257214Y-4880412D02*
G01*
X6257210Y-4880368D01*
X7000000Y-3000000D01*
X6257214Y-4880412D01*
G37*
G36*
X7000000Y-7000000D02*
G01*
X6257210Y-5119632D01*
X6257214Y-5119588D01*
X7000000Y-7000000D01*
G37*
G36*
X6257571Y-4883978D02*
G01*
X6257214Y-4880412D01*
X7000000Y-3000000D01*
X6257571Y-4883978D01*
G37*
G36*
X7000000Y-7000000D02*
G01*
X6257214Y-5119588D01*
X6257571Y-5116022D01*
X7000000Y-7000000D01*
G37*
G36*
X6258353Y-4892790D02*
G01*
X6257571Y-4883978D01*
X7000000Y-3000000D01*
X6258353Y-4892790D01*
G37*
G36*
X7000000Y-7000000D02*
G01*
X6257571Y-5116022D01*
X6258353Y-5107210D01*
X7000000Y-7000000D01*
G37*
G36*
X6258630Y-4896364D02*
G01*
X6258353Y-4892790D01*
X7000000Y-3000000D01*
X6258630Y-4896364D01*
G37*
G36*
X7000000Y-7000000D02*
G01*
X6258353Y-5107210D01*
X6258630Y-5103636D01*
X7000000Y-7000000D01*
G37*
G36*
X6258633Y-4896408D02*
G01*
X6258630Y-4896364D01*
X7000000Y-3000000D01*
X6258633Y-4896408D01*
G37*
G36*
X7000000Y-7000000D02*
G01*
X6258630Y-5103636D01*
X6258633Y-5103592D01*
X7000000Y-7000000D01*
G37*
G36*
X6258831Y-4899986D02*
G01*
X6258633Y-4896408D01*
X7000000Y-3000000D01*
X6258831Y-4899986D01*
G37*
G36*
X7000000Y-7000000D02*
G01*
X6258633Y-5103592D01*
X6258831Y-5100014D01*
X7000000Y-7000000D01*
G37*
G36*
X6262744Y-4988367D02*
G01*
X6258831Y-4899986D01*
X7000000Y-3000000D01*
X6262744Y-4988367D01*
G37*
G36*
X7000000Y-7000000D02*
G01*
X6258831Y-5100014D01*
X6262744Y-5011633D01*
X7000000Y-7000000D01*
G37*
G36*
X6262863Y-4991949D02*
G01*
X6262744Y-4988367D01*
X7000000Y-3000000D01*
X6262863Y-4991949D01*
G37*
G36*
X7000000Y-7000000D02*
G01*
X6262744Y-5011633D01*
X6262863Y-5008051D01*
X7000000Y-7000000D01*
G37*
G36*
X6262864Y-4991993D02*
G01*
X6262863Y-4991949D01*
X7000000Y-3000000D01*
X6262864Y-4991993D01*
G37*
G36*
X7000000Y-7000000D02*
G01*
X6262863Y-5008051D01*
X6262864Y-5008007D01*
X7000000Y-7000000D01*
G37*
G36*
X6262904Y-4995577D02*
G01*
X6262864Y-4991993D01*
X7000000Y-3000000D01*
X6262904Y-4995577D01*
G37*
G36*
X7000000Y-7000000D02*
G01*
X6262864Y-5008007D01*
X6262904Y-5004423D01*
X7000000Y-7000000D01*
G37*
G36*
X7000000Y-7000000D02*
G01*
X6262904Y-4995577D01*
X7000000Y-3000000D01*
X7000000Y-7000000D01*
G37*
G36*
X7000000Y-7000000D02*
G01*
X6262904Y-5004423D01*
X6262904Y-4995577D01*
X7000000Y-7000000D01*
G37*
G36*
X9500000Y-778534D02*
G01*
X9304968Y-500000D01*
X9500000Y-500000D01*
X9500000Y-778534D01*
G37*
G36*
X9500000Y-1650258D02*
G01*
X9500000Y-1998947D01*
X8450426Y-500000D01*
X8694581Y-500000D01*
X9500000Y-1650258D01*
G37*
G36*
X9240454Y-2500000D02*
G01*
X8996299Y-2500000D01*
X7595884Y-500000D01*
X7840039Y-500000D01*
X9240454Y-2500000D01*
G37*
G36*
X8385912Y-2500000D02*
G01*
X8141757Y-2500000D01*
X6741342Y-500000D01*
X6985497Y-500000D01*
X8385912Y-2500000D01*
G37*
G36*
X7531369Y-2500000D02*
G01*
X7287215Y-2500000D01*
X5886799Y-500000D01*
X6130954Y-500000D01*
X7531369Y-2500000D01*
G37*
G36*
X6676827Y-2500000D02*
G01*
X6432672Y-2500000D01*
X5032257Y-500000D01*
X5276412Y-500000D01*
X6676827Y-2500000D01*
G37*
G36*
X5822285Y-2500000D02*
G01*
X5578130Y-2500000D01*
X4177715Y-500000D01*
X4421870Y-500000D01*
X5822285Y-2500000D01*
G37*
G36*
X4967743Y-2500000D02*
G01*
X4723588Y-2500000D01*
X3323173Y-500000D01*
X3567328Y-500000D01*
X4967743Y-2500000D01*
G37*
G36*
X4113201Y-2500000D02*
G01*
X3869046Y-2500000D01*
X2468631Y-500000D01*
X2712785Y-500000D01*
X4113201Y-2500000D01*
G37*
G36*
X3258658Y-2500000D02*
G01*
X3014503Y-2500000D01*
X1614088Y-500000D01*
X1858243Y-500000D01*
X3258658Y-2500000D01*
G37*
G36*
X2404116Y-2500000D02*
G01*
X2159961Y-2500000D01*
X759546Y-500000D01*
X1003701Y-500000D01*
X2404116Y-2500000D01*
G37*
G36*
X1549574Y-2500000D02*
G01*
X1305419Y-2500000D01*
X500000Y-1349742D01*
X500000Y-1001053D01*
X1549574Y-2500000D01*
G37*
G36*
X695032Y-2500000D02*
G01*
X500000Y-2500000D01*
X500000Y-2221466D01*
X695032Y-2500000D01*
G37*
G36*
X4525372Y-6170208D02*
G01*
X4528660Y-6171634D01*
X4528701Y-6171651D01*
X4532019Y-6173004D01*
X4540248Y-6176254D01*
X4543596Y-6177533D01*
X4543637Y-6177548D01*
X4547012Y-6178754D01*
X4630652Y-6207576D01*
X4634053Y-6208706D01*
X4634096Y-6208720D01*
X4637521Y-6209774D01*
X4646004Y-6212284D01*
X4649452Y-6213262D01*
X4649495Y-6213274D01*
X4652963Y-6214176D01*
X4721374Y-6231161D01*
X4090095Y-8125000D01*
X1000000Y-8125000D01*
X1000000Y-7875000D01*
X3909905Y-7875000D01*
X4484290Y-6151844D01*
X4525372Y-6170208D01*
G37*
G36*
X6090095Y-7875000D02*
G01*
X9000000Y-7875000D01*
X9000000Y-8125000D01*
X5909905Y-8125000D01*
X5278649Y-6231232D01*
X5292990Y-6228338D01*
X5296495Y-6227590D01*
X5296538Y-6227581D01*
X5300026Y-6226756D01*
X5308612Y-6224624D01*
X5312081Y-6223722D01*
X5312123Y-6223710D01*
X5315571Y-6222732D01*
X5400404Y-6197637D01*
X5403829Y-6196582D01*
X5403872Y-6196569D01*
X5407273Y-6195439D01*
X5415637Y-6192557D01*
X5419012Y-6191351D01*
X5419054Y-6191336D01*
X5422401Y-6190057D01*
X5504684Y-6157563D01*
X5508003Y-6156209D01*
X5508044Y-6156192D01*
X5511332Y-6154766D01*
X5515990Y-6152684D01*
X6090095Y-7875000D01*
G37*
M02*
